<svg width="416" height="379" viewBox="0 0 416 379" fill="none" xmlns="http://www.w3.org/2000/svg">
<g clip-path="url(#clip0_527_3)">
<path d="M403.585 379C410.279 379 415.74 373.636 415.846 366.943C416.356 333.585 419.044 284.366 356.207 270.758C305.352 259.742 335.508 169.383 198.547 175.219C100.236 179.408 126.348 262.265 49.9111 269.16C-0.953568 273.753 -1.39662 338.072 0.558599 367.54C0.982391 373.983 6.33758 378.99 12.8004 378.99H403.585V379Z" fill="#BE00FF"/>
<path opacity="0.55" d="M356.197 270.749C305.342 259.732 335.499 169.373 198.537 175.209C175.151 176.211 158.816 181.661 146.459 189.471C150.619 188.922 155.04 188.537 159.75 188.344C296.702 182.509 266.555 272.867 317.41 283.884C379.583 297.347 377.618 345.661 377.069 378.99H403.575C410.269 378.99 415.73 373.626 415.836 366.934C416.356 333.575 419.044 284.366 356.197 270.749Z" fill="#660089"/>
<path d="M140.593 0H138.436V157.74H140.593V0Z" fill="#BE00FF"/>
<path d="M295.634 0H293.476V181.969H295.634V0Z" fill="#BE00FF"/>
<path d="M295.431 171.367L134.631 152.598C127.764 151.798 121.542 156.719 120.733 163.586L108.741 266.396C107.942 273.262 112.864 279.483 119.731 280.292L280.531 299.061C287.398 299.86 293.62 294.939 294.43 288.073L306.431 185.272C307.22 178.387 302.308 172.166 295.431 171.367Z" fill="white"/>
<path d="M305.236 195.432L306.421 185.253C307.22 178.387 302.299 172.166 295.431 171.357L134.631 152.588C127.764 151.789 121.542 156.71 120.733 163.576L119.548 173.755L305.236 195.432Z" fill="#8A00B9"/>
<path d="M145.573 236.013L165.953 200.103C167.263 197.801 169.815 196.511 172.445 196.809C176.057 197.233 178.648 200.497 178.224 204.109L173.986 240.433L174.169 240.453C176.673 240.741 178.465 243.014 178.176 245.508C177.887 248.012 175.614 249.803 173.119 249.514L172.936 249.495L172.166 256.111C171.848 258.817 169.401 260.753 166.704 260.435C163.998 260.117 162.062 257.671 162.38 254.975L163.15 248.359L148.472 246.645C145.968 246.356 144.166 244.083 144.465 241.579L144.85 238.247C144.927 237.458 145.178 236.697 145.573 236.013ZM164.258 238.7L166.887 216.175C166.907 216.021 166.695 215.954 166.618 216.089L154.578 237.332C154.366 237.708 154.607 238.18 155.031 238.228L163.593 239.23C163.921 239.268 164.219 239.027 164.258 238.7Z" fill="#BE00FF"/>
<path d="M235.522 246.51L255.903 210.599C257.213 208.298 259.765 207.007 262.395 207.306C266.007 207.73 268.597 210.994 268.174 214.605L263.936 250.93L264.119 250.949C266.623 251.238 268.414 253.511 268.126 256.005C267.837 258.509 265.564 260.3 263.069 260.011L262.886 259.992L262.115 266.608C261.798 269.314 259.351 271.249 256.654 270.932C253.948 270.614 252.012 268.168 252.33 265.471L253.1 258.855L238.422 257.141C235.917 256.852 234.116 254.58 234.415 252.076L234.8 248.744C234.887 247.954 235.137 247.193 235.522 246.51ZM254.217 249.197L256.847 226.672C256.866 226.518 256.654 226.45 256.577 226.585L244.538 247.829C244.326 248.205 244.567 248.677 244.99 248.725L253.553 249.726C253.88 249.765 254.179 249.524 254.217 249.197Z" fill="#BE00FF"/>
<path d="M195.089 214.885C196.274 204.735 202.293 199.563 212.089 200.7C221.874 201.846 226.546 208.269 225.361 218.409L221.508 251.392C220.324 261.542 214.304 266.714 204.509 265.577C194.723 264.431 190.051 258.008 191.236 247.868L195.089 214.885ZM201.128 249.668C200.598 254.195 202.39 256.149 205.568 256.525C208.737 256.891 210.933 255.408 211.463 250.872L215.46 216.618C215.989 212.092 214.198 210.137 211.02 209.762C207.851 209.396 205.655 210.879 205.125 215.414L201.128 249.668Z" fill="#BE00FF"/>
<path d="M138.513 166.802C138.301 168.651 136.625 169.97 134.776 169.758C132.926 169.547 131.607 167.871 131.819 166.022C132.03 164.173 133.706 162.854 135.556 163.066C137.405 163.287 138.724 164.963 138.513 166.802Z" fill="white"/>
<path d="M154.636 168.689C154.424 170.538 152.748 171.858 150.899 171.646C149.05 171.434 147.73 169.758 147.942 167.909C148.154 166.06 149.83 164.741 151.679 164.953C153.528 165.165 154.858 166.84 154.636 168.689Z" fill="#BE00FF"/>
<path d="M171.356 170.635C171.145 172.484 169.469 173.803 167.619 173.591C165.77 173.379 164.451 171.704 164.662 169.855C164.874 168.006 166.55 166.686 168.4 166.898C170.249 167.12 171.568 168.795 171.356 170.635Z" fill="#FFBF4D"/>
<path d="M106.67 287.736C106.67 287.736 104.494 297.366 104.86 307.208C105.187 316.02 104.137 373.954 104.137 373.954H111.216C111.216 373.954 121.291 328.577 121.667 324.995C122.042 321.412 127.109 285.579 127.109 285.579L106.67 287.736Z" fill="#590077"/>
<path d="M111.38 285.097C111.38 285.097 113.008 297.472 115.782 306.274C118.556 315.066 132.165 373.963 132.165 373.963H139.245C139.245 373.963 137.944 328.587 137.453 325.004C136.962 321.422 133.379 285.589 133.379 285.589L111.38 285.097Z" fill="#8A00B9"/>
<path d="M132.734 373.944V378.884H146.208C146.969 378.884 147.277 377.893 146.632 377.469C144.657 376.159 141.508 374.349 138.57 373.944H132.734Z" fill="#590077"/>
<path d="M104.494 373.944V378.884H117.968C118.729 378.884 119.037 377.893 118.392 377.469C116.418 376.159 113.268 374.349 110.33 373.944H104.494Z" fill="#590077"/>
<path d="M128.804 227.519C128.804 227.519 133.437 220.48 128.12 219.796C124.036 219.266 122.351 220.489 122.351 220.489C122.351 220.489 117.65 219.969 115.069 222.204C113.307 223.735 106.834 235.589 117.304 239.875C127.773 244.16 125.539 233.182 125.539 233.182L128.804 227.519Z" fill="#8A00B9"/>
<path d="M128.12 219.796C124.036 219.266 122.351 220.489 122.351 220.489C122.351 220.489 117.65 219.969 115.069 222.204C113.307 223.735 106.834 235.589 117.304 239.875C122.225 241.887 124.335 240.53 125.202 238.527C115.271 241.319 114.193 229.349 115.83 225.95C117.496 222.493 121.484 224.081 121.484 224.081C123.044 220.152 128.139 220.576 130.239 220.884C129.854 220.335 129.189 219.931 128.12 219.796Z" fill="#590077"/>
<path d="M122.283 230.948C122.283 230.948 120.906 229.571 119.885 230.948C118.854 232.325 119.538 235.406 121.262 235.58C121.262 235.58 120.752 240.038 117.313 239.865V243.467H125.375V240.722C125.375 240.722 130.355 238.661 130.181 234.549C130.008 230.428 128.804 227.51 128.804 227.51C128.804 227.51 126.059 230.601 122.283 230.948Z" fill="#F98D3D"/>
<path d="M123.516 241.878C124.316 242.215 124.171 242.716 124.21 243.467H125.365V240.722C125.365 240.722 123.41 241.339 120.55 239.711C120.559 239.721 122.225 241.339 123.516 241.878Z" fill="#ED701B"/>
<path d="M125.173 224.38C125.173 224.38 120.993 222.714 120.501 223.966C120.184 224.784 120.993 225.487 122.11 226.2L121.127 226.364C120.906 226.402 120.829 226.682 121.002 226.816C121.272 227.038 122.033 227.182 123.612 227.24L125.173 224.38Z" fill="#F98D3D"/>
<path d="M155.021 234.848C147.046 228.945 125.279 224.216 125.279 224.216L123.487 227.481C123.487 227.481 143.251 235.137 141.951 236.283C141.181 236.957 131.53 241.377 128.255 242.87C127.552 243.187 126.791 243.342 126.011 243.332L116.003 243.274C116.003 243.274 108.78 242.417 103.107 248.937C98.0308 254.782 89.4009 268.312 89.4009 268.312L103.945 289.691L105.553 292.05L105.563 292.021L105.553 292.224C105.553 292.224 106.073 292.281 106.988 292.368C111.66 292.801 126.646 293.986 134.573 292.301L134.795 292.253L134.419 257.18C147.075 247.165 153.124 239.422 155.281 236.995C155.821 236.35 155.715 235.368 155.021 234.848ZM106.237 282.68L104.821 279.579L100.304 269.709L107.797 261.311L106.449 279.734L106.237 282.68Z" fill="#FFBF4D"/>
<path d="M104.811 279.579L106.237 282.68L105.543 292.031L105.534 292.06L103.925 289.701L104.811 279.579Z" fill="#EFAA3A"/>
<path opacity="0.29" d="M131.009 255.928C129.661 256.91 130.008 265.577 129.671 270.999C129.112 280.08 128.573 287.938 128.968 293.004C131.019 292.869 132.926 292.647 134.544 292.301L134.766 292.253L134.39 257.18C147.046 247.165 153.095 239.422 155.252 236.995C155.821 236.35 155.715 235.368 155.021 234.848C155.021 234.848 145.014 245.759 131.009 255.928Z" fill="#F98D2B"/>
<path d="M137.443 325.004C137.087 322.424 135.122 303.048 134.063 292.455L128.977 293.013C128.977 293.013 136.394 354 136.885 373.964H139.235C139.235 373.954 137.935 328.587 137.443 325.004Z" fill="#590077"/>
<path d="M104.831 231.949L103.299 229.205C104.07 227.76 104.503 226.104 104.503 224.351C104.503 218.621 99.8512 213.97 94.1203 213.97C88.3895 213.97 83.7374 218.621 83.7374 224.351C83.7374 230.081 88.3895 234.732 94.1203 234.732C97.0098 234.732 99.62 233.548 101.498 231.651L104.831 231.949Z" fill="#8A00B9"/>
<path d="M88.717 223.407H89.1216V224.852C89.1216 225.295 89.2564 225.487 89.5646 225.487C89.8054 225.487 89.9788 225.362 90.2003 225.093V223.407H90.5952V225.776H90.2677L90.2292 225.41H90.2099C89.9884 225.67 89.7572 225.844 89.4298 225.844C88.9289 225.844 88.7074 225.526 88.7074 224.919V223.407H88.717Z" fill="white"/>
<path d="M92.2904 225.969V226.768H91.8859V223.398H92.2133L92.2422 223.667H92.2615C92.4734 223.484 92.7431 223.34 93.0128 223.34C93.6196 223.34 93.947 223.812 93.947 224.544C93.947 225.343 93.4655 225.825 92.9261 225.825C92.7046 225.825 92.483 225.719 92.2711 225.555L92.2904 225.969ZM92.8683 225.497C93.2536 225.497 93.5425 225.141 93.5425 224.553C93.5425 224.033 93.3691 223.677 92.9164 223.677C92.7142 223.677 92.5119 223.793 92.2808 223.995V225.237C92.5023 225.43 92.7142 225.497 92.8683 225.497Z" fill="white"/>
<path d="M95.0161 225.237C95.2184 225.401 95.4303 225.516 95.7096 225.516C96.0178 225.516 96.1816 225.353 96.1816 225.15C96.1816 224.91 95.9022 224.804 95.6422 224.698C95.3051 224.573 94.9391 224.419 94.9391 224.014C94.9391 223.629 95.2376 223.34 95.7578 223.34C96.0563 223.34 96.3164 223.465 96.4898 223.61L96.2971 223.86C96.1334 223.735 95.9697 223.648 95.7578 223.648C95.4592 223.648 95.3243 223.812 95.3243 223.985C95.3243 224.207 95.5844 224.293 95.8541 224.399C96.1912 224.524 96.5764 224.669 96.5764 225.112C96.5764 225.497 96.2682 225.815 95.7096 225.815C95.3725 225.815 95.0546 225.67 94.8235 225.487L95.0161 225.237Z" fill="white"/>
<path d="M97.819 225.218C97.9731 225.218 98.1079 225.343 98.1079 225.526C98.1079 225.699 97.9731 225.824 97.819 225.824C97.6552 225.824 97.53 225.699 97.53 225.526C97.53 225.343 97.6552 225.218 97.819 225.218Z" fill="white"/>
<path d="M99.514 225.218C99.6682 225.218 99.803 225.343 99.803 225.526C99.803 225.699 99.6682 225.824 99.514 225.824C99.3503 225.824 99.2251 225.699 99.2251 225.526C99.2251 225.343 99.3599 225.218 99.514 225.218Z" fill="white"/>
<path d="M65.0135 356.784C65.0135 356.784 62.8368 354.742 64.3008 347.019C65.7648 339.295 69.4826 331.871 67.6526 323.492C65.8322 315.105 51.5389 293.976 51.5003 292.57C51.4522 291.164 47.0891 317.156 54.4765 327.402C61.864 337.639 62.7501 341.192 62.4226 346.576C62.0951 351.959 62.4997 356.302 63.3087 357.554L65.0135 356.784Z" fill="#A900E2"/>
<path d="M63.6651 341.25C62.8079 344.698 62.2878 353.336 63.6555 355.406C63.7807 355.599 63.9637 355.493 64.1949 355.137C63.7807 353.711 63.5014 351.208 64.2912 347.028C65.7552 339.305 69.473 331.88 67.643 323.502C65.8226 315.114 51.5292 293.986 51.4907 292.58C51.4907 292.58 53.6482 310.193 60.8912 322.308C66.0923 330.975 64.5223 337.803 63.6651 341.25Z" fill="#8A00B9"/>
<path d="M67.6237 356.254C67.6237 356.254 63.4243 345.776 70.542 336.705C77.6598 327.633 89.0348 315.981 89.2563 311.368C89.2563 311.368 92.1843 333.277 82.9187 339.478C73.6627 345.68 67.171 346.672 68.7698 356.215L67.6237 356.254Z" fill="#A900E2"/>
<path d="M77.6116 335.077C67.2865 342.589 66.4389 351.246 68.0474 355.262C68.1726 355.57 68.4038 355.763 68.7216 355.869C67.3346 346.662 73.7782 345.613 82.9186 339.488C92.1746 333.286 89.2563 311.378 89.2563 311.378C89.2563 311.378 87.9367 327.556 77.6116 335.077Z" fill="#8A00B9"/>
<path d="M60.7178 356.485C60.7178 356.485 62.0662 350.938 61.3439 344.948C60.6311 338.958 54.3706 335.588 48.5242 329.261C45.5191 326.006 44.6234 308.797 46.4919 307.198C46.4919 307.198 36.1668 319.708 37.7656 328.866C39.3548 338.024 56.2006 343.976 57.7609 348.405C59.3212 352.835 59.1864 356.543 59.1864 356.543L60.7178 356.485Z" fill="#A900E2"/>
<path d="M43.0052 312.119C39.5956 321.354 43.0919 332.545 54.4283 339.498C62.7693 344.611 60.111 355.252 60.111 355.252L61.4787 351.054C61.6039 349.243 61.6135 347.125 61.3535 344.948C60.6407 338.958 54.3801 335.588 48.5337 329.261C45.6346 326.121 44.7004 310.001 46.3088 307.429C45.8369 308.027 44.4981 309.76 43.0052 312.119Z" fill="#8A00B9"/>
<path d="M46.3088 307.429C46.4244 307.285 46.4918 307.198 46.4918 307.198C46.4244 307.256 46.3666 307.333 46.3088 307.429Z" fill="#8A00B9"/>
<path d="M69.7811 355.792C69.7811 355.792 72.1987 346.816 78.1895 345.603C84.1708 344.399 91.0478 335.549 91.4138 333.816C91.4138 333.825 90.4025 350.495 69.7811 355.792Z" fill="#A900E2"/>
<path d="M77.8428 348.579C74.1731 350.408 72.6513 352.874 72.1119 355.117C90.4698 349.214 91.4137 333.825 91.4137 333.825C91.3367 334.172 91.0092 334.798 90.4795 335.578C88.6784 338.737 84.3152 345.343 77.8428 348.579Z" fill="#8A00B9"/>
<path d="M82.726 352.489H51.4329L55.1507 375.861C55.43 377.633 56.9614 378.942 58.7529 378.942H75.406C77.1975 378.942 78.7289 377.642 79.0082 375.861L82.726 352.489Z" fill="#FFBF4D"/>
<path d="M82.1193 356.36L82.726 352.489H51.4329L52.0493 356.36H82.1193Z" fill="#FF9F50"/>
<path d="M75.146 352.489L71.4282 375.861C71.1488 377.633 69.6174 378.942 67.8259 378.942H75.406C77.1975 378.942 78.7289 377.642 79.0083 375.861L82.7261 352.489H75.146Z" fill="#FF9F50"/>
<path d="M298.6 310.81H157.15V339.565H298.6V310.81Z" fill="#FFBF4D"/>
<path opacity="0.29" d="M298.6 310.81H157.15V317.791H298.6V310.81Z" fill="#F98D2B"/>
<path d="M169.449 310.81H182.356L178.898 317.791H165.982L169.449 310.81Z" fill="#F77E2D"/>
<path d="M198.537 310.81H211.443L207.986 317.791H195.079L198.537 310.81Z" fill="#F77E2D"/>
<path d="M227.625 310.81H240.531L237.073 317.791H224.167L227.625 310.81Z" fill="#F77E2D"/>
<path d="M256.712 310.81H269.609L266.151 317.791H253.245L256.712 310.81Z" fill="#F77E2D"/>
<path d="M298.6 310.81V311.002L295.229 317.791H282.332L285.8 310.81H298.6Z" fill="#F77E2D"/>
<path d="M184.725 339.565H174.756V378.884H184.725V339.565Z" fill="#5D037B"/>
<path d="M184.725 339.565H182.462V378.884H184.725V339.565Z" fill="#8A00B9"/>
<path d="M281.764 339.565H271.795V378.884H281.764V339.565Z" fill="#5D037B"/>
<path d="M281.764 339.565H278.817V378.884H281.764V339.565Z" fill="#8A00B9"/>
<path d="M184.725 339.536H174.756V344.486H184.725V339.536Z" fill="#8A00B9"/>
<path d="M281.764 339.536H271.795V344.486H281.764V339.536Z" fill="#8A00B9"/>
<path d="M184.725 306.312H174.756V310.781H184.725V306.312Z" fill="#51006D"/>
<path d="M184.725 306.312H182.462V310.781H184.725V306.312Z" fill="#8A00B9"/>
<path d="M281.764 306.312H271.795V310.781H281.764V306.312Z" fill="#51006D"/>
<path d="M281.764 306.312H278.817V310.781H281.764V306.312Z" fill="#8A00B9"/>
<path d="M184.725 310.222H174.756V310.781H184.725V310.222Z" fill="#5F0180"/>
<path d="M281.764 310.222H271.795V310.781H281.764V310.222Z" fill="#5F0180"/>
<path d="M182.356 310.81L168.091 339.565H157.15V335.597L169.449 310.81H182.356Z" fill="#6B0090"/>
<path d="M198.537 310.81L184.272 339.565H197.179L211.443 310.81H198.537Z" fill="#6B0090"/>
<path d="M240.531 310.81L226.266 339.565H213.36L227.624 310.81H240.531Z" fill="#6B0090"/>
<path d="M269.609 310.81L255.354 339.565H242.448L256.712 310.81H269.609Z" fill="#6B0090"/>
<path d="M285.8 310.81L271.535 339.565H284.432L298.6 311.002L285.8 310.81Z" fill="#6B0090"/>
<path d="M182.356 310.81L178.898 317.791H165.982L169.449 310.81H182.356Z" fill="#8A00B9"/>
<path d="M211.443 310.81L207.986 317.791H195.079L198.537 310.81H211.443Z" fill="#8A00B9"/>
<path d="M240.531 310.81L237.073 317.791H224.167L227.624 310.81H240.531Z" fill="#8A00B9"/>
<path d="M269.609 310.81L266.151 317.791H253.245L256.712 310.81H269.609Z" fill="#8A00B9"/>
<path d="M298.6 311.002L295.229 317.791H282.332L285.8 310.81L298.6 311.002Z" fill="#8A00B9"/>
<path opacity="0.55" d="M296.163 323.252H161.089V337.639H296.163V323.252Z" fill="url(#paint0_linear_527_3)"/>
<path d="M180.897 308.849C185.743 308.061 189.033 303.494 188.244 298.648C187.456 293.803 182.888 290.515 178.042 291.303C173.196 292.091 169.907 296.658 170.695 301.503C171.484 306.349 176.052 309.637 180.897 308.849Z" fill="#FFBF4D"/>
<path d="M183.512 300.072C183.512 297.848 181.71 296.047 179.486 296.047C177.261 296.047 175.459 297.848 175.459 300.072C175.459 302.297 177.261 304.097 179.486 304.097C181.71 304.107 183.512 302.297 183.512 300.072Z" fill="#8A00B9"/>
<path d="M278.137 308.853C282.983 308.065 286.272 303.498 285.484 298.653C284.695 293.808 280.128 290.519 275.282 291.307C270.436 292.096 267.147 296.663 267.935 301.508C268.724 306.353 273.291 309.642 278.137 308.853Z" fill="#FFBF4D"/>
<path d="M280.752 300.072C280.752 297.848 278.951 296.047 276.726 296.047C274.502 296.047 272.7 297.848 272.7 300.072C272.7 302.297 274.502 304.097 276.726 304.097C278.951 304.107 280.752 302.297 280.752 300.072Z" fill="#8A00B9"/>
<path d="M352.19 375.832H307.143L314.03 359.133V359.124L316.804 352.383L317.565 350.534L318.807 347.529L319.058 346.913L321.832 340.172L322.342 338.949L327.254 327.027C328.14 324.879 331.184 324.879 332.07 327.027L336.982 338.949L337.493 340.172L340.266 346.913L340.517 347.529L341.759 350.534L342.52 352.383L345.294 359.124V359.133L352.19 375.832Z" fill="#FFBF4D"/>
<path opacity="0.29" d="M310.1 368.677L307.143 375.832H352.2L349.243 368.677H310.1Z" fill="#F98D2B"/>
<path d="M355.138 371.556H303.541V378.846H355.138V371.556Z" fill="#8A00B9"/>
<path d="M355.138 371.556H343.994V378.846H355.138V371.556Z" fill="#A900E2"/>
<path opacity="0.29" d="M350.418 371.556H344.042L338.928 359.143V359.133L336.154 352.392L335.393 350.543L334.15 347.539L333.9 346.922L331.126 340.181L330.616 338.958L326.484 328.924L327.254 327.036C328.14 324.889 331.184 324.889 332.07 327.036L336.982 338.958L337.493 340.181L340.267 346.922L340.517 347.539L341.759 350.543L342.52 352.392L345.294 359.133V359.143L350.418 371.556Z" fill="#F98D2B"/>
<path d="M340.267 346.922H319.067L321.841 340.181H337.493L340.267 346.922Z" fill="#8A00B9"/>
<path d="M345.304 359.124V359.133H314.03V359.124L316.804 352.383H342.53L345.304 359.124Z" fill="#8A00B9"/>
<path d="M340.267 346.922H333.9L331.126 340.181H337.493L340.267 346.922Z" fill="#A900E2"/>
<path d="M345.304 359.124V359.133H338.928V359.124L336.154 352.383H342.53L345.304 359.124Z" fill="#A900E2"/>
<path d="M65.0328 212.063C68.3942 212.063 71.3222 209.617 71.7846 206.285C71.8616 205.688 71.9098 205.072 71.9098 204.455C71.9098 197.031 65.89 191.012 58.464 191.012C58.1558 191.012 57.8572 191.021 57.5586 191.05C56.9422 183.732 50.8069 177.982 43.3327 177.982C35.4444 177.982 29.049 184.377 29.049 192.264C29.049 192.61 29.0683 192.957 29.0875 193.304C26.853 192.052 24.2428 191.387 21.4689 191.513C14.2933 191.84 8.39877 197.58 7.88829 204.744C7.88829 204.802 7.87866 204.86 7.87866 204.918C7.6475 208.808 10.797 212.082 14.6979 212.082H65.0328V212.063Z" fill="#B816EF"/>
<path d="M385.891 222.618C396.525 222.618 397.112 206.622 386.489 206.102C386.2 206.093 385.911 206.083 385.612 206.083C383.715 206.083 381.894 206.381 380.18 206.93C378.754 198.273 371.242 191.667 362.178 191.667C352.913 191.667 345.275 198.571 344.1 207.508C341.904 206.458 339.438 205.861 336.838 205.861C335.383 205.861 333.977 206.044 332.628 206.391C323.334 208.789 325.28 222.618 334.882 222.618H385.891Z" fill="#B816EF"/>
<path d="M258.214 143.796C268.838 143.796 269.435 127.8 258.812 127.29C258.523 127.28 258.234 127.271 257.935 127.271C256.038 127.271 254.217 127.569 252.503 128.118C251.077 119.461 243.565 112.854 234.511 112.854C225.255 112.854 217.607 119.759 216.432 128.696C214.236 127.646 211.771 127.049 209.18 127.049C207.725 127.049 206.319 127.232 204.971 127.579C195.676 129.967 197.631 143.796 207.225 143.796H258.214Z" fill="#B816EF"/>
<path d="M88.9963 173.35C103.066 173.35 114.472 161.946 114.472 147.879C114.472 133.811 103.066 122.407 88.9963 122.407C74.9265 122.407 63.5206 133.811 63.5206 147.879C63.5206 161.946 74.9265 173.35 88.9963 173.35Z" fill="#FFBF4D"/>
<path d="M89.2082 122.407C96.1333 126.962 100.718 134.801 100.718 143.709C100.718 157.779 89.3141 169.181 75.2423 169.181C75.1749 169.181 75.1074 169.181 75.0304 169.171C79.0468 171.81 83.8433 173.35 89.0059 173.35C103.078 173.35 114.482 161.948 114.482 147.879C114.482 133.886 103.184 122.523 89.2082 122.407Z" fill="#FF9F50"/>
</g>
<defs>
<linearGradient id="paint0_linear_527_3" x1="228.628" y1="347.974" x2="228.628" y2="324.81" gradientUnits="userSpaceOnUse">
<stop stop-color="white"/>
<stop offset="1" stop-color="white" stop-opacity="0"/>
</linearGradient>
<clipPath id="clip0_527_3">
<rect width="416" height="379" fill="white"/>
</clipPath>
</defs>
</svg>
