<svg width="500" height="379" viewBox="0 0 500 379" fill="none" xmlns="http://www.w3.org/2000/svg">
<g clip-path="url(#clip0_1304_150)">
<path d="M500 333.27H0V333.52H500V333.27Z" fill="#EBEBEB"/>
<path d="M78.46 342.79H52.46V343.04H78.46V342.79Z" fill="#EBEBEB"/>
<path d="M200.43 340.08H146.33V340.33H200.43V340.08Z" fill="#EBEBEB"/>
<path d="M105.78 352.08H79.46V352.33H105.78V352.08Z" fill="#EBEBEB"/>
<path d="M449.9 350.4H430.67V350.65H449.9V350.4Z" fill="#EBEBEB"/>
<path d="M421.76 350.4H391.47V350.65H421.76V350.4Z" fill="#EBEBEB"/>
<path d="M312.79 346.18H258.23V346.43H312.79V346.18Z" fill="#EBEBEB"/>
<path d="M237.01 288.67H43.92C40.77 288.67 38.21 286.11 38.21 282.96V11.5301C38.21 8.38007 40.77 5.82007 43.92 5.82007H237.02C240.17 5.82007 242.73 8.38007 242.73 11.5301V282.96C242.72 286.11 240.16 288.67 237.01 288.67ZM43.92 6.07007C40.91 6.07007 38.46 8.52007 38.46 11.5301V282.96C38.46 285.97 40.91 288.42 43.92 288.42H237.02C240.03 288.42 242.48 285.97 242.48 282.96V11.5301C242.48 8.52007 240.03 6.07007 237.02 6.07007H43.92Z" fill="#EBEBEB"/>
<path d="M453.31 288.67H260.21C257.06 288.67 254.5 286.11 254.5 282.96V11.5301C254.5 8.38007 257.06 5.82007 260.21 5.82007H453.31C456.46 5.82007 459.02 8.38007 459.02 11.5301V282.96C459.02 286.11 456.46 288.67 453.31 288.67ZM260.21 6.07007C257.2 6.07007 254.75 8.52007 254.75 11.5301V282.96C254.75 285.97 257.2 288.42 260.21 288.42H453.31C456.32 288.42 458.77 285.97 458.77 282.96V11.5301C458.77 8.52007 456.32 6.07007 453.31 6.07007H260.21Z" fill="#EBEBEB"/>
<path d="M382.19 100.48H312.76C309.01 104.23 306.91 106.33 303.17 110.07V323.68C306.92 327.43 309.02 329.53 312.76 333.27H382.19C385.94 329.52 388.04 327.42 391.78 323.68V110.07C388.04 106.33 385.94 104.23 382.19 100.48Z" fill="#E0E0E0"/>
<path d="M303.17 323.68L312.76 333.27H334.29L324.7 323.68H303.17Z" fill="#EBEBEB"/>
<path d="M303.17 110.07L312.76 100.48H334.29L324.7 110.07H303.17Z" fill="#EBEBEB"/>
<path d="M420.41 100.48H334.29C330.54 104.23 328.44 106.33 324.7 110.07V323.68C328.45 327.43 330.55 329.53 334.29 333.27H420.41C424.16 329.52 426.26 327.42 430 323.68V110.07C426.25 106.33 424.15 104.23 420.41 100.48Z" fill="#EBEBEB"/>
<path d="M335.52 328.79L329.18 322.46V111.29L335.52 104.96H419.19L425.52 111.29V322.46L419.19 328.79H335.52Z" fill="white"/>
<path d="M425.52 116.33H333.66V134.83H425.52V116.33Z" fill="#EBEBEB"/>
<path d="M420.33 303.79C420.33 304.23 420.69 304.59 421.13 304.59C421.57 304.59 421.93 304.23 421.93 303.79C421.93 303.35 421.57 302.99 421.13 302.99C420.69 302.98 420.33 303.34 420.33 303.79Z" fill="#F5F5F5"/>
<path d="M416.48 303.79C416.48 304.23 416.84 304.59 417.28 304.59C417.72 304.59 418.08 304.23 418.08 303.79C418.08 303.35 417.72 302.99 417.28 302.99C416.83 302.98 416.48 303.34 416.48 303.79Z" fill="white"/>
<path d="M412.62 303.79C412.62 304.23 412.98 304.59 413.42 304.59C413.86 304.59 414.22 304.23 414.22 303.79C414.22 303.35 413.86 302.99 413.42 302.99C412.98 302.98 412.62 303.34 412.62 303.79Z" fill="#F5F5F5"/>
<path d="M425.52 123.78H333.66V127.38H425.52V123.78Z" fill="#F5F5F5"/>
<path d="M329.182 134.819H333.662V116.319H329.182V134.819Z" fill="#E0E0E0"/>
<path d="M425.52 136.62H333.66V155.12H425.52V136.62Z" fill="#EBEBEB"/>
<path d="M420.33 283.5C420.33 283.94 420.69 284.3 421.13 284.3C421.57 284.3 421.93 283.94 421.93 283.5C421.93 283.06 421.57 282.7 421.13 282.7C420.69 282.69 420.33 283.05 420.33 283.5Z" fill="#F5F5F5"/>
<path d="M416.48 283.5C416.48 283.94 416.84 284.3 417.28 284.3C417.72 284.3 418.08 283.94 418.08 283.5C418.08 283.06 417.72 282.7 417.28 282.7C416.83 282.69 416.48 283.05 416.48 283.5Z" fill="white"/>
<path d="M412.62 283.5C412.62 283.94 412.98 284.3 413.42 284.3C413.86 284.3 414.22 283.94 414.22 283.5C414.22 283.06 413.86 282.7 413.42 282.7C412.98 282.69 412.62 283.05 412.62 283.5Z" fill="white"/>
<path d="M425.52 144.07H333.66V147.67H425.52V144.07Z" fill="#F5F5F5"/>
<path d="M329.182 155.108H333.662V136.608H329.182V155.108Z" fill="#E0E0E0"/>
<path d="M425.52 156.9H333.66V175.4H425.52V156.9Z" fill="#EBEBEB"/>
<path d="M420.33 263.21C420.33 263.65 420.69 264.01 421.13 264.01C421.57 264.01 421.93 263.65 421.93 263.21C421.93 262.77 421.57 262.41 421.13 262.41C420.69 262.41 420.33 262.76 420.33 263.21Z" fill="#F5F5F5"/>
<path d="M416.48 263.21C416.48 263.65 416.84 264.01 417.28 264.01C417.72 264.01 418.08 263.65 418.08 263.21C418.08 262.77 417.72 262.41 417.28 262.41C416.83 262.41 416.48 262.76 416.48 263.21Z" fill="#F5F5F5"/>
<path d="M412.62 263.21C412.62 263.65 412.98 264.01 413.42 264.01C413.86 264.01 414.22 263.65 414.22 263.21C414.22 262.77 413.86 262.41 413.42 262.41C412.98 262.41 412.62 262.76 412.62 263.21Z" fill="#F5F5F5"/>
<path d="M425.52 164.36H333.66V167.96H425.52V164.36Z" fill="#F5F5F5"/>
<path d="M329.182 175.406H333.662V156.906H329.182V175.406Z" fill="#E0E0E0"/>
<path d="M425.52 177.19H333.66V195.69H425.52V177.19Z" fill="#EBEBEB"/>
<path d="M420.33 242.92C420.33 243.36 420.69 243.72 421.13 243.72C421.57 243.72 421.93 243.36 421.93 242.92C421.93 242.48 421.57 242.12 421.13 242.12C420.69 242.12 420.33 242.48 420.33 242.92Z" fill="white"/>
<path d="M416.48 242.92C416.48 243.36 416.84 243.72 417.28 243.72C417.72 243.72 418.08 243.36 418.08 242.92C418.08 242.48 417.72 242.12 417.28 242.12C416.83 242.12 416.48 242.48 416.48 242.92Z" fill="white"/>
<path d="M412.62 242.92C412.62 243.36 412.98 243.72 413.42 243.72C413.86 243.72 414.22 243.36 414.22 242.92C414.22 242.48 413.86 242.12 413.42 242.12C412.98 242.12 412.62 242.48 412.62 242.92Z" fill="#F5F5F5"/>
<path d="M425.52 184.64H333.66V188.24H425.52V184.64Z" fill="#F5F5F5"/>
<path d="M329.182 195.695H333.662V177.195H329.182V195.695Z" fill="#E0E0E0"/>
<path d="M425.52 197.48H333.66V215.98H425.52V197.48Z" fill="#EBEBEB"/>
<path d="M420.33 222.63C420.33 223.07 420.69 223.43 421.13 223.43C421.57 223.43 421.93 223.07 421.93 222.63C421.93 222.19 421.57 221.83 421.13 221.83C420.69 221.83 420.33 222.19 420.33 222.63Z" fill="white"/>
<path d="M416.48 222.63C416.48 223.07 416.84 223.43 417.28 223.43C417.72 223.43 418.08 223.07 418.08 222.63C418.08 222.19 417.72 221.83 417.28 221.83C416.83 221.83 416.48 222.19 416.48 222.63Z" fill="white"/>
<path d="M412.62 222.63C412.62 223.07 412.98 223.43 413.42 223.43C413.86 223.43 414.22 223.07 414.22 222.63C414.22 222.19 413.86 221.83 413.42 221.83C412.98 221.83 412.62 222.19 412.62 222.63Z" fill="white"/>
<path d="M425.52 204.93H333.66V208.53H425.52V204.93Z" fill="#F5F5F5"/>
<path d="M329.182 215.983H333.662V197.483H329.182V215.983Z" fill="#E0E0E0"/>
<path d="M425.52 217.77H333.66V236.27H425.52V217.77Z" fill="#EBEBEB"/>
<path d="M420.33 202.34C420.33 202.78 420.69 203.14 421.13 203.14C421.57 203.14 421.93 202.78 421.93 202.34C421.93 201.9 421.57 201.54 421.13 201.54C420.69 201.54 420.33 201.9 420.33 202.34Z" fill="#F5F5F5"/>
<path d="M416.48 202.34C416.48 202.78 416.84 203.14 417.28 203.14C417.72 203.14 418.08 202.78 418.08 202.34C418.08 201.9 417.72 201.54 417.28 201.54C416.83 201.54 416.48 201.9 416.48 202.34Z" fill="white"/>
<path d="M412.62 202.34C412.62 202.78 412.98 203.14 413.42 203.14C413.86 203.14 414.22 202.78 414.22 202.34C414.22 201.9 413.86 201.54 413.42 201.54C412.98 201.54 412.62 201.9 412.62 202.34Z" fill="#F5F5F5"/>
<path d="M425.52 225.22H333.66V228.82H425.52V225.22Z" fill="#F5F5F5"/>
<path d="M329.182 236.271H333.662V217.771H329.182V236.271Z" fill="#E0E0E0"/>
<path d="M425.52 238.06H333.66V256.56H425.52V238.06Z" fill="#EBEBEB"/>
<path d="M420.33 182.05C420.33 182.49 420.69 182.85 421.13 182.85C421.57 182.85 421.93 182.49 421.93 182.05C421.93 181.61 421.57 181.25 421.13 181.25C420.69 181.25 420.33 181.61 420.33 182.05Z" fill="white"/>
<path d="M416.48 182.05C416.48 182.49 416.84 182.85 417.28 182.85C417.72 182.85 418.08 182.49 418.08 182.05C418.08 181.61 417.72 181.25 417.28 181.25C416.83 181.25 416.48 181.61 416.48 182.05Z" fill="white"/>
<path d="M412.62 182.05C412.62 182.49 412.98 182.85 413.42 182.85C413.86 182.85 414.22 182.49 414.22 182.05C414.22 181.61 413.86 181.25 413.42 181.25C412.98 181.25 412.62 181.61 412.62 182.05Z" fill="#F5F5F5"/>
<path d="M425.52 245.51H333.66V249.11H425.52V245.51Z" fill="#F5F5F5"/>
<path d="M329.182 256.56H333.662V238.06H329.182V256.56Z" fill="#E0E0E0"/>
<path d="M425.52 258.35H333.66V276.85H425.52V258.35Z" fill="#EBEBEB"/>
<path d="M420.33 161.76C420.33 162.2 420.69 162.56 421.13 162.56C421.57 162.56 421.93 162.2 421.93 161.76C421.93 161.32 421.57 160.96 421.13 160.96C420.69 160.96 420.33 161.32 420.33 161.76Z" fill="white"/>
<path d="M416.48 161.76C416.48 162.2 416.84 162.56 417.28 162.56C417.72 162.56 418.08 162.2 418.08 161.76C418.08 161.32 417.72 160.96 417.28 160.96C416.83 160.96 416.48 161.32 416.48 161.76Z" fill="#F5F5F5"/>
<path d="M412.62 161.76C412.62 162.2 412.98 162.56 413.42 162.56C413.86 162.56 414.22 162.2 414.22 161.76C414.22 161.32 413.86 160.96 413.42 160.96C412.98 160.96 412.62 161.32 412.62 161.76Z" fill="white"/>
<path d="M425.52 265.8H333.66V269.4H425.52V265.8Z" fill="#F5F5F5"/>
<path d="M329.182 276.848H333.662V258.348H329.182V276.848Z" fill="#E0E0E0"/>
<path d="M425.52 278.64H333.66V297.14H425.52V278.64Z" fill="#EBEBEB"/>
<path d="M420.33 141.47C420.33 141.91 420.69 142.27 421.13 142.27C421.57 142.27 421.93 141.91 421.93 141.47C421.93 141.03 421.57 140.67 421.13 140.67C420.69 140.67 420.33 141.03 420.33 141.47Z" fill="#F5F5F5"/>
<path d="M416.48 141.47C416.48 141.91 416.84 142.27 417.28 142.27C417.72 142.27 418.08 141.91 418.08 141.47C418.08 141.03 417.72 140.67 417.28 140.67C416.83 140.67 416.48 141.03 416.48 141.47Z" fill="white"/>
<path d="M412.62 141.47C412.62 141.91 412.98 142.27 413.42 142.27C413.86 142.27 414.22 141.91 414.22 141.47C414.22 141.03 413.86 140.67 413.42 140.67C412.98 140.67 412.62 141.03 412.62 141.47Z" fill="#F5F5F5"/>
<path d="M425.52 286.09H333.66V289.69H425.52V286.09Z" fill="#F5F5F5"/>
<path d="M329.182 297.137H333.662V278.637H329.182V297.137Z" fill="#E0E0E0"/>
<path d="M425.52 298.93H333.66V317.43H425.52V298.93Z" fill="#EBEBEB"/>
<path d="M420.33 121.18C420.33 121.62 420.69 121.98 421.13 121.98C421.57 121.98 421.93 121.62 421.93 121.18C421.93 120.74 421.57 120.38 421.13 120.38C420.69 120.38 420.33 120.74 420.33 121.18Z" fill="#F5F5F5"/>
<path d="M416.48 121.18C416.48 121.62 416.84 121.98 417.28 121.98C417.72 121.98 418.08 121.62 418.08 121.18C418.08 120.74 417.72 120.38 417.28 120.38C416.83 120.38 416.48 120.74 416.48 121.18Z" fill="#F5F5F5"/>
<path d="M412.62 121.18C412.62 121.62 412.98 121.98 413.42 121.98C413.86 121.98 414.22 121.62 414.22 121.18C414.22 120.74 413.86 120.38 413.42 120.38C412.98 120.38 412.62 120.74 412.62 121.18Z" fill="white"/>
<path d="M425.52 306.38H333.66V309.98H425.52V306.38Z" fill="#F5F5F5"/>
<path d="M329.182 317.425H333.662V298.925H329.182V317.425Z" fill="#E0E0E0"/>
<path d="M265.61 100.48H196.18C192.43 104.23 190.33 106.33 186.59 110.07V323.68C190.34 327.43 192.44 329.53 196.18 333.27H265.61C269.36 329.52 271.46 327.42 275.2 323.68V110.07C271.45 106.33 269.35 104.23 265.61 100.48Z" fill="#E0E0E0"/>
<path d="M186.58 323.68L196.18 333.27H217.71L208.12 323.68H186.58Z" fill="#EBEBEB"/>
<path d="M186.58 110.07L196.18 100.48H217.71L208.12 110.07H186.58Z" fill="#EBEBEB"/>
<path d="M303.82 100.48H217.7C213.95 104.23 211.85 106.33 208.11 110.07V323.68C211.86 327.43 213.96 329.53 217.7 333.27H303.82C307.57 329.52 309.67 327.42 313.41 323.68V110.07C309.67 106.33 307.57 104.23 303.82 100.48Z" fill="#EBEBEB"/>
<path d="M218.93 328.79L212.6 322.46V111.29L218.93 104.96H302.6L308.94 111.29V322.46L302.6 328.79H218.93Z" fill="white"/>
<path d="M308.94 116.33H217.08V134.83H308.94V116.33Z" fill="#EBEBEB"/>
<path d="M303.75 121.18C303.75 120.74 304.11 120.38 304.55 120.38C304.99 120.38 305.35 120.74 305.35 121.18C305.35 121.62 304.99 121.98 304.55 121.98C304.11 121.98 303.75 121.63 303.75 121.18Z" fill="#F5F5F5"/>
<path d="M299.89 121.18C299.89 120.74 300.25 120.38 300.69 120.38C301.13 120.38 301.49 120.74 301.49 121.18C301.49 121.62 301.13 121.98 300.69 121.98C300.25 121.99 299.89 121.63 299.89 121.18Z" fill="white"/>
<path d="M296.03 121.18C296.03 120.74 296.39 120.38 296.83 120.38C297.27 120.38 297.63 120.74 297.63 121.18C297.63 121.62 297.27 121.98 296.83 121.98C296.39 121.99 296.03 121.63 296.03 121.18Z" fill="#F5F5F5"/>
<path d="M308.94 123.78H217.08V127.38H308.94V123.78Z" fill="#F5F5F5"/>
<path d="M212.592 134.819H217.072V116.319H212.592V134.819Z" fill="#E0E0E0"/>
<path d="M308.94 136.62H217.08V155.12H308.94V136.62Z" fill="#EBEBEB"/>
<path d="M303.75 141.47C303.75 141.03 304.11 140.67 304.55 140.67C304.99 140.67 305.35 141.03 305.35 141.47C305.35 141.91 304.99 142.27 304.55 142.27C304.11 142.27 303.75 141.92 303.75 141.47Z" fill="#F5F5F5"/>
<path d="M299.89 141.47C299.89 141.03 300.25 140.67 300.69 140.67C301.13 140.67 301.49 141.03 301.49 141.47C301.49 141.91 301.13 142.27 300.69 142.27C300.25 142.27 299.89 141.92 299.89 141.47Z" fill="white"/>
<path d="M296.03 141.47C296.03 141.03 296.39 140.67 296.83 140.67C297.27 140.67 297.63 141.03 297.63 141.47C297.63 141.91 297.27 142.27 296.83 142.27C296.39 142.27 296.03 141.92 296.03 141.47Z" fill="white"/>
<path d="M308.94 144.07H217.08V147.67H308.94V144.07Z" fill="#F5F5F5"/>
<path d="M212.592 155.108H217.072V136.608H212.592V155.108Z" fill="#E0E0E0"/>
<path d="M308.94 156.9H217.08V175.4H308.94V156.9Z" fill="#EBEBEB"/>
<path d="M303.75 161.76C303.75 161.32 304.11 160.96 304.55 160.96C304.99 160.96 305.35 161.32 305.35 161.76C305.35 162.2 304.99 162.56 304.55 162.56C304.11 162.56 303.75 162.2 303.75 161.76Z" fill="#F5F5F5"/>
<path d="M299.89 161.76C299.89 161.32 300.25 160.96 300.69 160.96C301.13 160.96 301.49 161.32 301.49 161.76C301.49 162.2 301.13 162.56 300.69 162.56C300.25 162.56 299.89 162.2 299.89 161.76Z" fill="#F5F5F5"/>
<path d="M296.03 161.76C296.03 161.32 296.39 160.96 296.83 160.96C297.27 160.96 297.63 161.32 297.63 161.76C297.63 162.2 297.27 162.56 296.83 162.56C296.39 162.56 296.03 162.2 296.03 161.76Z" fill="#F5F5F5"/>
<path d="M308.94 164.36H217.08V167.96H308.94V164.36Z" fill="#F5F5F5"/>
<path d="M212.592 175.406H217.072V156.906H212.592V175.406Z" fill="#E0E0E0"/>
<path d="M308.94 177.19H217.08V195.69H308.94V177.19Z" fill="#EBEBEB"/>
<path d="M303.75 182.05C303.75 181.61 304.11 181.25 304.55 181.25C304.99 181.25 305.35 181.61 305.35 182.05C305.35 182.49 304.99 182.85 304.55 182.85C304.11 182.85 303.75 182.49 303.75 182.05Z" fill="white"/>
<path d="M299.89 182.05C299.89 181.61 300.25 181.25 300.69 181.25C301.13 181.25 301.49 181.61 301.49 182.05C301.49 182.49 301.13 182.85 300.69 182.85C300.25 182.85 299.89 182.49 299.89 182.05Z" fill="white"/>
<path d="M296.03 182.05C296.03 181.61 296.39 181.25 296.83 181.25C297.27 181.25 297.63 181.61 297.63 182.05C297.63 182.49 297.27 182.85 296.83 182.85C296.39 182.85 296.03 182.49 296.03 182.05Z" fill="#F5F5F5"/>
<path d="M308.94 184.64H217.08V188.24H308.94V184.64Z" fill="#F5F5F5"/>
<path d="M212.592 195.695H217.072V177.195H212.592V195.695Z" fill="#E0E0E0"/>
<path d="M308.94 197.48H217.08V215.98H308.94V197.48Z" fill="#EBEBEB"/>
<path d="M303.75 202.34C303.75 201.9 304.11 201.54 304.55 201.54C304.99 201.54 305.35 201.9 305.35 202.34C305.35 202.78 304.99 203.14 304.55 203.14C304.11 203.14 303.75 202.78 303.75 202.34Z" fill="white"/>
<path d="M299.89 202.34C299.89 201.9 300.25 201.54 300.69 201.54C301.13 201.54 301.49 201.9 301.49 202.34C301.49 202.78 301.13 203.14 300.69 203.14C300.25 203.14 299.89 202.78 299.89 202.34Z" fill="white"/>
<path d="M296.03 202.34C296.03 201.9 296.39 201.54 296.83 201.54C297.27 201.54 297.63 201.9 297.63 202.34C297.63 202.78 297.27 203.14 296.83 203.14C296.39 203.14 296.03 202.78 296.03 202.34Z" fill="white"/>
<path d="M308.94 204.93H217.08V208.53H308.94V204.93Z" fill="#F5F5F5"/>
<path d="M212.592 215.983H217.072V197.483H212.592V215.983Z" fill="#E0E0E0"/>
<path d="M308.94 217.77H217.08V236.27H308.94V217.77Z" fill="#EBEBEB"/>
<path d="M303.75 222.63C303.75 222.19 304.11 221.83 304.55 221.83C304.99 221.83 305.35 222.19 305.35 222.63C305.35 223.07 304.99 223.43 304.55 223.43C304.11 223.43 303.75 223.07 303.75 222.63Z" fill="#F5F5F5"/>
<path d="M299.89 222.63C299.89 222.19 300.25 221.83 300.69 221.83C301.13 221.83 301.49 222.19 301.49 222.63C301.49 223.07 301.13 223.43 300.69 223.43C300.25 223.43 299.89 223.07 299.89 222.63Z" fill="white"/>
<path d="M296.03 222.63C296.03 222.19 296.39 221.83 296.83 221.83C297.27 221.83 297.63 222.19 297.63 222.63C297.63 223.07 297.27 223.43 296.83 223.43C296.39 223.43 296.03 223.07 296.03 222.63Z" fill="#F5F5F5"/>
<path d="M308.94 225.22H217.08V228.82H308.94V225.22Z" fill="#F5F5F5"/>
<path d="M212.592 236.271H217.072V217.771H212.592V236.271Z" fill="#E0E0E0"/>
<path d="M308.94 238.06H217.08V256.56H308.94V238.06Z" fill="#EBEBEB"/>
<path d="M303.75 242.92C303.75 242.48 304.11 242.12 304.55 242.12C304.99 242.12 305.35 242.48 305.35 242.92C305.35 243.36 304.99 243.72 304.55 243.72C304.11 243.72 303.75 243.36 303.75 242.92Z" fill="white"/>
<path d="M299.89 242.92C299.89 242.48 300.25 242.12 300.69 242.12C301.13 242.12 301.49 242.48 301.49 242.92C301.49 243.36 301.13 243.72 300.69 243.72C300.25 243.72 299.89 243.36 299.89 242.92Z" fill="white"/>
<path d="M296.03 242.92C296.03 242.48 296.39 242.12 296.83 242.12C297.27 242.12 297.63 242.48 297.63 242.92C297.63 243.36 297.27 243.72 296.83 243.72C296.39 243.72 296.03 243.36 296.03 242.92Z" fill="#F5F5F5"/>
<path d="M308.94 245.51H217.08V249.11H308.94V245.51Z" fill="#F5F5F5"/>
<path d="M212.592 256.56H217.072V238.06H212.592V256.56Z" fill="#E0E0E0"/>
<path d="M308.94 258.35H217.08V276.85H308.94V258.35Z" fill="#EBEBEB"/>
<path d="M303.75 263.21C303.75 262.77 304.11 262.41 304.55 262.41C304.99 262.41 305.35 262.77 305.35 263.21C305.35 263.65 304.99 264.01 304.55 264.01C304.11 264.01 303.75 263.65 303.75 263.21Z" fill="white"/>
<path d="M299.89 263.21C299.89 262.77 300.25 262.41 300.69 262.41C301.13 262.41 301.49 262.77 301.49 263.21C301.49 263.65 301.13 264.01 300.69 264.01C300.25 264.01 299.89 263.65 299.89 263.21Z" fill="#F5F5F5"/>
<path d="M296.03 263.21C296.03 262.77 296.39 262.41 296.83 262.41C297.27 262.41 297.63 262.77 297.63 263.21C297.63 263.65 297.27 264.01 296.83 264.01C296.39 264.01 296.03 263.65 296.03 263.21Z" fill="white"/>
<path d="M308.94 265.8H217.08V269.4H308.94V265.8Z" fill="#F5F5F5"/>
<path d="M212.592 276.848H217.072V258.348H212.592V276.848Z" fill="#E0E0E0"/>
<path d="M308.94 278.64H217.08V297.14H308.94V278.64Z" fill="#EBEBEB"/>
<path d="M303.75 283.5C303.75 283.06 304.11 282.7 304.55 282.7C304.99 282.7 305.35 283.06 305.35 283.5C305.35 283.94 304.99 284.3 304.55 284.3C304.11 284.3 303.75 283.94 303.75 283.5Z" fill="#F5F5F5"/>
<path d="M299.89 283.5C299.89 283.06 300.25 282.7 300.69 282.7C301.13 282.7 301.49 283.06 301.49 283.5C301.49 283.94 301.13 284.3 300.69 284.3C300.25 284.3 299.89 283.94 299.89 283.5Z" fill="white"/>
<path d="M296.03 283.5C296.03 283.06 296.39 282.7 296.83 282.7C297.27 282.7 297.63 283.06 297.63 283.5C297.63 283.94 297.27 284.3 296.83 284.3C296.39 284.3 296.03 283.94 296.03 283.5Z" fill="#F5F5F5"/>
<path d="M308.94 286.09H217.08V289.69H308.94V286.09Z" fill="#F5F5F5"/>
<path d="M212.592 297.137H217.072V278.637H212.592V297.137Z" fill="#E0E0E0"/>
<path d="M308.94 298.93H217.08V317.43H308.94V298.93Z" fill="#EBEBEB"/>
<path d="M303.75 303.79C303.75 303.35 304.11 302.99 304.55 302.99C304.99 302.99 305.35 303.35 305.35 303.79C305.35 304.23 304.99 304.59 304.55 304.59C304.11 304.59 303.75 304.23 303.75 303.79Z" fill="#F5F5F5"/>
<path d="M299.89 303.79C299.89 303.35 300.25 302.99 300.69 302.99C301.13 302.99 301.49 303.35 301.49 303.79C301.49 304.23 301.13 304.59 300.69 304.59C300.25 304.59 299.89 304.23 299.89 303.79Z" fill="#F5F5F5"/>
<path d="M296.03 303.79C296.03 303.35 296.39 302.99 296.83 302.99C297.27 302.99 297.63 303.35 297.63 303.79C297.63 304.23 297.27 304.59 296.83 304.59C296.39 304.59 296.03 304.23 296.03 303.79Z" fill="white"/>
<path d="M308.94 306.38H217.08V309.98H308.94V306.38Z" fill="#F5F5F5"/>
<path d="M212.592 317.425H217.072V298.925H212.592V317.425Z" fill="#E0E0E0"/>
<path d="M149.02 100.48H79.59C75.84 104.23 73.74 106.33 70 110.07V323.68C73.75 327.43 75.85 329.53 79.59 333.27H149.02C152.77 329.52 154.87 327.42 158.61 323.68V110.07C154.87 106.33 152.77 104.23 149.02 100.48Z" fill="#E0E0E0"/>
<path d="M70 323.68L79.59 333.27H101.12L91.53 323.68H70Z" fill="#EBEBEB"/>
<path d="M70 110.07L79.59 100.48H101.12L91.53 110.07H70Z" fill="#EBEBEB"/>
<path d="M187.24 100.48H101.13C97.38 104.23 95.28 106.33 91.54 110.07V323.68C95.29 327.43 97.39 329.53 101.13 333.27H187.24C190.99 329.52 193.09 327.42 196.83 323.68V110.07C193.09 106.33 190.99 104.23 187.24 100.48Z" fill="#EBEBEB"/>
<path d="M102.35 328.79L96.01 322.46V111.29L102.35 104.96H186.02L192.35 111.29V322.46L186.02 328.79H102.35Z" fill="white"/>
<path d="M192.35 116.33H100.49V134.83H192.35V116.33Z" fill="#EBEBEB"/>
<path d="M187.16 303.79C187.16 304.23 187.52 304.59 187.96 304.59C188.4 304.59 188.76 304.23 188.76 303.79C188.76 303.35 188.4 302.99 187.96 302.99C187.52 302.98 187.16 303.34 187.16 303.79Z" fill="#F5F5F5"/>
<path d="M183.31 303.79C183.31 304.23 183.67 304.59 184.11 304.59C184.55 304.59 184.91 304.23 184.91 303.79C184.91 303.35 184.55 302.99 184.11 302.99C183.66 302.98 183.31 303.34 183.31 303.79Z" fill="white"/>
<path d="M179.45 303.79C179.45 304.23 179.81 304.59 180.25 304.59C180.69 304.59 181.05 304.23 181.05 303.79C181.05 303.35 180.69 302.99 180.25 302.99C179.81 302.98 179.45 303.34 179.45 303.79Z" fill="#F5F5F5"/>
<path d="M192.35 123.78H100.49V127.38H192.35V123.78Z" fill="#F5F5F5"/>
<path d="M96.0126 134.819H100.493V116.319H96.0126V134.819Z" fill="#E0E0E0"/>
<path d="M192.35 136.62H100.49V155.12H192.35V136.62Z" fill="#EBEBEB"/>
<path d="M187.16 283.5C187.16 283.94 187.52 284.3 187.96 284.3C188.4 284.3 188.76 283.94 188.76 283.5C188.76 283.06 188.4 282.7 187.96 282.7C187.52 282.69 187.16 283.05 187.16 283.5Z" fill="#F5F5F5"/>
<path d="M183.31 283.5C183.31 283.94 183.67 284.3 184.11 284.3C184.55 284.3 184.91 283.94 184.91 283.5C184.91 283.06 184.55 282.7 184.11 282.7C183.66 282.69 183.31 283.05 183.31 283.5Z" fill="white"/>
<path d="M179.45 283.5C179.45 283.94 179.81 284.3 180.25 284.3C180.69 284.3 181.05 283.94 181.05 283.5C181.05 283.06 180.69 282.7 180.25 282.7C179.81 282.69 179.45 283.05 179.45 283.5Z" fill="white"/>
<path d="M192.35 144.07H100.49V147.67H192.35V144.07Z" fill="#F5F5F5"/>
<path d="M96.0126 155.108H100.493V136.608H96.0126V155.108Z" fill="#E0E0E0"/>
<path d="M192.35 156.9H100.49V175.4H192.35V156.9Z" fill="#EBEBEB"/>
<path d="M187.16 263.21C187.16 263.65 187.52 264.01 187.96 264.01C188.4 264.01 188.76 263.65 188.76 263.21C188.76 262.77 188.4 262.41 187.96 262.41C187.52 262.41 187.16 262.76 187.16 263.21Z" fill="#F5F5F5"/>
<path d="M183.31 263.21C183.31 263.65 183.67 264.01 184.11 264.01C184.55 264.01 184.91 263.65 184.91 263.21C184.91 262.77 184.55 262.41 184.11 262.41C183.66 262.41 183.31 262.76 183.31 263.21Z" fill="#F5F5F5"/>
<path d="M179.45 263.21C179.45 263.65 179.81 264.01 180.25 264.01C180.69 264.01 181.05 263.65 181.05 263.21C181.05 262.77 180.69 262.41 180.25 262.41C179.81 262.41 179.45 262.76 179.45 263.21Z" fill="#F5F5F5"/>
<path d="M192.35 164.36H100.49V167.96H192.35V164.36Z" fill="#F5F5F5"/>
<path d="M96.0126 175.406H100.493V156.906H96.0126V175.406Z" fill="#E0E0E0"/>
<path d="M192.35 177.19H100.49V195.69H192.35V177.19Z" fill="#EBEBEB"/>
<path d="M187.16 242.92C187.16 243.36 187.52 243.72 187.96 243.72C188.4 243.72 188.76 243.36 188.76 242.92C188.76 242.48 188.4 242.12 187.96 242.12C187.52 242.12 187.16 242.48 187.16 242.92Z" fill="white"/>
<path d="M183.31 242.92C183.31 243.36 183.67 243.72 184.11 243.72C184.55 243.72 184.91 243.36 184.91 242.92C184.91 242.48 184.55 242.12 184.11 242.12C183.66 242.12 183.31 242.48 183.31 242.92Z" fill="white"/>
<path d="M179.45 242.92C179.45 243.36 179.81 243.72 180.25 243.72C180.69 243.72 181.05 243.36 181.05 242.92C181.05 242.48 180.69 242.12 180.25 242.12C179.81 242.12 179.45 242.48 179.45 242.92Z" fill="#F5F5F5"/>
<path d="M192.35 184.64H100.49V188.24H192.35V184.64Z" fill="#F5F5F5"/>
<path d="M96.0126 195.695H100.493V177.195H96.0126V195.695Z" fill="#E0E0E0"/>
<path d="M192.35 197.48H100.49V215.98H192.35V197.48Z" fill="#EBEBEB"/>
<path d="M187.16 222.63C187.16 223.07 187.52 223.43 187.96 223.43C188.4 223.43 188.76 223.07 188.76 222.63C188.76 222.19 188.4 221.83 187.96 221.83C187.52 221.83 187.16 222.19 187.16 222.63Z" fill="white"/>
<path d="M183.31 222.63C183.31 223.07 183.67 223.43 184.11 223.43C184.55 223.43 184.91 223.07 184.91 222.63C184.91 222.19 184.55 221.83 184.11 221.83C183.66 221.83 183.31 222.19 183.31 222.63Z" fill="white"/>
<path d="M179.45 222.63C179.45 223.07 179.81 223.43 180.25 223.43C180.69 223.43 181.05 223.07 181.05 222.63C181.05 222.19 180.69 221.83 180.25 221.83C179.81 221.83 179.45 222.19 179.45 222.63Z" fill="white"/>
<path d="M192.35 204.93H100.49V208.53H192.35V204.93Z" fill="#F5F5F5"/>
<path d="M96.0126 215.983H100.493V197.483H96.0126V215.983Z" fill="#E0E0E0"/>
<path d="M192.35 217.77H100.49V236.27H192.35V217.77Z" fill="#EBEBEB"/>
<path d="M187.16 202.34C187.16 202.78 187.52 203.14 187.96 203.14C188.4 203.14 188.76 202.78 188.76 202.34C188.76 201.9 188.4 201.54 187.96 201.54C187.52 201.54 187.16 201.9 187.16 202.34Z" fill="#F5F5F5"/>
<path d="M183.31 202.34C183.31 202.78 183.67 203.14 184.11 203.14C184.55 203.14 184.91 202.78 184.91 202.34C184.91 201.9 184.55 201.54 184.11 201.54C183.66 201.54 183.31 201.9 183.31 202.34Z" fill="white"/>
<path d="M179.45 202.34C179.45 202.78 179.81 203.14 180.25 203.14C180.69 203.14 181.05 202.78 181.05 202.34C181.05 201.9 180.69 201.54 180.25 201.54C179.81 201.54 179.45 201.9 179.45 202.34Z" fill="#F5F5F5"/>
<path d="M192.35 225.22H100.49V228.82H192.35V225.22Z" fill="#F5F5F5"/>
<path d="M96.0126 236.271H100.493V217.771H96.0126V236.271Z" fill="#E0E0E0"/>
<path d="M192.35 238.06H100.49V256.56H192.35V238.06Z" fill="#EBEBEB"/>
<path d="M187.16 182.05C187.16 182.49 187.52 182.85 187.96 182.85C188.4 182.85 188.76 182.49 188.76 182.05C188.76 181.61 188.4 181.25 187.96 181.25C187.52 181.25 187.16 181.61 187.16 182.05Z" fill="white"/>
<path d="M183.31 182.05C183.31 182.49 183.67 182.85 184.11 182.85C184.55 182.85 184.91 182.49 184.91 182.05C184.91 181.61 184.55 181.25 184.11 181.25C183.66 181.25 183.31 181.61 183.31 182.05Z" fill="white"/>
<path d="M179.45 182.05C179.45 182.49 179.81 182.85 180.25 182.85C180.69 182.85 181.05 182.49 181.05 182.05C181.05 181.61 180.69 181.25 180.25 181.25C179.81 181.25 179.45 181.61 179.45 182.05Z" fill="#F5F5F5"/>
<path d="M192.35 245.51H100.49V249.11H192.35V245.51Z" fill="#F5F5F5"/>
<path d="M96.0126 256.56H100.493V238.06H96.0126V256.56Z" fill="#E0E0E0"/>
<path d="M192.35 258.35H100.49V276.85H192.35V258.35Z" fill="#EBEBEB"/>
<path d="M187.16 161.76C187.16 162.2 187.52 162.56 187.96 162.56C188.4 162.56 188.76 162.2 188.76 161.76C188.76 161.32 188.4 160.96 187.96 160.96C187.52 160.96 187.16 161.32 187.16 161.76Z" fill="white"/>
<path d="M183.31 161.76C183.31 162.2 183.67 162.56 184.11 162.56C184.55 162.56 184.91 162.2 184.91 161.76C184.91 161.32 184.55 160.96 184.11 160.96C183.66 160.96 183.31 161.32 183.31 161.76Z" fill="#F5F5F5"/>
<path d="M179.45 161.76C179.45 162.2 179.81 162.56 180.25 162.56C180.69 162.56 181.05 162.2 181.05 161.76C181.05 161.32 180.69 160.96 180.25 160.96C179.81 160.96 179.45 161.32 179.45 161.76Z" fill="white"/>
<path d="M192.35 265.8H100.49V269.4H192.35V265.8Z" fill="#F5F5F5"/>
<path d="M96.0126 276.848H100.493V258.348H96.0126V276.848Z" fill="#E0E0E0"/>
<path d="M192.35 278.64H100.49V297.14H192.35V278.64Z" fill="#EBEBEB"/>
<path d="M187.16 141.47C187.16 141.91 187.52 142.27 187.96 142.27C188.4 142.27 188.76 141.91 188.76 141.47C188.76 141.03 188.4 140.67 187.96 140.67C187.52 140.67 187.16 141.03 187.16 141.47Z" fill="#F5F5F5"/>
<path d="M183.31 141.47C183.31 141.91 183.67 142.27 184.11 142.27C184.55 142.27 184.91 141.91 184.91 141.47C184.91 141.03 184.55 140.67 184.11 140.67C183.66 140.67 183.31 141.03 183.31 141.47Z" fill="white"/>
<path d="M179.45 141.47C179.45 141.91 179.81 142.27 180.25 142.27C180.69 142.27 181.05 141.91 181.05 141.47C181.05 141.03 180.69 140.67 180.25 140.67C179.81 140.67 179.45 141.03 179.45 141.47Z" fill="#F5F5F5"/>
<path d="M192.35 286.09H100.49V289.69H192.35V286.09Z" fill="#F5F5F5"/>
<path d="M96.0126 297.137H100.493V278.637H96.0126V297.137Z" fill="#E0E0E0"/>
<path d="M192.35 298.93H100.49V317.43H192.35V298.93Z" fill="#EBEBEB"/>
<path d="M187.16 121.18C187.16 121.62 187.52 121.98 187.96 121.98C188.4 121.98 188.76 121.62 188.76 121.18C188.76 120.74 188.4 120.38 187.96 120.38C187.52 120.38 187.16 120.74 187.16 121.18Z" fill="#F5F5F5"/>
<path d="M183.31 121.18C183.31 121.62 183.67 121.98 184.11 121.98C184.55 121.98 184.91 121.62 184.91 121.18C184.91 120.74 184.55 120.38 184.11 120.38C183.66 120.38 183.31 120.74 183.31 121.18Z" fill="#F5F5F5"/>
<path d="M179.45 121.18C179.45 121.62 179.81 121.98 180.25 121.98C180.69 121.98 181.05 121.62 181.05 121.18C181.05 120.74 180.69 120.38 180.25 120.38C179.81 120.38 179.45 120.74 179.45 121.18Z" fill="white"/>
<path d="M192.35 306.38H100.49V309.98H192.35V306.38Z" fill="#F5F5F5"/>
<path d="M96.0126 317.425H100.493V298.925H96.0126V317.425Z" fill="#E0E0E0"/>
<path d="M182.83 46.0501C182.77 37.9101 176.15 31.3301 167.99 31.3301C166.03 31.3301 164.15 31.7201 162.44 32.4101C159.53 26.4501 153.4 22.3401 146.32 22.3401C137.76 22.3401 130.6 28.3501 128.82 36.3801C120.77 36.9001 114.39 43.5901 114.39 51.7801C114.39 60.3001 121.3 67.2101 129.82 67.2101H178.93C184.97 67.2101 189.87 62.3101 189.87 56.2701C189.87 51.6001 186.94 47.6201 182.83 46.0501Z" fill="#F5F5F5"/>
<path d="M422.27 31.38C422.19 20.61 413.43 11.9 402.64 11.9C400.04 11.9 397.56 12.41 395.29 13.33C391.43 5.43 383.34 0 373.96 0C362.63 0 353.16 7.95 350.8 18.57C340.14 19.26 331.71 28.11 331.71 38.94C331.71 50.22 340.85 59.36 352.13 59.36H417.11C425.1 59.36 431.59 52.88 431.59 44.88C431.59 38.71 427.72 33.46 422.27 31.38Z" fill="#F5F5F5"/>
<path d="M250 378.43C357.082 378.43 443.89 373.362 443.89 367.11C443.89 360.858 357.082 355.79 250 355.79C142.917 355.79 56.11 360.858 56.11 367.11C56.11 373.362 142.917 378.43 250 378.43Z" fill="#F5F5F5"/>
<path d="M86.52 352.34V350.82H77.56C77.14 350.82 76.8 351.16 76.8 351.58C76.8 352 77.14 352.34 77.56 352.34H86.52Z" fill="#8A00B9"/>
<path d="M86.52 358.84V357.32H77.56C77.14 357.32 76.8 357.66 76.8 358.08C76.8 358.5 77.14 358.84 77.56 358.84H86.52Z" fill="#8A00B9"/>
<path d="M83.3 347.11C82.6 347.11 82.04 347.68 82.04 348.37V361.59C82.04 362.29 82.61 362.85 83.3 362.85C84 362.85 84.56 362.28 84.56 361.59V348.37C84.56 347.68 84 347.11 83.3 347.11Z" fill="#263238"/>
<path d="M86.88 348.96H83.3V361.01H86.88C90.21 361.01 92.91 358.31 92.91 354.98C92.91 351.66 90.21 348.96 86.88 348.96Z" fill="#263238"/>
<path d="M115.12 363.23C112.49 363.23 110.01 362.93 107.4 362.62L103 362.09C102.3 362.12 101.59 362.17 100.87 362.24C99.85 362.34 98.82 362.51 97.82 362.67C95.93 362.97 93.98 363.28 92.01 363.21C91.64 363.2 91.21 363.17 90.81 362.97C90.31 362.72 89.99 362.25 90 361.76C90.01 361.3 90.31 360.86 90.77 360.62C91.13 360.43 91.53 360.38 91.88 360.35C94.12 360.16 96.35 360.42 98.51 360.68L103.01 361.22C104.83 361.14 106.59 361.18 108.3 361.22C110.48 361.27 112.74 361.32 115.1 361.13C117.1 360.97 118.53 360.3 118.6 360C118.17 359.48 117.06 359.32 114.79 359.03C113.11 358.82 110.97 358.76 108.7 358.7C106.91 358.65 105.06 358.6 103.17 358.48C99.4 358.23 94.54 357.63 90.4 355.21C90.19 355.09 90.12 354.82 90.24 354.61C90.36 354.4 90.63 354.33 90.84 354.45C94.81 356.78 99.55 357.36 103.22 357.6C105.09 357.73 106.93 357.77 108.71 357.82C111 357.88 113.16 357.94 114.89 358.16C116.22 358.33 117.16 358.45 117.84 358.64C117.8 358.59 117.76 358.54 117.72 358.49C117.39 358.07 117.06 357.63 116.76 357.17C116.39 356.59 115.97 355.91 115.8 355.13C115.6 354.24 115.79 353.35 116.3 352.76C116.93 352.02 117.96 351.84 118.67 351.76C120.78 351.54 122.88 351.85 124.91 352.15C125.15 352.19 125.31 352.41 125.28 352.65C125.24 352.89 125.03 353.06 124.78 353.02C122.8 352.73 120.76 352.43 118.76 352.64C118.2 352.7 117.4 352.84 116.96 353.34C116.63 353.72 116.52 354.33 116.65 354.96C116.79 355.6 117.16 356.2 117.49 356.71C117.77 357.14 118.1 357.57 118.41 357.97C118.61 358.23 118.82 358.5 119.01 358.77L119.11 358.91C119.56 359.52 120.17 360.35 120.04 361.24C119.76 363.16 117.05 363.21 115.74 363.24C115.57 363.23 115.34 363.23 115.12 363.23ZM111.04 362.15C112.6 362.3 114.14 362.38 115.72 362.35C116.84 362.33 119.05 362.29 119.22 361.1C119.24 360.97 119.22 360.84 119.19 360.7C118.44 361.48 116.48 361.91 115.19 362.01C113.77 362.13 112.39 362.15 111.04 362.15ZM93.5 361.16C92.99 361.16 92.48 361.18 91.97 361.22C91.7 361.24 91.41 361.28 91.19 361.39C91.01 361.48 90.89 361.64 90.89 361.78C90.89 361.93 91.02 362.1 91.21 362.19C91.45 362.31 91.76 362.33 92.05 362.34C93.93 362.41 95.84 362.1 97.69 361.81C98.11 361.74 98.54 361.68 98.96 361.61L98.43 361.55C96.81 361.36 95.15 361.16 93.5 361.16Z" fill="#263238"/>
<path d="M220.11 121.89H130.32C126.41 125.8 124.23 127.98 120.32 131.89V354.61C124.23 358.52 126.41 360.7 130.32 364.61H220.11C224.02 360.7 226.2 358.52 230.11 354.61V131.89C226.21 127.98 224.02 125.79 220.11 121.89Z" fill="black"/>
<path d="M104.16 141.28L102.14 144.03L97 136.69L100.85 151.08L102.88 148.32L108.01 155.66L104.16 141.28Z" fill="#8A00B9"/>
<path d="M181.06 93.07L178.02 94.63L176.69 85.78L173.73 100.37L176.77 98.81L178.1 107.67L181.06 93.07Z" fill="#8A00B9"/>
<path d="M206.65 97.0699L202.03 95.9999L208.58 85.4299L192.33 98.2199L196.95 99.2899L190.4 109.86L206.65 97.0699Z" fill="#8A00B9"/>
<path opacity="0.7" d="M120.32 354.61L130.32 364.61H170.17L160.17 354.61H120.32Z" fill="#263238"/>
<path opacity="0.7" d="M120.32 131.89L130.32 121.89H170.17L160.17 131.89H120.32Z" fill="#263238"/>
<path d="M259.96 121.89H170.17C166.26 125.8 164.08 127.98 160.17 131.89V354.61C164.08 358.52 166.26 360.7 170.17 364.61H259.96C263.87 360.7 266.05 358.52 269.96 354.61V131.89C266.05 127.98 263.86 125.79 259.96 121.89Z" fill="#263238"/>
<path opacity="0.6" d="M171.44 359.94L164.84 353.33V133.16L171.44 126.56H258.69L265.29 133.16V353.33L258.69 359.94H171.44Z" fill="#8A00B9"/>
<path d="M265.29 138.41H169.51V157.7H265.29V138.41Z" fill="#263238"/>
<path d="M259.88 143.47C259.88 143.01 260.25 142.63 260.72 142.63C261.19 142.63 261.56 143 261.56 143.47C261.56 143.93 261.19 144.31 260.72 144.31C260.25 144.31 259.88 143.93 259.88 143.47Z" fill="#8A00B9"/>
<path d="M255.86 143.47C255.86 143.01 256.23 142.63 256.7 142.63C257.17 142.63 257.54 143 257.54 143.47C257.54 143.93 257.17 144.31 256.7 144.31C256.23 144.31 255.86 143.93 255.86 143.47Z" fill="white"/>
<path d="M251.83 143.47C251.83 143.01 252.2 142.63 252.67 142.63C253.14 142.63 253.51 143 253.51 143.47C253.51 143.93 253.14 144.31 252.67 144.31C252.2 144.31 251.83 143.93 251.83 143.47Z" fill="#8A00B9"/>
<path d="M265.29 146.18H169.51V149.93H265.29V146.18Z" fill="#8A00B9"/>
<path d="M164.838 157.691H169.508V138.401H164.838V157.691Z" fill="black"/>
<path d="M265.29 159.56H169.51V178.85H265.29V159.56Z" fill="#263238"/>
<path d="M260.72 165.47C261.184 165.47 261.56 165.094 261.56 164.63C261.56 164.166 261.184 163.79 260.72 163.79C260.256 163.79 259.88 164.166 259.88 164.63C259.88 165.094 260.256 165.47 260.72 165.47Z" fill="#8A00B9"/>
<path d="M256.69 165.47C257.154 165.47 257.53 165.094 257.53 164.63C257.53 164.166 257.154 163.79 256.69 163.79C256.226 163.79 255.85 164.166 255.85 164.63C255.85 165.094 256.226 165.47 256.69 165.47Z" fill="white"/>
<path d="M252.67 165.47C253.134 165.47 253.51 165.094 253.51 164.63C253.51 164.166 253.134 163.79 252.67 163.79C252.206 163.79 251.83 164.166 251.83 164.63C251.83 165.094 252.206 165.47 252.67 165.47Z" fill="white"/>
<path d="M265.29 167.33H169.51V171.08H265.29V167.33Z" fill="#8A00B9"/>
<path d="M164.838 178.851H169.508V159.561H164.838V178.851Z" fill="black"/>
<path d="M265.29 180.72H169.51V200.01H265.29V180.72Z" fill="#263238"/>
<path d="M260.72 186.62C261.184 186.62 261.56 186.244 261.56 185.78C261.56 185.316 261.184 184.94 260.72 184.94C260.256 184.94 259.88 185.316 259.88 185.78C259.88 186.244 260.256 186.62 260.72 186.62Z" fill="#8A00B9"/>
<path d="M256.69 186.62C257.154 186.62 257.53 186.244 257.53 185.78C257.53 185.316 257.154 184.94 256.69 184.94C256.226 184.94 255.85 185.316 255.85 185.78C255.85 186.244 256.226 186.62 256.69 186.62Z" fill="#8A00B9"/>
<path d="M252.67 186.62C253.134 186.62 253.51 186.244 253.51 185.78C253.51 185.316 253.134 184.94 252.67 184.94C252.206 184.94 251.83 185.316 251.83 185.78C251.83 186.244 252.206 186.62 252.67 186.62Z" fill="#8A00B9"/>
<path d="M265.29 188.49H169.51V192.24H265.29V188.49Z" fill="#8A00B9"/>
<path d="M164.838 200H169.508V180.71H164.838V200Z" fill="black"/>
<path d="M265.29 201.87H169.51V221.16H265.29V201.87Z" fill="#263238"/>
<path d="M260.72 207.78C261.184 207.78 261.56 207.404 261.56 206.94C261.56 206.476 261.184 206.1 260.72 206.1C260.256 206.1 259.88 206.476 259.88 206.94C259.88 207.404 260.256 207.78 260.72 207.78Z" fill="white"/>
<path d="M256.69 207.78C257.154 207.78 257.53 207.404 257.53 206.94C257.53 206.476 257.154 206.1 256.69 206.1C256.226 206.1 255.85 206.476 255.85 206.94C255.85 207.404 256.226 207.78 256.69 207.78Z" fill="white"/>
<path d="M252.67 207.78C253.134 207.78 253.51 207.404 253.51 206.94C253.51 206.476 253.134 206.1 252.67 206.1C252.206 206.1 251.83 206.476 251.83 206.94C251.83 207.404 252.206 207.78 252.67 207.78Z" fill="#8A00B9"/>
<path d="M265.29 209.64H169.51V213.39H265.29V209.64Z" fill="#8A00B9"/>
<path d="M164.838 221.16H169.508V201.87H164.838V221.16Z" fill="black"/>
<path d="M265.29 223.03H169.51V242.32H265.29V223.03Z" fill="#263238"/>
<path d="M259.88 228.09C259.88 227.63 260.25 227.25 260.72 227.25C261.19 227.25 261.56 227.62 261.56 228.09C261.56 228.55 261.19 228.93 260.72 228.93C260.25 228.93 259.88 228.55 259.88 228.09Z" fill="white"/>
<path d="M255.86 228.09C255.86 227.63 256.23 227.25 256.7 227.25C257.17 227.25 257.54 227.62 257.54 228.09C257.54 228.55 257.17 228.93 256.7 228.93C256.23 228.93 255.86 228.55 255.86 228.09Z" fill="white"/>
<path d="M251.83 228.09C251.83 227.63 252.2 227.25 252.67 227.25C253.14 227.25 253.51 227.62 253.51 228.09C253.51 228.55 253.14 228.93 252.67 228.93C252.2 228.93 251.83 228.55 251.83 228.09Z" fill="white"/>
<path d="M265.29 230.8H169.51V234.55H265.29V230.8Z" fill="#8A00B9"/>
<path d="M164.838 242.31H169.508V223.02H164.838V242.31Z" fill="black"/>
<path d="M265.29 244.18H169.51V263.47H265.29V244.18Z" fill="#263238"/>
<path d="M259.88 249.25C259.88 248.79 260.25 248.41 260.72 248.41C261.19 248.41 261.56 248.78 261.56 249.25C261.56 249.71 261.19 250.09 260.72 250.09C260.25 250.09 259.88 249.71 259.88 249.25Z" fill="#8A00B9"/>
<path d="M255.86 249.25C255.86 248.79 256.23 248.41 256.7 248.41C257.17 248.41 257.54 248.78 257.54 249.25C257.54 249.71 257.17 250.09 256.7 250.09C256.23 250.09 255.86 249.71 255.86 249.25Z" fill="white"/>
<path d="M251.83 249.25C251.83 248.79 252.2 248.41 252.67 248.41C253.14 248.41 253.51 248.78 253.51 249.25C253.51 249.71 253.14 250.09 252.67 250.09C252.2 250.09 251.83 249.71 251.83 249.25Z" fill="#8A00B9"/>
<path d="M265.29 251.95H169.51V255.7H265.29V251.95Z" fill="#8A00B9"/>
<path d="M164.838 263.469H169.508V244.179H164.838V263.469Z" fill="black"/>
<path d="M265.29 265.34H169.51V284.63H265.29V265.34Z" fill="#263238"/>
<path d="M260.72 271.24C261.184 271.24 261.56 270.864 261.56 270.4C261.56 269.936 261.184 269.56 260.72 269.56C260.256 269.56 259.88 269.936 259.88 270.4C259.88 270.864 260.256 271.24 260.72 271.24Z" fill="white"/>
<path d="M256.69 271.24C257.154 271.24 257.53 270.864 257.53 270.4C257.53 269.936 257.154 269.56 256.69 269.56C256.226 269.56 255.85 269.936 255.85 270.4C255.85 270.864 256.226 271.24 256.69 271.24Z" fill="white"/>
<path d="M252.67 271.24C253.134 271.24 253.51 270.864 253.51 270.4C253.51 269.936 253.134 269.56 252.67 269.56C252.206 269.56 251.83 269.936 251.83 270.4C251.83 270.864 252.206 271.24 252.67 271.24Z" fill="#8A00B9"/>
<path d="M265.29 273.11H169.51V276.86H265.29V273.11Z" fill="#8A00B9"/>
<path d="M164.838 284.619H169.508V265.329H164.838V284.619Z" fill="black"/>
<path d="M265.29 286.49H169.51V305.78H265.29V286.49Z" fill="#263238"/>
<path d="M260.72 292.4C261.184 292.4 261.56 292.024 261.56 291.56C261.56 291.096 261.184 290.72 260.72 290.72C260.256 290.72 259.88 291.096 259.88 291.56C259.88 292.024 260.256 292.4 260.72 292.4Z" fill="white"/>
<path d="M256.69 292.4C257.154 292.4 257.53 292.024 257.53 291.56C257.53 291.096 257.154 290.72 256.69 290.72C256.226 290.72 255.85 291.096 255.85 291.56C255.85 292.024 256.226 292.4 256.69 292.4Z" fill="#8A00B9"/>
<path d="M252.67 292.4C253.134 292.4 253.51 292.024 253.51 291.56C253.51 291.096 253.134 290.72 252.67 290.72C252.206 290.72 251.83 291.096 251.83 291.56C251.83 292.024 252.206 292.4 252.67 292.4Z" fill="white"/>
<path d="M265.29 294.26H169.51V298.01H265.29V294.26Z" fill="#8A00B9"/>
<path d="M164.838 305.779H169.508V286.489H164.838V305.779Z" fill="black"/>
<path d="M265.29 307.65H169.51V326.94H265.29V307.65Z" fill="#263238"/>
<path d="M260.72 313.55C261.184 313.55 261.56 313.174 261.56 312.71C261.56 312.246 261.184 311.87 260.72 311.87C260.256 311.87 259.88 312.246 259.88 312.71C259.88 313.174 260.256 313.55 260.72 313.55Z" fill="#8A00B9"/>
<path d="M256.69 313.55C257.154 313.55 257.53 313.174 257.53 312.71C257.53 312.246 257.154 311.87 256.69 311.87C256.226 311.87 255.85 312.246 255.85 312.71C255.85 313.174 256.226 313.55 256.69 313.55Z" fill="white"/>
<path d="M252.67 313.55C253.134 313.55 253.51 313.174 253.51 312.71C253.51 312.246 253.134 311.87 252.67 311.87C252.206 311.87 251.83 312.246 251.83 312.71C251.83 313.174 252.206 313.55 252.67 313.55Z" fill="#8A00B9"/>
<path d="M265.29 315.42H169.51V319.17H265.29V315.42Z" fill="#8A00B9"/>
<path d="M164.838 326.929H169.508V307.639H164.838V326.929Z" fill="black"/>
<path d="M265.29 328.8H169.51V348.09H265.29V328.8Z" fill="#263238"/>
<path d="M260.72 334.71C261.184 334.71 261.56 334.334 261.56 333.87C261.56 333.406 261.184 333.03 260.72 333.03C260.256 333.03 259.88 333.406 259.88 333.87C259.88 334.334 260.256 334.71 260.72 334.71Z" fill="#8A00B9"/>
<path d="M256.69 334.71C257.154 334.71 257.53 334.334 257.53 333.87C257.53 333.406 257.154 333.03 256.69 333.03C256.226 333.03 255.85 333.406 255.85 333.87C255.85 334.334 256.226 334.71 256.69 334.71Z" fill="#8A00B9"/>
<path d="M252.67 334.71C253.134 334.71 253.51 334.334 253.51 333.87C253.51 333.406 253.134 333.03 252.67 333.03C252.206 333.03 251.83 333.406 251.83 333.87C251.83 334.334 252.206 334.71 252.67 334.71Z" fill="white"/>
<path d="M265.29 336.57H169.51V340.32H265.29V336.57Z" fill="#8A00B9"/>
<path d="M164.838 348.088H169.508V328.798H164.838V348.088Z" fill="black"/>
<path opacity="0.7" d="M171.44 359.94L164.84 353.33V133.16L171.44 126.56H223.12L229.72 133.16V353.33L223.12 359.94H171.44Z" fill="#8A00B9"/>
<path d="M223.12 359.94L229.72 353.33V133.16L223.12 126.56H225.71L231.38 132.23V354.27L225.71 359.94H223.12Z" fill="#8A00B9"/>
<path d="M358.18 130.58C360.36 134.84 362.29 139.07 364.06 143.49C364.95 145.69 365.78 147.94 366.54 150.24C367.32 152.54 368.01 154.9 368.53 157.56L368.63 158.06L368.68 158.33L368.73 158.7C368.76 158.95 368.8 159.21 368.81 159.44L368.84 160.1C368.86 160.97 368.81 161.71 368.73 162.44C368.56 163.87 368.3 165.15 368 166.39C367.42 168.87 366.62 171.16 365.8 173.42C364.11 177.93 362.15 182.18 359.86 186.38C359.14 187.71 357.47 188.2 356.14 187.48C355.03 186.87 354.5 185.61 354.78 184.44L354.8 184.38C355.85 179.96 356.91 175.48 357.8 171.12C358.26 168.94 358.63 166.76 358.89 164.7C359.01 163.67 359.09 162.66 359.09 161.79C359.08 161.36 359.07 160.95 359.03 160.67L359 160.46L358.96 160.34L358.9 160.13L358.8 159.78C358.26 157.95 357.5 155.91 356.67 153.88C355.83 151.85 354.95 149.81 354.03 147.76C352.19 143.68 350.25 139.53 348.35 135.5L348.32 135.44C347.03 132.69 348.21 129.41 350.96 128.12C353.63 126.85 356.83 127.96 358.18 130.58Z" fill="#FFB573"/>
<path d="M353.33 185.76L356.75 180.72L360.13 179.7C361.7 181.6 361.24 184.53 360.78 186.21L359.8 192.47C359.62 193.65 358.69 194.55 357.5 194.72L355.27 195.03C353.62 195.26 352.11 194.06 351.97 192.39L351.88 191.3C351.71 189.35 352.22 187.39 353.33 185.76Z" fill="#FFB573"/>
<path d="M347.76 199.27C348.6 198.28 348.98 197.06 348.94 195.86L365.76 188.05C365.8 188.09 365.84 188.13 365.89 188.16C368.02 189.95 371.2 189.68 373 187.55C373.38 187.1 373.67 186.59 373.87 186.07L370.21 186.56C369.24 186.69 368.36 185.98 368.27 185.01L368.16 183.75C368.08 182.78 368.83 181.93 369.8 181.89L373.49 181.76C373.21 181.27 372.84 180.83 372.38 180.45C370.25 178.66 367.07 178.93 365.27 181.06C364.43 182.05 364.05 183.27 364.09 184.47L347.27 192.28C347.23 192.24 347.19 192.2 347.14 192.17C345.01 190.38 341.83 190.65 340.03 192.78C339.65 193.23 339.36 193.74 339.16 194.26L342.82 193.77C343.79 193.64 344.67 194.35 344.76 195.32L344.87 196.58C344.95 197.55 344.2 198.4 343.23 198.44L339.54 198.57C339.82 199.06 340.19 199.5 340.65 199.88C342.79 201.67 345.97 201.4 347.76 199.27Z" fill="#263238"/>
<path opacity="0.1" d="M348.61 193.84C348.37 193.33 348.6 192.73 349.1 192.49L362.56 186.24C363.07 186 363.67 186.23 363.91 186.73C364.15 187.24 363.92 187.84 363.42 188.08L349.96 194.33C349.45 194.57 348.85 194.35 348.61 193.84Z" fill="white"/>
<path d="M346.33 120.15C352.36 121.48 355.3 124.56 361.12 134.25C357.82 139.14 349.75 143.37 349.75 143.37L346.26 139.35C341.88 131.22 346.33 120.15 346.33 120.15Z" fill="#263238"/>
<path opacity="0.2" d="M344.34 131.22C344.37 133.93 344.88 136.79 346.26 139.35L349.75 143.37C349.75 143.37 351.02 142.7 352.77 141.59C349.91 135.89 347.68 133.02 344.34 131.22Z" fill="black"/>
<path d="M318.55 129.46L318.44 130.09L318.34 130.57L318.13 131.46C317.97 132.04 317.79 132.59 317.6 133.14C317.21 134.23 316.75 135.28 316.23 136.31C315.17 138.35 313.82 140.27 312.2 141.95C310.59 143.64 308.71 145.09 306.7 146.23C304.69 147.37 302.54 148.18 300.39 148.72L300.04 148.81C297.45 149.46 294.82 147.89 294.16 145.29C294.1 145.06 294.06 144.8 294.04 144.56C293.83 142.36 294.03 140.37 294.4 138.53C294.77 136.69 295.28 134.97 295.87 133.33C297.06 130.06 298.58 127.08 300.2 124.23C301.85 121.39 303.63 118.68 305.52 116.07C307.45 113.47 309.39 110.97 311.59 108.53C312.6 107.41 314.33 107.32 315.45 108.33C316.43 109.21 316.62 110.64 315.98 111.73L315.94 111.8C314.43 114.39 312.89 117.09 311.51 119.8C310.1 122.5 308.76 125.22 307.59 127.96C306.39 130.69 305.38 133.45 304.65 136.14C303.94 138.79 303.57 141.51 303.91 143.36L297.56 139.21C298.91 138.69 300.13 138.03 301.25 137.28C302.35 136.5 303.33 135.61 304.18 134.61C305.02 133.6 305.77 132.48 306.38 131.27C306.69 130.67 306.97 130.04 307.19 129.41C307.31 129.1 307.4 128.78 307.5 128.48L307.63 128.04L307.68 127.85C307.69 127.82 307.71 127.69 307.7 127.81C308.16 124.81 310.97 122.75 313.97 123.21C316.96 123.64 319.02 126.45 318.55 129.46Z" fill="#FFB573"/>
<path d="M321.09 128.71C321.72 124.95 319.07 120.43 319.07 120.43C313.11 120.73 307.36 122.18 301.83 133.48C303.16 139.78 311.51 144.22 311.51 144.22L317.41 136.58C317.4 136.58 320.46 132.47 321.09 128.71Z" fill="#263238"/>
<path d="M313.23 105.75L314.89 103.95C315.61 103.17 316.5 102.58 317.5 102.23L319.08 101.67C320.86 101.04 322.78 102.14 323.13 103.99L323.52 106.06C323.82 107.61 322.88 109.14 321.36 109.58L318.93 110.29C318.93 110.29 316.03 115.14 310.39 112.94C310.39 110.3 311.4 107.73 313.23 105.75Z" fill="#FFB573"/>
<path d="M356.83 348.96H348.51C348.51 348.96 348.92 355.06 348.89 358.67L356.22 359.55C355.59 355.54 356.83 348.96 356.83 348.96Z" fill="#FFB573"/>
<path d="M320.17 177.81C320.17 177.81 335.1 241.08 339.76 266.79C344.65 293.79 347.98 347.96 347.97 349.94C350.65 349.42 355.01 349.29 357.12 349.94C357.12 349.94 367.4 286.25 358.09 262.6C354.56 217.76 359.13 192.39 350.13 177.81H320.17Z" fill="#8A00B9"/>
<path opacity="0.2" d="M339.18 197.42C336.74 187.45 328.46 188.41 323.07 190.24C326.43 204.69 332 229.02 336.07 248.32C341.85 234.46 342.48 210.88 339.18 197.42Z" fill="black"/>
<path d="M303.84 347.92C303.09 357.59 295.24 367.99 295.24 367.99L307.35 364.89L312.45 357.31C312.65 354.33 312.66 351.89 313.58 348.76L303.84 347.92Z" fill="#FFB573"/>
<path d="M308.02 177.81C308.02 177.81 310.13 245.12 309.58 264.79C308.81 292.06 303.09 349.94 303.09 349.94C307.43 349.5 311.18 349.36 313.58 349.94C313.58 349.94 331.55 303.09 329.47 265.05C333.97 229.8 349.14 197.42 339.76 177.81H308.02Z" fill="#8A00B9"/>
<path d="M340.07 101.83C338.89 106.93 337.57 116.28 341.02 119.69C341.02 119.69 337.17 126.44 328.36 130.08C321.68 125.8 325.16 119.69 325.16 119.69C330.9 118.33 330.9 114.11 330.05 110.14L340.07 101.83Z" fill="#FFB573"/>
<path d="M341.07 114.44C341.07 114.44 329.47 112.86 323.77 117.59C323.64 119.56 322.39 120.75 322.39 120.75C328.62 122.12 334.93 122.41 341.32 121.68C342.82 119.09 341.07 114.44 341.07 114.44Z" fill="#8A00B9"/>
<path d="M309.22 131.68C309.84 147.69 306.31 172 308.02 177.81C325.18 179.55 338.59 179.25 350.13 177.81C352.15 171.48 347.36 152.68 352.84 130.31C354.06 125.34 350.72 120.58 345.69 120.06C344.21 119.91 342.63 119.78 341.01 119.7C335.14 119.42 330.33 119.23 325.15 119.7C323.13 119.88 321.03 120.15 319.06 120.44C313.49 121.24 309.01 126.07 309.22 131.68Z" fill="#263238"/>
<path d="M321.24 93.2599C321.17 93.9599 320.76 94.4999 320.31 94.4699C319.86 94.4399 319.55 93.8599 319.61 93.1599C319.68 92.4599 320.09 91.9199 320.54 91.9499C320.99 91.9799 321.3 92.5599 321.24 93.2599Z" fill="#263238"/>
<path d="M320.74 91.9999L319.13 91.4199C319.13 91.4199 319.85 92.7699 320.74 91.9999Z" fill="#263238"/>
<path d="M320.35 88.69C320.25 88.67 320.17 88.61 320.11 88.51C320 88.32 320.06 88.07 320.25 87.94C322.18 86.72 323.87 87.47 323.94 87.5C324.14 87.59 324.22 87.83 324.13 88.04C324.03 88.25 323.79 88.34 323.59 88.25C323.52 88.22 322.2 87.66 320.67 88.63C320.56 88.7 320.45 88.72 320.35 88.69Z" fill="#263238"/>
<path d="M321.1 95.1699C321.1 95.1699 319.65 98.0899 318.23 99.4599C319.06 100.37 320.64 100.08 320.64 100.08L321.1 95.1699Z" fill="#ED893E"/>
<path d="M344.73 91.8201C343.41 100.33 343.03 103.95 338.35 108.07C331.31 114.27 321.28 111.13 320.06 102.48C318.97 94.7001 321.31 82.1001 329.9 79.2001C338.37 76.3601 346.05 83.3101 344.73 91.8201Z" fill="#FFB573"/>
<path d="M323.52 82.2499C321.81 85.6199 325.18 91.8699 327.45 94.4299C323.42 98.7599 319.4 106.23 324.72 110.7C329.57 114.78 355.64 114.74 350.57 105.96C355.04 100.46 347.6 99.6799 351.15 88.9999C353.74 81.2299 348.86 79.0699 344.49 79.8199C339.51 73.5199 327.07 75.2399 323.52 82.2499Z" fill="#263238"/>
<path d="M325.43 85.78C325.43 85.78 333.48 92.38 342.76 93.46C347.73 94.04 350.26 93.97 350.49 93.21C350.72 92.45 351.15 89.88 351.15 89.88L325.43 85.78Z" fill="#E0E0E0"/>
<path d="M318.59 84.05C321.03 85.98 339.47 91.25 351.9 90.09C352.02 89.35 351.62 89.26 351.62 89.26C351.62 89.26 354.48 79.67 347.91 76.07C344.81 71 335.45 71.31 331.31 72.74L330.72 73.48C330.72 73.48 322.61 75.37 322.49 82.1C319.29 82.46 315.9 81.93 318.59 84.05Z" fill="#8A00B9"/>
<path opacity="0.2" d="M330.72 73.4801L331.31 72.74C331.31 72.74 337.81 71.99 343.35 76.7C340.2 74.88 335 73.1201 330.72 73.4801Z" fill="black"/>
<path d="M326.22 91.73C324.45 91.49 322.77 94.07 322.17 95.91C321.5 97.96 322.23 99.87 324.06 99.21C325.28 98.77 326.63 97.68 327.48 96.07C328.45 94.22 327.96 91.96 326.22 91.73Z" fill="#FFB573"/>
<path d="M351.41 353.08C356.51 352.18 356.42 354.81 356.75 357.65C356.94 359.28 356.78 361.11 355.91 362.65C354.11 365.82 355.65 370.49 349.92 370.49C344.19 370.49 343.67 369.16 345.22 366.33C346.77 363.5 347.55 360.51 348.24 357.24C348.59 355.6 349.14 353.48 351.41 353.08Z" fill="#263238"/>
<path d="M356.42 359.12C356.42 362.55 356.48 370.49 356.48 370.49L355.57 370.46C355.57 370.46 354.79 362.01 354.29 359.73L356.42 359.12Z" fill="#263238"/>
<path d="M313.1 354.2C313.5 355.1 313.62 356.09 313.56 357.08C313.35 360.71 312.57 370.32 312.57 370.32L311.74 370.33C311.74 370.33 311.98 363.86 311.66 361.47C311.34 359.09 310.16 363.3 308.51 365.69C306.85 368.08 303.69 370.25 298.29 370.42C291.97 370.62 289.42 370.35 291.32 368.77C293.22 367.19 297.45 366.15 297.45 366.15C297.45 366.15 302.28 364.36 305.4 359C307.42 355.52 310.39 353.94 312.01 353.12C312.52 353.21 312.86 353.66 313.1 354.2Z" fill="#263238"/>
<g clip-path="url(#clip1_1304_150)">
<path d="M99.44 30.3301H112.42V34.7001H103.63L103.16 37.6501C103.77 37.3601 104.37 37.1501 104.97 37.0101C105.57 36.8701 106.15 36.8001 106.74 36.8001C108.71 36.8001 110.31 37.4001 111.53 38.5901C112.75 39.7801 113.37 41.2801 113.37 43.0901C113.37 44.3601 113.05 45.5801 112.42 46.7501C111.79 47.9201 110.89 48.8201 109.74 49.4301C108.58 50.0501 107.1 50.3601 105.29 50.3601C103.99 50.3601 102.88 50.2401 101.95 49.9901C101.02 49.7401 100.24 49.3801 99.59 48.8901C98.94 48.4001 98.42 47.8501 98.01 47.2301C97.6 46.6101 97.27 45.8401 97 44.9101L102.53 44.3101C102.66 45.2001 102.98 45.8701 103.47 46.3301C103.96 46.7901 104.55 47.0201 105.23 47.0201C105.99 47.0201 106.62 46.7301 107.12 46.1501C107.62 45.5701 107.87 44.7101 107.87 43.5701C107.87 42.4001 107.62 41.5401 107.12 40.9901C106.62 40.4401 105.95 40.1701 105.12 40.1701C104.59 40.1701 104.08 40.3001 103.59 40.5601C103.22 40.7501 102.82 41.0901 102.38 41.5801L97.72 40.9101L99.44 30.3301Z" fill="#8A00B9"/>
<path d="M115.57 40.09C115.57 36.35 116.24 33.73 117.59 32.24C118.93 30.75 120.98 30 123.74 30C125.06 30 126.15 30.16 127 30.49C127.85 30.82 128.54 31.24 129.08 31.77C129.62 32.29 130.04 32.84 130.35 33.42C130.66 34 130.91 34.67 131.1 35.44C131.47 36.91 131.65 38.44 131.65 40.03C131.65 43.6 131.05 46.21 129.84 47.87C128.63 49.53 126.55 50.35 123.6 50.35C121.94 50.35 120.61 50.09 119.59 49.56C118.57 49.03 117.73 48.26 117.08 47.24C116.61 46.52 116.24 45.52 115.97 44.27C115.7 43.01 115.57 41.62 115.57 40.09ZM120.99 40.11C120.99 42.62 121.21 44.33 121.65 45.24C122.09 46.16 122.73 46.62 123.58 46.62C124.13 46.62 124.62 46.43 125.02 46.04C125.43 45.65 125.73 45.04 125.92 44.19C126.11 43.35 126.21 42.04 126.21 40.26C126.21 37.65 125.99 35.89 125.55 34.99C125.11 34.09 124.44 33.64 123.56 33.64C122.66 33.64 122 34.1 121.6 35.02C121.19 35.93 120.99 37.63 120.99 40.11Z" fill="#8A00B9"/>
<path d="M133.9 40.09C133.9 36.35 134.57 33.73 135.92 32.24C137.27 30.75 139.32 30 142.08 30C143.4 30 144.49 30.16 145.34 30.49C146.19 30.82 146.88 31.24 147.42 31.77C147.96 32.29 148.38 32.84 148.69 33.42C149 34 149.25 34.67 149.44 35.44C149.81 36.91 149.99 38.44 149.99 40.03C149.99 43.6 149.39 46.21 148.18 47.87C146.97 49.53 144.89 50.35 141.94 50.35C140.28 50.35 138.95 50.09 137.93 49.56C136.91 49.03 136.07 48.26 135.42 47.24C134.95 46.52 134.58 45.52 134.31 44.27C134.04 43.01 133.9 41.62 133.9 40.09ZM139.33 40.11C139.33 42.62 139.55 44.33 139.99 45.24C140.43 46.16 141.08 46.62 141.92 46.62C142.47 46.62 142.96 46.43 143.36 46.04C143.77 45.65 144.07 45.04 144.26 44.19C144.45 43.35 144.55 42.04 144.55 40.26C144.55 37.65 144.33 35.89 143.89 34.99C143.45 34.09 142.78 33.64 141.9 33.64C141 33.64 140.34 34.1 139.94 35.02C139.53 35.93 139.33 37.63 139.33 40.11Z" fill="#8A00B9"/>
<path d="M162.85 50.0201V30.3301H165.45V50.0101H162.85V50.0201Z" fill="#263238"/>
<path d="M169.73 50.0199V35.7599H171.9V37.7899C172.95 36.2199 174.46 35.4399 176.44 35.4399C177.3 35.4399 178.09 35.5899 178.81 35.8999C179.53 36.2099 180.07 36.6099 180.43 37.1099C180.79 37.6099 181.04 38.2099 181.18 38.8999C181.27 39.3499 181.31 40.1299 181.31 41.2499V50.0199H178.9V41.3499C178.9 40.3699 178.81 39.6299 178.62 39.1399C178.43 38.6499 178.1 38.2599 177.62 37.9699C177.14 37.6799 176.58 37.5299 175.94 37.5299C174.91 37.5299 174.02 37.8599 173.27 38.5099C172.52 39.1599 172.15 40.3999 172.15 42.2299V50.0199H169.73Z" fill="#263238"/>
<path d="M190.3 47.85L190.65 49.98C189.97 50.12 189.36 50.19 188.82 50.19C187.94 50.19 187.26 50.05 186.78 49.77C186.3 49.49 185.96 49.13 185.76 48.68C185.56 48.23 185.46 47.28 185.46 45.83V37.63H183.7V35.76H185.47V32.23L187.87 30.78V35.76H190.3V37.64H187.87V45.98C187.87 46.67 187.91 47.11 188 47.31C188.08 47.51 188.22 47.66 188.42 47.78C188.61 47.9 188.89 47.95 189.25 47.95C189.51 47.95 189.86 47.92 190.3 47.85Z" fill="#263238"/>
<path d="M202.42 45.4199L204.92 45.7299C204.53 47.1899 203.8 48.3199 202.73 49.1299C201.66 49.9399 200.3 50.3399 198.65 50.3399C196.56 50.3399 194.91 49.6999 193.69 48.4099C192.47 47.1299 191.86 45.3199 191.86 43.0099C191.86 40.6099 192.48 38.7499 193.71 37.4299C194.94 36.0999 196.55 35.4399 198.52 35.4399C200.43 35.4399 201.98 36.0899 203.19 37.3899C204.4 38.6899 205 40.5099 205 42.8699C205 43.0099 205 43.2299 204.99 43.5099H194.36C194.45 45.0799 194.89 46.2799 195.69 47.1099C196.49 47.9399 197.48 48.3599 198.67 48.3599C199.56 48.3599 200.31 48.1299 200.94 47.6599C201.56 47.1899 202.06 46.4399 202.42 45.4199ZM194.49 41.5199H202.45C202.34 40.3199 202.04 39.4199 201.54 38.8199C200.77 37.8899 199.77 37.4199 198.55 37.4199C197.44 37.4199 196.51 37.7899 195.75 38.5299C194.99 39.2799 194.57 40.2699 194.49 41.5199Z" fill="#263238"/>
<path d="M207.93 50.0199V35.7599H210.1V37.9199C210.65 36.9099 211.17 36.2399 211.64 35.9199C212.11 35.5999 212.63 35.4399 213.19 35.4399C214 35.4399 214.83 35.6999 215.67 36.2199L214.84 38.4599C214.25 38.1099 213.66 37.9399 213.07 37.9399C212.54 37.9399 212.07 38.0999 211.65 38.4199C211.23 38.7399 210.93 39.1799 210.75 39.7399C210.48 40.5999 210.35 41.5399 210.35 42.5599V50.0199H207.93Z" fill="#263238"/>
<path d="M217.11 50.0199V35.7599H219.28V37.7899C220.33 36.2199 221.84 35.4399 223.82 35.4399C224.68 35.4399 225.47 35.5899 226.19 35.8999C226.91 36.2099 227.45 36.6099 227.81 37.1099C228.17 37.6099 228.42 38.2099 228.56 38.8999C228.65 39.3499 228.69 40.1299 228.69 41.2499V50.0199H226.27V41.3499C226.27 40.3699 226.18 39.6299 225.99 39.1399C225.8 38.6499 225.47 38.2599 224.99 37.9699C224.51 37.6799 223.95 37.5299 223.31 37.5299C222.28 37.5299 221.39 37.8599 220.64 38.5099C219.89 39.1599 219.52 40.3999 219.52 42.2299V50.0199H217.11Z" fill="#263238"/>
<path d="M241.7 48.2599C240.81 49.0199 239.94 49.5599 239.12 49.8699C238.29 50.1799 237.4 50.3399 236.46 50.3399C234.89 50.3399 233.69 49.9599 232.85 49.1899C232.01 48.4199 231.59 47.4499 231.59 46.2599C231.59 45.5599 231.75 44.9199 232.07 44.3499C232.39 43.7699 232.8 43.3099 233.32 42.9599C233.83 42.6099 234.41 42.3499 235.06 42.1699C235.53 42.0399 236.25 41.9199 237.21 41.8099C239.16 41.5799 240.6 41.2999 241.52 40.9799C241.53 40.6499 241.53 40.4399 241.53 40.3499C241.53 39.3699 241.3 38.6699 240.84 38.2699C240.22 37.7199 239.31 37.4499 238.09 37.4499C236.95 37.4499 236.11 37.6499 235.57 38.0499C235.03 38.4499 234.63 39.1499 234.37 40.1599L232 39.8299C232.21 38.8199 232.57 37.9999 233.06 37.3799C233.55 36.7599 234.26 36.2799 235.19 35.9399C236.12 35.5999 237.2 35.4399 238.43 35.4399C239.65 35.4399 240.64 35.5799 241.4 35.8699C242.16 36.1599 242.72 36.5199 243.08 36.9499C243.44 37.3799 243.69 37.9299 243.83 38.5899C243.91 38.9999 243.95 39.7399 243.95 40.8199V44.0399C243.95 46.2899 244 47.7099 244.1 48.2999C244.2 48.8999 244.41 49.4699 244.71 50.0099H242.19C241.94 49.5099 241.77 48.9299 241.7 48.2599ZM241.5 42.8599C240.62 43.2199 239.31 43.5199 237.55 43.7699C236.56 43.9099 235.85 44.0699 235.44 44.2499C235.03 44.4299 234.71 44.6899 234.49 45.0399C234.27 45.3799 234.15 45.7699 234.15 46.1899C234.15 46.8299 234.39 47.3699 234.88 47.7999C235.37 48.2299 236.08 48.4399 237.02 48.4399C237.95 48.4399 238.78 48.2399 239.5 47.8299C240.23 47.4199 240.76 46.8699 241.1 46.1599C241.36 45.6099 241.49 44.8099 241.49 43.7399V42.8599H241.5Z" fill="#263238"/>
<path d="M247.64 50.0201V30.3301H250.06V50.0101H247.64V50.0201Z" fill="#263238"/>
<path d="M260.47 45.7599L262.86 45.3799C262.99 46.3399 263.37 47.0699 263.98 47.5799C264.59 48.0899 265.45 48.3399 266.55 48.3399C267.66 48.3399 268.48 48.1099 269.02 47.6599C269.56 47.2099 269.83 46.6799 269.83 46.0699C269.83 45.5199 269.59 45.0899 269.12 44.7799C268.79 44.5699 267.97 44.2899 266.65 43.9599C264.88 43.5099 263.65 43.1299 262.97 42.7999C262.29 42.4699 261.77 42.0199 261.41 41.4399C261.06 40.8599 260.88 40.2299 260.88 39.5299C260.88 38.8899 261.03 38.3099 261.32 37.7599C261.61 37.2199 262.01 36.7699 262.51 36.4099C262.89 36.1299 263.4 35.8999 264.05 35.7099C264.7 35.5199 265.39 35.4199 266.14 35.4199C267.26 35.4199 268.24 35.5799 269.09 35.8999C269.94 36.2199 270.56 36.6599 270.96 37.2099C271.36 37.7599 271.64 38.4999 271.79 39.4199L269.43 39.7399C269.32 39.0099 269.01 38.4299 268.5 38.0199C267.99 37.6099 267.26 37.3999 266.32 37.3999C265.21 37.3999 264.42 37.5799 263.94 37.9499C263.47 38.3199 263.23 38.7499 263.23 39.2399C263.23 39.5499 263.33 39.8299 263.53 40.0899C263.73 40.3499 264.04 40.5599 264.46 40.7299C264.7 40.8199 265.41 41.0199 266.59 41.3499C268.3 41.8099 269.49 42.1799 270.17 42.4699C270.85 42.7599 271.38 43.1799 271.76 43.7399C272.14 44.2999 272.34 44.9799 272.34 45.8099C272.34 46.6199 272.11 47.3699 271.64 48.0899C271.17 48.7999 270.49 49.3499 269.61 49.7399C268.72 50.1299 267.72 50.3199 266.6 50.3199C264.75 50.3199 263.34 49.9399 262.36 49.1699C261.36 48.4099 260.74 47.2699 260.47 45.7599Z" fill="#263238"/>
<path d="M284.94 45.4199L287.44 45.7299C287.05 47.1899 286.32 48.3199 285.25 49.1299C284.18 49.9399 282.82 50.3399 281.17 50.3399C279.08 50.3399 277.43 49.6999 276.21 48.4099C274.99 47.1299 274.38 45.3199 274.38 43.0099C274.38 40.6099 275 38.7499 276.23 37.4299C277.46 36.0999 279.07 35.4399 281.04 35.4399C282.95 35.4399 284.5 36.0899 285.71 37.3899C286.92 38.6899 287.52 40.5099 287.52 42.8699C287.52 43.0099 287.52 43.2299 287.51 43.5099H276.88C276.97 45.0799 277.41 46.2799 278.21 47.1099C279.01 47.9399 280 48.3599 281.19 48.3599C282.08 48.3599 282.83 48.1299 283.46 47.6599C284.08 47.1899 284.58 46.4399 284.94 45.4199ZM277.01 41.5199H284.97C284.86 40.3199 284.56 39.4199 284.06 38.8199C283.29 37.8899 282.29 37.4199 281.07 37.4199C279.96 37.4199 279.03 37.7899 278.27 38.5299C277.51 39.2799 277.09 40.2699 277.01 41.5199Z" fill="#263238"/>
<path d="M290.45 50.0199V35.7599H292.62V37.9199C293.17 36.9099 293.69 36.2399 294.16 35.9199C294.63 35.5999 295.15 35.4399 295.71 35.4399C296.52 35.4399 297.35 35.6999 298.19 36.2199L297.36 38.4599C296.77 38.1099 296.18 37.9399 295.59 37.9399C295.06 37.9399 294.59 38.0999 294.17 38.4199C293.75 38.7399 293.45 39.1799 293.27 39.7399C293 40.5999 292.87 41.5399 292.87 42.5599V50.0199H290.45Z" fill="#263238"/>
<path d="M303.59 50.02L298.17 35.76H300.72L303.78 44.3C304.11 45.22 304.42 46.18 304.69 47.17C304.9 46.42 305.2 45.51 305.59 44.46L308.76 35.76H311.24L305.84 50.02H303.59Z" fill="#263238"/>
<path d="M323.14 45.4199L325.64 45.7299C325.25 47.1899 324.52 48.3199 323.45 49.1299C322.38 49.9399 321.02 50.3399 319.37 50.3399C317.28 50.3399 315.63 49.6999 314.41 48.4099C313.19 47.1299 312.58 45.3199 312.58 43.0099C312.58 40.6099 313.2 38.7499 314.43 37.4299C315.66 36.0999 317.27 35.4399 319.24 35.4399C321.15 35.4399 322.7 36.0899 323.91 37.3899C325.12 38.6899 325.72 40.5099 325.72 42.8699C325.72 43.0099 325.72 43.2299 325.71 43.5099H315.08C315.17 45.0799 315.61 46.2799 316.41 47.1099C317.21 47.9399 318.2 48.3599 319.39 48.3599C320.28 48.3599 321.03 48.1299 321.66 47.6599C322.27 47.1899 322.77 46.4399 323.14 45.4199ZM315.2 41.5199H323.16C323.05 40.3199 322.75 39.4199 322.25 38.8199C321.48 37.8899 320.48 37.4199 319.26 37.4199C318.15 37.4199 317.22 37.7899 316.46 38.5299C315.7 39.2799 315.28 40.2699 315.2 41.5199Z" fill="#263238"/>
<path d="M328.64 50.0199V35.7599H330.81V37.9199C331.36 36.9099 331.88 36.2399 332.35 35.9199C332.82 35.5999 333.34 35.4399 333.9 35.4399C334.71 35.4399 335.54 35.6999 336.38 36.2199L335.55 38.4599C334.96 38.1099 334.37 37.9399 333.78 37.9399C333.25 37.9399 332.78 38.0999 332.36 38.4199C331.94 38.7399 331.64 39.1799 331.46 39.7399C331.19 40.5999 331.06 41.5399 331.06 42.5599V50.0199H328.64Z" fill="#263238"/>
<path d="M355.22 45.4199L357.72 45.7299C357.33 47.1899 356.6 48.3199 355.53 49.1299C354.46 49.9399 353.1 50.3399 351.45 50.3399C349.36 50.3399 347.71 49.6999 346.49 48.4099C345.27 47.1299 344.66 45.3199 344.66 43.0099C344.66 40.6099 345.28 38.7499 346.51 37.4299C347.74 36.0999 349.35 35.4399 351.32 35.4399C353.23 35.4399 354.78 36.0899 355.99 37.3899C357.2 38.6899 357.8 40.5099 357.8 42.8699C357.8 43.0099 357.8 43.2299 357.79 43.5099H347.16C347.25 45.0799 347.69 46.2799 348.49 47.1099C349.29 47.9399 350.28 48.3599 351.47 48.3599C352.36 48.3599 353.11 48.1299 353.74 47.6599C354.36 47.1899 354.85 46.4399 355.22 45.4199ZM347.29 41.5199H355.25C355.14 40.3199 354.84 39.4199 354.34 38.8199C353.57 37.8899 352.57 37.4199 351.35 37.4199C350.24 37.4199 349.31 37.7899 348.55 38.5299C347.79 39.2799 347.37 40.2699 347.29 41.5199Z" fill="#263238"/>
<path d="M360.72 50.0199V35.7599H362.89V37.9199C363.44 36.9099 363.96 36.2399 364.43 35.9199C364.9 35.5999 365.42 35.4399 365.98 35.4399C366.79 35.4399 367.62 35.6999 368.46 36.2199L367.63 38.4599C367.04 38.1099 366.45 37.9399 365.86 37.9399C365.33 37.9399 364.86 38.0999 364.44 38.4199C364.02 38.7399 363.72 39.1799 363.54 39.7399C363.27 40.5999 363.14 41.5399 363.14 42.5599V50.0199H360.72Z" fill="#263238"/>
<path d="M369.88 50.0199V35.7599H372.05V37.9199C372.6 36.9099 373.12 36.2399 373.59 35.9199C374.06 35.5999 374.58 35.4399 375.14 35.4399C375.95 35.4399 376.78 35.6999 377.62 36.2199L376.79 38.4599C376.2 38.1099 375.61 37.9399 375.02 37.9399C374.49 37.9399 374.02 38.0999 373.6 38.4199C373.18 38.7399 372.88 39.1799 372.7 39.7399C372.43 40.5999 372.3 41.5399 372.3 42.5599V50.0199H369.88Z" fill="#263238"/>
<path d="M378.16 42.8899C378.16 40.2499 378.89 38.2999 380.36 37.0199C381.59 35.9599 383.08 35.4399 384.84 35.4399C386.8 35.4399 388.4 36.0799 389.65 37.3699C390.89 38.6499 391.52 40.4299 391.52 42.6899C391.52 44.5299 391.24 45.9699 390.69 47.0199C390.14 48.0699 389.34 48.8899 388.29 49.4699C387.24 50.0499 386.09 50.3399 384.85 50.3399C382.85 50.3399 381.24 49.6999 380.01 48.4199C378.78 47.1399 378.16 45.2899 378.16 42.8899ZM380.65 42.8899C380.65 44.7199 381.05 46.0799 381.84 46.9899C382.64 47.8999 383.64 48.3499 384.85 48.3499C386.05 48.3499 387.05 47.8899 387.84 46.9799C388.64 46.0699 389.03 44.6799 389.03 42.8099C389.03 41.0499 388.63 39.7099 387.83 38.7999C387.03 37.8899 386.03 37.4399 384.84 37.4399C383.63 37.4399 382.63 37.8899 381.83 38.7999C381.04 39.6999 380.65 41.0599 380.65 42.8899Z" fill="#263238"/>
<path d="M394.33 50.0199V35.7599H396.5V37.9199C397.05 36.9099 397.57 36.2399 398.04 35.9199C398.51 35.5999 399.03 35.4399 399.59 35.4399C400.4 35.4399 401.23 35.6999 402.07 36.2199L401.24 38.4599C400.65 38.1099 400.06 37.9399 399.47 37.9399C398.94 37.9399 398.47 38.0999 398.05 38.4199C397.63 38.7399 397.33 39.1799 397.15 39.7399C396.88 40.5999 396.75 41.5399 396.75 42.5599V50.0199H394.33Z" fill="#263238"/>
</g>
</g>
<defs>
<clipPath id="clip0_1304_150">
<rect width="500" height="378.43" fill="white"/>
</clipPath>
<clipPath id="clip1_1304_150">
<rect width="305.07" height="20.35" fill="white" transform="translate(97 30)"/>
</clipPath>
</defs>
</svg>
