<svg width="568" height="355" viewBox="0 0 568 355" fill="none" xmlns="http://www.w3.org/2000/svg">
<g clip-path="url(#clip0_130_160)">
<path d="M64.0426 27.356C149.59 -4.43614 236.537 23.6705 295.506 84.8898C354.475 146.109 478.232 42.6359 543.865 103.755C588.657 145.466 568.141 252.706 506.723 299.155C423.243 362.289 112.239 364.185 60.6381 342.52C-27.5393 305.5 60.0757 236.943 18.9153 171.224C-29.643 93.6923 26.2385 41.4052 64.0426 27.356Z" fill="#8A00B9" fill-opacity="0.35"/>
<path d="M545.582 324.268C502.76 322.172 357.086 325.722 312.782 327.106C268.478 328.489 217.051 325.279 190.338 320.559C163.625 315.839 9.20962 320.961 16.2176 333.653C23.2256 346.345 85.0152 339.332 155.089 344.432C225.16 349.534 382.756 343.794 418.303 344.432C453.851 345.07 486.449 343.156 532.26 340.605C578.071 338.056 570.404 325.483 545.582 324.268Z" fill="#8A00B9" fill-opacity="0.35"/>
<path opacity="0.5" d="M452.71 44.8847C452.879 43.37 452.969 41.8304 452.969 40.2708C452.969 39.447 452.942 38.6315 452.894 37.8194L445.277 35.353C444.807 32.1393 443.887 29.0716 442.581 26.2183L447.631 19.9967C446.463 17.9389 445.124 15.9924 443.631 14.1754L436.014 16.6634C433.794 14.393 431.258 12.4348 428.474 10.8603L428.907 2.84837C426.781 1.88009 424.558 1.08786 422.257 0.489953L417.554 6.98723C415.72 6.67831 413.837 6.51554 411.916 6.51554C410.607 6.51554 409.314 6.5936 408.044 6.7381L403.69 0C401.357 0.475005 399.096 1.14765 396.924 2.00133L396.934 10.0249C394.066 11.4516 391.431 13.2736 389.097 15.4211L381.624 12.5345C380.036 14.2717 378.595 16.1452 377.321 18.1366L382.036 24.6172C380.576 27.4041 379.492 30.4186 378.857 33.5958L371.122 35.657C370.953 37.1717 370.863 38.7113 370.863 40.2708C370.863 41.0946 370.89 41.9117 370.938 42.7222L378.555 45.1886C379.024 48.4024 379.945 51.47 381.251 54.3233L376.201 60.5449C377.369 62.6027 378.708 64.5492 380.201 66.3662L387.818 63.8782C390.038 66.1486 392.574 68.1068 395.358 69.6813L394.925 77.6933C397.051 78.6615 399.274 79.4554 401.575 80.0517L406.278 73.5544C408.112 73.8633 409.995 74.0261 411.916 74.0261C413.225 74.0261 414.517 73.948 415.787 73.8035L420.142 80.5416C422.474 80.0666 424.736 79.394 426.907 78.5403L426.898 70.5167C429.766 69.09 432.402 67.2681 434.735 65.1206L442.208 68.0071C443.795 66.2699 445.237 64.3964 446.511 62.4051L441.796 55.9244C443.256 53.1375 444.34 50.123 444.975 46.9458L452.71 44.8847ZM411.916 56.3894C403.023 56.3894 395.814 49.173 395.814 40.2708C395.814 31.3686 403.023 24.1522 411.916 24.1522C420.809 24.1522 428.017 31.3686 428.017 40.2708C428.017 49.1713 420.809 56.3894 411.916 56.3894Z" fill="#8A00B9"/>
<path d="M433.877 58.8807C433.69 58.8807 433.502 58.8176 433.348 58.6881C432.996 58.3941 432.948 57.8709 433.24 57.5188C437.254 52.6891 439.464 46.5622 439.464 40.2692C439.464 37.2547 438.971 34.2967 438 31.4733C437.851 31.0398 438.082 30.5664 438.515 30.417C438.948 30.2675 439.42 30.4984 439.57 30.9318C440.6 33.928 441.124 37.0704 441.124 40.2675C441.124 46.9475 438.778 53.4514 434.518 58.5801C434.352 58.7794 434.115 58.8807 433.877 58.8807Z" fill="white"/>
<path d="M431.546 20.8371C431.342 20.8371 431.138 20.7624 430.977 20.6112C428.281 18.0701 425.157 16.1435 421.693 14.8846C421.262 14.7285 421.039 14.2518 421.195 13.82C421.351 13.3882 421.827 13.1656 422.259 13.3234C425.935 14.6587 429.252 16.7032 432.114 19.4021C432.447 19.716 432.464 20.2425 432.149 20.5763C431.988 20.7491 431.767 20.8371 431.546 20.8371Z" fill="white"/>
<path d="M405.671 14.119C405.299 14.119 404.963 13.8682 404.868 13.4912C404.755 13.0461 405.026 12.5943 405.469 12.483C407.753 11.905 410.118 11.6127 412.497 11.6127C412.955 11.6127 413.326 11.9848 413.326 12.4432C413.326 12.9016 412.955 13.2736 412.497 13.2736C410.255 13.2736 408.027 13.5493 405.875 14.0941C405.807 14.1107 405.737 14.119 405.671 14.119Z" fill="white"/>
<path opacity="0.5" d="M387.086 0.11792H130.516V154.392H387.086V0.11792Z" fill="#8A00B9"/>
<path d="M384.4 3.88141H143.015V145.508H384.4V3.88141Z" fill="white"/>
<path d="M348.849 77.0754C360.351 66.1138 380.012 66.3629 379.597 83.0545C379.182 99.7461 380.559 101.316 385.293 110.072C401.718 140.454 365.715 138.667 350.7 139.663C335.686 140.66 336.93 112.342 339.585 96.647C342.239 80.9519 345.483 80.2825 348.849 77.0754Z" fill="#303C60"/>
<path d="M354.211 172.779C350.523 203.782 343.822 226.702 343.075 241.399C342.329 256.098 339.342 313.969 339.342 313.969C339.342 313.969 347.555 313.394 348.301 312.148C349.048 310.903 363.731 278.268 362.984 258.091C362.238 237.913 377.649 207.232 377.649 207.232L373.934 177.129L354.211 172.779Z" fill="#4476BD"/>
<path d="M357.753 186.277L351.986 188.693C350.418 198.524 348.68 207.363 347.152 215.204C356.33 221.145 361.071 240.934 363.102 253.033C364.137 239.496 370.518 223.136 374.477 214.09L357.753 186.277Z" fill="#3E6BAB"/>
<path d="M384.385 169.655C384.385 169.655 396.815 185.528 396.425 203.535C395.831 230.947 392.845 238.773 398.041 267.516C400.07 278.742 393.561 315.465 393.561 315.465C393.561 315.465 388.002 315.902 385.015 314.414C385.264 311.716 381.422 267.823 373.939 247.646C370.316 237.875 365.222 210.51 362.485 194.817C359.747 179.122 359.25 175.885 360.245 175.885C361.241 175.885 384.385 169.655 384.385 169.655Z" fill="#4476BD"/>
<path d="M313.567 125.572C313.567 125.572 314.119 117.36 313.235 114.822C312.351 112.286 304.719 110.07 304.719 110.07C304.719 110.07 304.387 121.807 305.162 123.246C305.936 124.684 310.471 128.781 310.471 128.781L313.567 125.572Z" fill="#F09959"/>
<path d="M356.481 119.588C339.006 138.418 333.303 146.34 331.976 146.34C327.828 139.01 314.051 123.51 314.051 123.51L308.176 127.29C308.176 127.29 321.751 162.794 330.378 163.161C339.006 163.528 356.54 150.917 356.764 149.469C356.988 148.021 356.481 119.588 356.481 119.588Z" fill="#A2DFF2"/>
<path d="M338.256 161.319C346.803 157.835 356.599 150.548 356.764 149.469C356.987 148.021 356.481 119.588 356.481 119.588C352.671 123.692 349.345 127.333 346.46 130.517C343.327 142.188 343.533 154.895 338.256 161.319Z" fill="#96CFE0"/>
<path d="M374.233 107.192C374.233 107.192 390.955 115.582 394.605 130.435C398.255 145.289 387.454 163.638 386.127 173.43C384.8 183.222 354.274 184.945 354.274 174.463C354.274 164.415 346.626 143.083 347.057 137.65C348.069 124.901 366.686 109.284 366.686 109.284L374.233 107.192Z" fill="#A2DFF2"/>
<path d="M369.374 87.9507L376.552 110.112C376.552 110.112 368.887 116.033 355.769 130.278C356.278 120.799 364.212 110.465 364.212 110.465L358.782 89.5385L369.374 87.9507Z" fill="#F09959"/>
<path d="M372.723 98.2879L369.375 87.9507L358.782 89.5385L364.212 110.465C364.212 110.465 363.683 111.311 362.9 112.641C368.016 108.841 371.154 104.109 372.723 98.2879Z" fill="#E38540"/>
<path d="M365.418 92.9532C363.482 100.005 355.985 103.888 350.656 102.422C345.328 100.955 344.189 94.6971 346.125 87.6451C348.061 80.5931 353.949 76.064 359.278 77.5305C364.605 78.9954 367.354 85.9012 365.418 92.9532Z" fill="#F09959"/>
<path d="M352.94 164.528C355.265 179.275 346.634 210.823 346.634 210.823C346.634 210.823 351.781 211.994 367.21 210.499C382.64 209.004 389.442 193.588 391.765 193.158C394.087 192.728 395.28 207.504 396.427 208.672C397.571 209.839 397.747 190.012 394.751 182.218C389.442 168.401 390.482 162.54 392.466 154.167C395.994 139.281 352.94 164.528 352.94 164.528Z" fill="#A2DFF2"/>
<path d="M339.717 306.711C341.106 312.362 338.363 316.847 334.692 320.114C331.706 322.771 322.526 323.9 322.967 325.229C323.41 326.558 334.249 326.98 337.899 326.425C341.549 325.872 342.544 324.1 347.087 324.101C350.065 324.103 350.618 321.678 349.29 318.68C347.963 315.683 347.498 314.027 348.698 311.339C349.899 308.655 339.717 306.711 339.717 306.711Z" fill="#4476BD"/>
<path d="M393.883 306.711C393.663 312.578 392.981 316.951 394.419 319.67C399.972 324.321 404.588 329.602 402.826 329.968C394.419 331.705 391.212 326.662 386.456 325.227C380.619 323.469 387.008 316.126 384.722 306.709C383.451 301.474 393.535 302.728 393.535 302.728L393.883 306.711Z" fill="#4476BD"/>
<path d="M396.005 187.026C395.67 185.186 395.255 183.53 394.751 182.216C389.442 168.399 390.482 162.538 392.466 154.166C392.622 153.506 392.685 152.927 392.667 152.419C393.115 150.925 393.532 149.412 393.898 147.891L392.096 131.608L379.104 116.162C369.367 130.445 375.939 148.217 374.477 158.016C373.017 167.815 356.701 180.309 356.701 180.309L357.232 183.786C357.961 188.556 362.377 191.867 367.15 191.205C373.875 190.271 382.696 188.393 386.621 184.747C390.421 181.216 393.784 183.947 396.005 187.026Z" fill="#96CFE0"/>
<path d="M360.517 179.748C360.517 179.748 353.315 181.766 352.454 182.216C351.593 182.668 351.117 185.051 351.117 185.051C351.117 185.051 346.994 188.635 348.573 189.904C350.153 191.173 352.973 194.387 356.703 192.892C358.993 191.975 360.766 183.556 362.266 183.488C363.766 183.418 360.517 179.748 360.517 179.748Z" fill="#F09959"/>
<path d="M380.914 114.279C388.622 114.498 395.612 128.396 398.048 140.454C400.483 152.512 403.046 169.655 403.046 169.655C403.046 169.655 390.271 179.748 377.649 182.698C366.638 185.27 361.017 186.277 361.017 186.277L358.784 179.984L385.13 164.493C385.13 164.493 375.442 146.224 374.479 132.438C373.515 118.652 375.056 114.113 380.914 114.279Z" fill="#A2DFF2"/>
<path d="M306.77 107.32L287.554 111.179L290.002 123.396L309.219 119.537L306.77 107.32Z" fill="#F5DC95"/>
<path d="M308.944 124.576C309.21 119.524 306.71 112.631 305.271 112.641C303.833 112.651 305.714 117.157 304.939 120.146C304.52 121.767 308.944 124.576 308.944 124.576Z" fill="#F09959"/>
<path d="M347.538 79.7328C347.965 93.5727 364.114 92.5114 368.537 91.6594C372.962 90.8057 363.152 120.859 371.578 122.593C377.767 123.867 376.373 114.176 383.247 114.823C386.288 115.111 389.346 119.816 389.346 119.816C389.346 119.816 388.888 116.916 386.565 114.823C384.242 112.729 378.153 99.8856 376.552 90.6961C374.951 81.5066 364.113 75.5624 360.906 75.378C357.699 75.1937 349.844 78.8476 349.844 78.8476L347.538 79.7328Z" fill="#303C60"/>
<path d="M371.436 125.725C371.217 125.725 370.996 125.702 370.77 125.654C368.073 125.079 366.765 122.241 366.654 116.723C366.56 111.993 367.339 105.923 368.167 99.497C368.501 96.9011 368.848 94.2155 369.131 91.6162C369.156 91.3937 369.354 91.2326 369.578 91.2575C369.8 91.2824 369.959 91.4817 369.936 91.7043C369.651 94.3118 369.304 97.0007 368.97 99.6016C367.371 112.036 365.86 123.78 370.94 124.863C371.097 124.896 371.255 124.913 371.413 124.913C374.331 124.913 376.959 119.22 378.492 113.674C378.552 113.458 378.774 113.332 378.99 113.392C379.205 113.452 379.331 113.674 379.272 113.89C378.258 117.549 375.537 125.724 371.436 125.725Z" fill="#303C60"/>
<path d="M370.356 128.942C369.437 128.942 368.635 128.585 367.967 127.879C362.462 122.055 367.905 92.8253 368.139 91.5847C368.181 91.3654 368.393 91.2209 368.612 91.2625C368.831 91.304 368.975 91.5149 368.934 91.7358C368.877 92.0364 363.331 121.797 368.554 127.325C369.161 127.967 369.88 128.223 370.751 128.109C373.609 127.73 375.26 123.848 376.715 120.422C378.127 117.099 379.456 113.961 381.822 114.043C382.044 114.051 382.22 114.239 382.212 114.461C382.203 114.686 382.016 114.865 381.793 114.852C381.774 114.852 381.754 114.85 381.735 114.85C379.962 114.85 378.746 117.712 377.458 120.738C375.917 124.363 374.172 128.471 370.855 128.909C370.688 128.931 370.52 128.942 370.356 128.942Z" fill="#303C60"/>
<path d="M369.136 94.3168C367.998 95.785 366.215 96.3065 365.153 95.4827C364.091 94.6573 364.152 92.7988 365.291 91.3306C366.429 89.8624 368.212 89.3409 369.274 90.1646C370.336 90.9901 370.274 92.8486 369.136 94.3168Z" fill="#F09959"/>
<path d="M243.664 145.569C247.606 153.462 244.343 162.55 236.59 165.76C228.785 168.992 220.251 167.157 216.309 159.265C212.367 151.372 215.295 141.909 222.849 138.127C230.403 134.345 239.722 137.677 243.664 145.569Z" fill="#303C60"/>
<path d="M222.411 166.709C221.54 166.709 219.826 166.401 217.645 164.463C215.856 162.874 214.57 160.437 214.028 157.604C213.343 154.026 213.789 149.912 215.355 145.376C215.428 145.166 215.657 145.053 215.869 145.126C216.08 145.199 216.193 145.43 216.12 145.641C214.6 150.04 214.164 154.013 214.823 157.451C215.332 160.112 216.525 162.387 218.182 163.859C220.948 166.315 222.801 165.868 222.821 165.863C223.035 165.807 223.257 165.935 223.315 166.147C223.373 166.361 223.251 166.582 223.038 166.642C223.01 166.649 222.791 166.709 222.411 166.709Z" fill="#303C60"/>
<path d="M234.468 176.28C238.956 177.287 244.62 189.768 247.394 197.765C250.191 205.83 254.934 215.835 258.04 218.944C261.146 222.053 281.551 229.26 281.551 229.26C281.551 229.26 231.133 229.358 232.165 229.258C233.199 229.157 234.468 176.28 234.468 176.28Z" fill="#A8CEFF"/>
<path d="M261.234 225.249C258.473 224.854 248.517 226.137 252.756 224.36C256.995 222.583 256.404 220.314 256.404 220.314C256.404 220.314 250.39 225.347 249.307 220.946C248.371 217.15 248.014 203.752 244.466 190.323C241.534 183.664 237.696 177.003 234.469 176.278C234.469 176.278 234.357 181.007 234.169 187.637C235.407 202.309 237.509 223.864 238.042 229.296C244.724 229.306 255.908 229.296 265.266 229.285L271.489 228.987C271.487 228.987 263.995 225.642 261.234 225.249Z" fill="#93BBF0"/>
<path d="M217.971 173.513C217.971 173.513 203.698 181.497 200.372 183.194C197.045 184.892 209.693 234.726 212.506 236.862C215.319 238.997 240.084 237.229 242.904 234.538C245.725 231.847 240.741 223.59 243.181 207.056C245.622 190.522 235.739 176.247 234.469 176.278C233.2 176.31 224.915 173.513 224.915 173.513H217.971Z" fill="#A8CEFF"/>
<path d="M212.506 236.862C215.319 238.997 233.041 239.046 240.583 236.695C241.434 236.43 245.3 234.888 245.391 233.438C244.48 233.267 240.867 233.703 239.399 233.364C234.297 232.19 231.488 225.863 231.488 225.863C231.488 225.863 228.679 224.852 222.395 222.188C216.11 219.524 218.698 211.455 218.551 207.903C218.403 204.35 212.341 192.729 200.954 183.922L199.909 184.39C199.094 192.49 209.903 234.887 212.506 236.862Z" fill="#93BBF0"/>
<path d="M310.564 197.763H276.196L260.544 231.108H298.399L312.568 200.924C313.26 199.454 312.188 197.763 310.564 197.763Z" fill="#75A1DE"/>
<path d="M262.593 231.582H241.912C240.63 231.582 239.589 230.54 239.589 229.256C239.589 227.973 240.63 226.931 241.912 226.931H261.11L274.09 198.966C274.631 197.801 276.013 197.297 277.176 197.836C278.339 198.378 278.844 199.76 278.304 200.926L264.7 230.236C264.318 231.057 263.497 231.582 262.593 231.582Z" fill="#3E6BAB"/>
<path d="M226.731 224.458C235.702 226.136 237.909 228.199 242.798 228.987C248.341 229.883 247.682 231.108 243.565 231.108C239.447 231.108 229.101 231.268 225.55 230.479C221.998 229.69 226.731 224.458 226.731 224.458Z" fill="#F09959"/>
<path d="M199.25 184.129C192.375 206.136 182.628 231.107 184.181 231.107C185.734 231.107 225.213 232.704 226.766 231.374C228.319 230.044 227.876 224.937 227.654 224.271C227.432 223.605 205.208 219.657 205.208 219.657C205.208 219.657 208.135 213.947 209.243 202.789C210.353 191.631 200.554 179.957 199.25 184.129Z" fill="#A8CEFF"/>
<path d="M223.199 154.39L217.661 174.651C217.661 174.651 227.02 189.275 229.593 187.976C232.167 186.677 228.155 176.089 228.155 174.651C228.155 173.212 232.167 158.368 232.167 158.368L223.199 154.39Z" fill="#F09959"/>
<path d="M228.346 175.684C228.226 175.204 228.153 174.845 228.153 174.651C228.153 173.212 232.165 158.368 232.165 158.368L223.199 154.39L221.366 161.095C222.967 168.021 225.855 172.635 228.346 175.684Z" fill="#E38540"/>
<path d="M243.923 154.056C244.978 159.931 244.283 167.735 239.072 169.718C233.861 171.703 227.583 167.906 225.051 161.241C222.519 154.574 224.691 147.562 229.902 145.579C235.113 143.594 242.662 147.036 243.923 154.056Z" fill="#F09959"/>
<path d="M226.285 157.361C227.015 159.416 226.381 161.517 224.868 162.057C223.355 162.596 221.537 161.367 220.805 159.314C220.075 157.26 220.709 155.159 222.222 154.619C223.735 154.079 225.555 155.308 226.285 157.361Z" fill="#F09959"/>
<path d="M243.984 146.675C242.211 160.462 225.477 158.687 225.477 158.687C225.477 158.687 222.026 154.146 220.473 156.527C218.92 158.909 222.627 142.55 232.228 142.035C235.384 141.864 243.984 146.675 243.984 146.675Z" fill="#303C60"/>
<path d="M217.915 149.358C222.921 149.358 226.979 145.547 226.979 140.846C226.979 136.145 222.921 132.334 217.915 132.334C212.909 132.334 208.851 136.145 208.851 140.846C208.851 145.547 212.909 149.358 217.915 149.358Z" fill="#303C60"/>
<path d="M199.864 331.285H201.936L215.317 269.218H210.758L199.864 331.285Z" fill="#2E5B9A"/>
<path d="M264.293 331.285H262.221L246.647 267.024H251.206L264.293 331.285Z" fill="#2E5B9A"/>
<path d="M223.508 271.544C215.206 271.544 209.946 270.05 206.59 266.779C202.429 262.721 201.568 256.436 201.556 248.248C201.546 241.804 201.394 237.607 201.044 234.214C200.913 232.937 201.84 231.794 203.116 231.663C204.392 231.532 205.533 232.46 205.664 233.737C206.029 237.293 206.19 241.632 206.2 248.24C206.213 256.539 207.265 260.944 209.83 263.447C212.462 266.013 217.222 267.073 225.257 266.872C233.016 266.681 238.357 265.593 242.649 264.719C248.293 263.571 252.373 262.741 257.209 265.055C258.367 265.608 258.856 266.996 258.304 268.155C257.752 269.315 256.364 269.805 255.206 269.252C251.774 267.609 248.862 268.202 243.575 269.278C239.103 270.188 233.54 271.319 225.371 271.522C224.736 271.535 224.113 271.544 223.508 271.544Z" fill="#2E5B9A"/>
<path d="M204.649 231.376L217.356 231.906L213.973 267.028C213.973 267.028 204.501 260.976 204.649 254.462C204.797 247.946 204.649 231.376 204.649 231.376Z" fill="#2E5B9A"/>
<path d="M267.378 234.648C278.123 233.015 281.773 233.53 288.35 245.782C294.925 258.032 303.68 280.092 308.714 282.94C316.294 287.23 318.806 297.75 321.919 297.277C325.031 296.804 327.034 298.182 323.647 300.999C320.261 303.817 314.791 306.216 312.921 305.716C311.051 305.216 309.601 297.126 304.715 294.5C299.831 291.872 301.298 289.715 301.62 287.391C301.94 285.068 287.361 274.372 276.37 261.069C269.654 252.94 266.196 247.574 265.684 242.711C265.171 237.848 267.378 234.648 267.378 234.648Z" fill="#F09959"/>
<path d="M294.014 279.071C291.519 272.733 289.015 262.273 286.663 252.683C283.316 239.046 279.809 235.807 277.588 234.352C274.902 233.678 271.718 233.987 267.378 234.646C267.378 234.646 265.171 237.846 265.684 242.709C266.196 247.572 269.654 252.937 276.37 261.067C282.155 268.072 288.936 274.354 294.014 279.071Z" fill="#E38540"/>
<path d="M270.649 245.43C270.649 245.43 267.791 267.024 265.128 269.218C263.223 270.788 261.874 270.893 260.544 264.452C259.213 258.011 262.614 233.973 262.614 233.973L270.649 245.43Z" fill="#2E5B9A"/>
<path d="M268.371 257.114L241.912 261.565L256.851 240.123L268.219 237.807L275.036 239.376L268.371 257.114Z" fill="#F09959"/>
<path d="M301.618 287.391C300.76 290.853 300.863 293.41 302.355 294.693C303.844 295.975 309.477 305.5 309.477 305.5L311.231 305.234L307.169 296.518L301.618 287.391Z" fill="#2E5B9A"/>
<path d="M312.92 305.716C314.789 306.216 320.259 303.817 323.646 300.999C327.032 298.18 325.029 296.804 321.917 297.277C321.741 297.303 321.568 297.292 321.396 297.25C319.841 300.726 314.728 303.334 313.079 299.662C311.445 296.023 304.438 288.78 301.616 287.23C301.623 287.287 301.625 287.342 301.618 287.391C301.298 289.715 299.829 291.872 304.714 294.5C309.6 297.126 311.05 305.214 312.92 305.716Z" fill="#2E5B9A"/>
<path d="M213.372 235.511C203.985 252.376 210.398 263.095 221.807 264.186C233.217 265.279 251.228 263.193 261.728 254.458C272.227 245.724 280.846 236.489 279.642 235.111C278.437 233.732 213.372 235.511 213.372 235.511Z" fill="#E38540"/>
<path d="M266.608 248.094C268.531 242.321 270.746 237.891 275.036 237.812C279.547 237.727 282.321 240.077 282.515 247.464C282.744 256.262 283.054 285.397 282.648 298.351C282.341 308.157 285.196 311.298 284.954 321.52C284.773 329.22 292.972 325.33 289.805 329.323C287.627 332.069 281.143 331.172 277.161 330.663C273.612 330.212 278.998 319.566 274.087 316.719C269.873 314.276 269.79 310.311 272.451 307.308C275.112 304.307 272.746 295.425 270.973 289.207C269.198 282.99 266.447 276.264 264.638 261.562C264.122 257.375 265.433 251.62 266.608 248.094Z" fill="#F09959"/>
<path d="M287 326.181C285.641 326.596 283.967 327.053 282.507 327.101C279.549 327.199 278.663 323.944 278.465 319.519C278.293 315.656 275.491 309.574 272.617 307.106C272.564 307.176 272.509 307.245 272.453 307.31C269.792 310.311 269.874 314.277 274.089 316.721C279 319.567 273.614 330.213 277.163 330.665C281.145 331.172 287.628 332.07 289.807 329.325C291.864 326.729 289.309 326.523 287 326.181Z" fill="#2E5B9A"/>
<path d="M273.116 306.211C273.116 306.211 268.803 310.72 269.198 312.595C269.592 314.47 270.921 319.207 271.144 322.859C271.366 326.511 271.563 330.702 271.563 330.702C271.563 330.702 273.116 330.702 273.239 330.26C273.362 329.818 274.225 315.418 274.225 315.418L273.116 306.211Z" fill="#2E5B9A"/>
<path d="M208.851 233.975C208.851 233.975 203.284 257.631 210.318 264.188C217.353 270.745 246.566 264.847 253.446 264.453C258.105 264.188 262.614 269.879 262.614 269.879C262.614 269.879 259.361 256.682 261.579 246.023C263.797 235.365 267.376 234.648 267.376 234.648L262.613 233.977H208.851V233.975Z" fill="#75A1DE"/>
<path d="M207.591 227.79C209.971 232.847 205.027 241.582 206.761 244.098C208.493 246.614 218.413 244.45 224.913 239.213C231.413 233.975 243.717 232.824 243.717 232.824L207.591 227.79Z" fill="#A8CEFF"/>
<path d="M217.661 270.891C237.33 271.632 258.032 271.281 258.032 268.348C258.032 265.415 257.144 263.342 241.914 264.526C226.683 265.711 216.332 267.34 211.748 266.304C207.162 265.266 217.661 270.891 217.661 270.891Z" fill="#2E5B9A"/>
<path d="M427.394 236.468H150.29C149.108 236.468 148.149 235.508 148.149 234.324V233.253C148.149 232.068 149.108 231.108 150.29 231.108H427.394C428.577 231.108 429.536 232.068 429.536 233.253V234.324C429.536 235.508 428.577 236.468 427.394 236.468Z" fill="#2E5B9A"/>
<path d="M464.214 159.276C466.12 166.001 461.466 172.93 456.34 174.387C451.213 175.842 447.555 171.273 445.65 164.549C443.746 157.825 446.355 151.195 451.482 149.738C456.607 148.28 462.308 152.551 464.214 159.276Z" fill="#F09959"/>
<path d="M435.472 289.579C435.472 289.579 448.61 310.006 450.384 310.894C452.157 311.783 456.594 312.004 454.931 315.335C453.267 318.665 452.602 331.766 451.049 332.432C449.496 333.098 436.188 334.653 438.184 332.432C440.18 330.212 441.408 331.323 442.415 327.325C443.422 323.329 444.837 315.779 442.953 314.224C441.068 312.67 429.534 298.682 429.534 298.682L435.472 289.579Z" fill="#F09959"/>
<path d="M369.347 298.351C369.347 298.351 353.377 324.701 350.418 327.069C347.46 329.438 337.701 332.99 345.687 333.583C353.672 334.176 357.516 330.919 362.545 329.438C367.572 327.958 373.783 327.069 371.418 323.221C369.052 319.373 370.034 310.971 375.136 305.641C380.236 300.311 369.347 298.351 369.347 298.351Z" fill="#F09959"/>
<path d="M450.847 237.25C450.847 237.25 411.312 236.215 395.637 249.092C386.469 263.007 364.288 304.063 362.565 308.587C363.748 309.772 370.402 311.909 373.36 311.612C382.085 301.198 393.616 292.195 398.204 284.027C403.856 273.96 405.596 268.928 414.766 268.039C423.936 267.151 444.637 264.191 450.848 264.191C457.06 264.191 450.847 237.25 450.847 237.25Z" fill="#6791C9"/>
<path d="M485.322 333.655H483.25L468.39 271.587H472.949L485.322 333.655Z" fill="#2E5B9A"/>
<path d="M423.244 333.655H425.316L442.369 269.393H437.809L423.244 333.655Z" fill="#2E5B9A"/>
<path d="M473.37 234.538L450.385 238.509C450.385 238.509 419.841 238.79 405.879 241.394C393.177 243.762 391.305 258.21 405.879 278.106C414.157 289.408 421.157 298.423 435.472 308.587C439.113 305.912 440.505 304.899 441.512 298.459C440.476 297.038 437.794 288.137 436.962 286.395C429.044 269.826 418.476 263.801 418.328 262.171C420.104 259.285 465.33 277.217 474.323 266.669C482.91 256.599 473.37 234.538 473.37 234.538Z" fill="#75A1DE"/>
<path d="M474.324 182.447C468.27 181.596 462.105 182.747 456.34 186.928C451.301 192.07 445.6 200.549 445.949 214.535C446.392 232.297 443.203 233.438 446.53 238.323C460.406 244.06 484.138 268.705 478.55 242.283C474.503 223.151 487.426 208.889 477 187.669C476.153 185.941 475.092 184.265 474.324 182.447Z" fill="#F37168"/>
<path d="M445.944 221.22C445.674 230.481 444.368 233.208 445.367 236.111C451.024 236.689 461.372 238.956 463.957 242.58C466.915 246.725 469.871 247.317 468.491 244.257C467.111 241.198 463.464 236.857 469.083 221.954C474.703 207.052 477.364 196.986 471.844 186.624L445.944 221.22Z" fill="#D54A41"/>
<path d="M474.324 182.447C470.596 173.613 469.681 163.687 469.681 163.687L459.922 166.574C459.922 166.574 465.466 179.007 460.144 183.448C459.013 184.392 457.7 185.538 456.34 186.926C462.105 182.749 468.27 181.597 474.324 182.447Z" fill="#F09959"/>
<path d="M469.976 166.041C469.398 165.526 468.675 164.883 467.915 164.211L459.955 166.566C459.95 166.581 459.943 166.594 459.938 166.609C460.131 167.049 462.158 171.786 462.425 176.342C464.798 174.902 467.394 172.551 470.364 168.448C470.202 167.537 470.074 166.725 469.976 166.041Z" fill="#E38540"/>
<path d="M467.462 185.225C457.41 188.745 458.525 199.344 449.275 214.978C444.487 223.068 440.041 222.949 440.041 222.949C440.041 222.949 428.812 223.038 415.232 221.376C406.728 220.334 406.189 222.869 412.103 224.986C424.032 229.256 436.411 233.852 446.392 232.741C456.373 231.631 473.443 206.137 474.324 199.501C475.542 190.324 472.526 183.453 467.462 185.225Z" fill="#F09959"/>
<path d="M462.289 273.912C461.665 273.912 461.028 273.904 460.371 273.887C452.202 273.684 446.639 272.553 442.168 271.643C436.882 270.567 433.969 269.976 430.536 271.617C429.378 272.17 427.993 271.68 427.438 270.52C426.884 269.361 427.375 267.974 428.533 267.42C433.37 265.106 437.448 265.936 443.094 267.084C447.386 267.958 452.726 269.044 460.486 269.237C469.224 269.453 474.57 268.142 477.301 265.109C479.74 262.402 480.458 257.888 479.56 250.906C479.257 248.541 478.953 246.574 478.684 244.839C477.933 239.971 477.435 236.755 478.049 231.798C478.621 227.175 480.153 221.01 483.702 209.047C484.067 207.816 485.359 207.116 486.59 207.479C487.819 207.845 488.521 209.138 488.156 210.371C481.52 232.748 481.857 234.932 483.277 244.128C483.549 245.89 483.857 247.888 484.169 250.311C485.253 258.74 484.166 264.432 480.752 268.222C477.231 272.133 471.494 273.912 462.289 273.912Z" fill="#2E5B9A"/>
<path d="M370.434 320.559C359.837 325.747 354.133 328.72 350.737 328.436C349.936 328.37 349.27 328.287 348.713 328.2C344.933 330.436 338.901 333.078 345.688 333.582C353.674 334.175 357.518 330.918 362.546 329.436C367.573 327.956 373.785 327.068 371.419 323.22C370.965 322.484 370.634 321.577 370.434 320.559Z" fill="#D54A41"/>
<path d="M451.54 311.328C451.281 319.727 450.128 328.049 444.997 329.622C443.636 330.039 442.397 330.099 441.3 329.953C440.494 330.951 439.508 330.962 438.186 332.432C436.19 334.653 449.498 333.098 451.051 332.432C452.604 331.766 453.269 318.665 454.933 315.335C456.298 312.598 453.549 311.961 451.54 311.328Z" fill="#D54A41"/>
<path d="M410.721 231.582H377.057C376.153 231.582 375.331 231.057 374.95 230.236L361.345 200.926C360.804 199.761 361.31 198.378 362.473 197.836C363.636 197.295 365.018 197.801 365.559 198.966L378.54 226.931H410.723C412.006 226.931 413.046 227.973 413.046 229.256C413.046 230.54 412.006 231.582 410.721 231.582Z" fill="#75A1DE"/>
<path d="M417.764 221.67C410.962 221.572 404.216 217.513 400.865 218.104C397.513 218.697 386.57 226.295 387.95 226.591C389.331 226.886 398.006 222.385 398.301 222.317C398.597 222.249 400.47 225.435 405.104 226.606C409.738 227.777 405.137 223.13 419.5 227.471C428.839 230.294 417.764 221.67 417.764 221.67Z" fill="#F09959"/>
<path d="M473.324 174.385L474.324 182.447C474.324 182.447 465.523 182.972 461.141 185.438C456.761 187.906 450.297 195.033 450.297 195.033L455.578 185.931L456.338 180.108L473.324 174.385Z" fill="#F2E5DE"/>
<path d="M469.578 184.254C463.039 183.028 460.015 188.893 455.776 198.464C451.537 208.037 444.3 219.663 442.861 221.163C441.423 222.663 418.61 221.163 418.61 221.163C418.61 221.163 417.92 227.775 418.61 228.564C419.301 229.353 423.244 229.255 423.244 229.255C423.244 229.255 424.822 230.515 426.3 231.514C427.779 232.512 440.3 234.387 446.115 234.091C451.932 233.796 457.254 233.302 458.044 232.414C458.832 231.525 474.704 207.051 475.69 198.268C476.675 189.486 472.914 184.88 469.578 184.254Z" fill="#F2E5DE"/>
<path d="M450.297 143.99C437.932 144.583 439.872 163.204 439.872 163.204C439.872 163.204 443.084 164.197 449.811 163.086C449.294 161.088 449.516 155.981 449.516 155.981C449.516 155.981 450.297 160.127 451.291 162.643C452.713 163.296 454.322 162.718 457.058 162.055C458.463 167.972 462.432 170.472 465.151 171.327C468.154 172.272 471.333 173.4 474.882 171.623C478.431 169.846 476.48 151.688 474.595 148.037C471.766 142.556 467.064 137.65 458.931 140.241C454.852 141.538 450.297 143.99 450.297 143.99Z" fill="#303C60"/>
<path d="M471.801 166.106L476.856 173.498C476.856 173.498 471.253 187.512 487.549 193.86C500.311 198.833 498.808 207.594 493.041 216.405C487.274 225.216 496.492 232.91 496.492 232.91C496.492 232.91 497.897 223.15 510.297 221.308C527.203 218.796 531.991 196.073 519.362 184.711C508.913 175.309 505.733 183.095 498.66 174.657C491.587 166.22 478.233 171.919 478.233 171.919L473.339 164.774L471.801 166.106Z" fill="#303C60"/>
<path d="M525.177 207.554C525.111 207.554 525.044 207.537 524.983 207.504C524.787 207.396 524.716 207.15 524.822 206.954C529.083 199.158 525.607 189.713 523.857 187.155C523.672 186.885 523.496 186.611 523.311 186.322C521.592 183.636 519.452 180.293 508.049 178.238C505.318 177.747 503.101 176.117 500.755 174.393C495.891 170.818 490.378 166.767 478.399 172.286C478.197 172.379 477.956 172.291 477.863 172.088C477.77 171.885 477.858 171.645 478.061 171.552C490.472 165.833 496.189 170.035 501.233 173.742C503.501 175.41 505.643 176.984 508.191 177.443C519.941 179.56 522.187 183.068 523.991 185.886C524.173 186.17 524.344 186.44 524.523 186.7C525.577 188.242 526.879 191.435 527.412 195.094C527.875 198.268 527.923 202.968 525.531 207.345C525.459 207.479 525.32 207.554 525.177 207.554Z" fill="#303C60"/>
<path d="M469.1 173.634C468.294 173.634 467.421 173.565 466.48 173.423C462.17 172.777 456.388 170.323 455.933 156.537C455.927 156.315 456.101 156.127 456.323 156.121C456.552 156.111 456.733 156.288 456.74 156.511C456.927 162.218 458.06 166.441 460.104 169.065C461.66 171.063 463.724 172.193 466.598 172.625C470.623 173.227 473.291 172.48 474.53 170.404C474.645 170.213 474.893 170.15 475.084 170.264C475.275 170.379 475.338 170.628 475.224 170.819C474.109 172.691 472.053 173.634 469.1 173.634Z" fill="#303C60"/>
<path d="M83.1952 183.417C68.844 191.631 48.8818 225.782 53.0959 231.354C57.31 236.928 79.9334 222.273 79.9334 222.273L83.1952 183.417Z" fill="#96CFE0"/>
<path d="M110.009 143.814C104.529 143.664 106.563 139.587 100.261 141.214C96.9474 142.07 99.3929 143.435 95.0892 142.992C90.7855 142.548 88.6668 142.103 88.1243 144.916C87.5818 147.728 87.3197 148.617 85.2491 149.062C83.1786 149.505 82.2445 153.207 85.2491 155.724C88.2537 158.24 86.7937 159.276 86.1284 161.349C85.4631 163.422 87.7311 163.57 88.9638 165.495C90.1965 167.419 87.829 167.783 89.6042 169.451C91.3795 171.12 93.8681 170.97 93.8681 170.97L101.339 156.632L110.009 143.814Z" fill="#303C60"/>
<path d="M221.661 315.913C221.661 315.913 229.646 316.136 235.856 313.693C242.066 311.25 246.281 307.476 245.172 311.916C244.064 316.357 238.962 323.975 234.526 324.718C230.089 325.46 228.537 330.345 226.098 330.345C223.659 330.345 220.108 324.718 213.898 321.904C208.239 319.343 221.661 315.913 221.661 315.913Z" fill="#2E5B9A"/>
<path d="M158.737 315.164C158.737 315.164 162.095 319.8 167.94 323.025C173.976 326.355 180.941 327.96 176.622 329.466C172.303 330.972 165.99 332.143 159.832 330.353C155.513 329.097 150.45 328.835 149.111 326.792C147.774 324.749 150.685 319.619 149.474 311.952C148.504 305.809 158.737 315.164 158.737 315.164Z" fill="#2E5B9A"/>
<path d="M121.346 240.65C121.346 240.65 167.601 257.988 171.328 262.834C175.054 267.68 223.675 311.833 223.675 315.09C223.675 318.347 215.395 324.268 215.395 324.268C215.395 324.268 173.694 298.659 163.343 285.631C152.991 272.605 127.728 266.324 114.298 265.118C100.866 263.912 121.346 240.65 121.346 240.65Z" fill="#3E6BAB"/>
<path d="M123.12 240.65C123.12 240.65 154.765 239.466 161.567 240.65C168.37 241.834 183.29 241.821 173.531 269.393C165.883 291.004 163.357 318.365 163.357 318.365L148.149 322.105C148.149 322.105 148.753 272.905 156.009 259.805C150.724 260.677 141.023 262.379 127.579 266.227C102.638 273.367 88.9622 269.791 88.9622 269.791L85.2491 256.765L123.12 240.65Z" fill="#4476BD"/>
<path d="M96.6935 158.859L88.9622 181.729L98.7309 188.169L104.266 168.406L96.6935 158.859Z" fill="#A86B48"/>
<path d="M99.6036 185.049L104.266 168.406L96.6935 158.858L93.8648 167.223C94.842 174.779 97.1995 181.03 99.6036 185.049Z" fill="#7A4E34"/>
<path d="M116.417 162.729C116.667 169.685 113.255 175.705 107.829 176.24C102.404 176.775 97.4534 171.595 96.7715 164.667C96.0896 157.74 99.9337 151.691 105.359 151.156C110.784 150.622 116.022 151.754 116.417 162.729Z" fill="#A86B48"/>
<path d="M85.2474 181.063C61.5125 197.109 76.2751 223.038 81.4863 241.987C85.926 258.126 85.78 267.88 86.4453 267.88C87.1106 267.88 103.434 265.437 112.749 256.999C122.064 248.562 128.362 240.389 128.362 240.389C128.362 240.389 116.427 238.262 112.526 222.806C110.545 214.958 111.446 210.698 106.932 198.265C102.421 185.83 85.2474 181.063 85.2474 181.063Z" fill="#A2DFF2"/>
<path d="M85.2475 181.063L87.7892 174.837C87.7892 174.837 95.849 180.167 99.0644 182.683C102.281 185.199 104.264 185.792 104.264 185.792C104.264 185.792 105.427 194.717 104.672 193.907C95.1605 183.701 85.2475 181.063 85.2475 181.063Z" fill="#A2DFF2"/>
<path d="M74.7288 333.655H76.801L91.6615 271.587H87.1023L74.7288 333.655Z" fill="#2E5B9A"/>
<path d="M136.809 333.655H134.736L117.683 269.393H122.242L136.809 333.655Z" fill="#2E5B9A"/>
<path d="M97.8151 273.912C89.513 273.912 84.2537 272.419 80.8973 269.147C76.7363 265.09 75.8752 258.805 75.8636 250.617C75.8371 233.402 74.8864 229.843 70.0452 219.331C69.5076 218.165 70.017 216.783 71.1817 216.245C72.3464 215.707 73.7267 216.217 74.2643 217.383C79.3809 228.494 80.4825 232.578 80.5091 250.608C80.5224 258.908 81.5742 263.312 84.1392 265.815C86.7705 268.381 91.5288 269.439 99.5654 269.24C107.325 269.049 112.666 267.961 116.958 267.088C122.602 265.938 126.682 265.109 131.518 267.423C132.676 267.976 133.165 269.365 132.613 270.524C132.06 271.683 130.673 272.173 129.515 271.62C126.083 269.977 123.171 270.57 117.883 271.647C113.412 272.557 107.849 273.688 99.6799 273.89C99.0428 273.904 98.4206 273.912 97.8151 273.912Z" fill="#2E5B9A"/>
<path d="M200.368 231.313H166.704C165.421 231.313 164.381 230.271 164.381 228.987C164.381 227.704 165.421 226.662 166.704 226.662H198.887L211.868 198.697C212.409 197.532 213.789 197.028 214.954 197.567C216.117 198.109 216.621 199.491 216.082 200.657L202.477 229.967C202.094 230.788 201.271 231.313 200.368 231.313Z" fill="#3E6BAB"/>
<path d="M86.1268 204.425C86.1268 204.425 92.0414 222.485 99.3613 229.961C106.681 237.436 121.412 239.947 126.025 239.653C122.348 238.174 115.345 233.963 112.53 222.804C110.549 214.957 111.449 210.696 106.935 198.263C103.584 189.034 93.2592 184.028 88.1592 182.062C94.5234 186.637 102.482 194.174 104.928 199.909C107.642 206.275 86.1268 204.425 86.1268 204.425Z" fill="#96CFE0"/>
<path d="M167.767 220.275C167.767 220.275 177.971 215.613 179.079 216.056C180.187 216.499 191.501 223.337 191.501 224.47C191.501 225.603 181.52 220.248 181.52 220.248C181.52 220.248 182.628 223.208 181.963 224.628C181.297 226.048 173.624 226.048 166.704 225.603C159.782 225.159 167.767 220.275 167.767 220.275Z" fill="#A86B48"/>
<path d="M86.4536 190.472C77.0482 209.77 109.311 229.331 128.45 231.07C147.591 232.809 170.331 226.539 170.331 226.539L167.767 220.275C167.767 220.275 129.422 215.264 128.45 214.563C127.48 213.862 89.8979 183.405 86.4536 190.472Z" fill="#A2DFF2"/>
<path d="M98.6811 159.51C99.5521 161.806 98.9134 164.177 97.2543 164.81C95.5935 165.443 93.5412 164.094 92.6702 161.799C91.7992 159.504 92.4379 157.132 94.097 156.499C95.7578 155.867 97.8101 157.215 98.6811 159.51Z" fill="#A86B48"/>
<path d="M116.43 144.819C119.028 143.732 121.955 142.57 121.049 146.989C120.654 148.914 121.049 148.371 121.739 150.147C122.429 151.924 120 153.317 119.211 154.305C118.423 155.292 120.359 156.365 118.781 157.549C117.203 158.733 115.124 157.111 113.654 157.549C109.268 158.859 109.81 155.405 107.345 154.687C104.881 153.968 103.672 154.079 103.204 155.659C102.736 157.238 104.929 162.434 103.056 161.94C101.183 161.447 100.762 165.641 100.257 168.009C99.7529 170.377 98.4687 166.375 98.5517 163.664C98.6795 159.509 97.6492 157.763 96.1195 156.601C94.5898 155.438 93.9394 144.867 101.332 144.471C108.725 144.076 108.773 143.362 111.927 142.694C115.086 142.028 115.245 145.312 116.43 144.819Z" fill="#303C60"/>
<path d="M530.954 265.543C535.669 269.851 533.619 274.161 530.135 282.163C526.65 290.165 526.035 319.713 526.035 319.713L528.905 319.303C528.905 319.303 528.495 288.934 532.389 280.728C536.283 272.52 537.924 268.416 541.408 271.084C544.892 273.749 530.954 265.543 530.954 265.543Z" fill="#74B570"/>
<path d="M528.364 259.964C528.937 257.41 532.338 254.648 536.884 252.303C536.208 256.069 534.04 262.228 536.283 263.49C539.308 265.194 536.578 256.596 537.745 251.869C542.014 249.781 547.15 248.076 551.88 247.227C551.874 247.245 551.869 247.262 551.86 247.278C549.196 254.05 545.712 256.717 547.147 257.744C548.227 258.516 551.743 250.693 556.385 246.684C559.869 246.498 562.817 246.971 564.562 248.353C567.258 250.489 569.067 252.386 566.356 258.891C564.806 259.999 562.8 260.793 560.469 261.027C554.321 261.643 551.451 261.848 555.754 263.9C557.863 264.905 561.395 263.844 564.26 263.196C563.331 264.91 562.188 266.85 560.801 269.061C559.92 270.462 558.951 271.678 557.921 272.731C555.938 273.111 554.211 273.115 553.297 272.723C550.427 271.492 543.049 267.592 541.204 269.235C539.399 270.841 554.87 271.859 553.798 275.942C546.299 280.266 537.718 278.209 536.202 274.238C534.161 268.905 526.64 267.651 528.364 259.964Z" fill="#9CD499"/>
<path d="M543.867 289.139C535.668 282.984 527.264 288.728 522.959 295.294C518.655 301.859 521.73 316.634 521.73 316.634C521.73 316.634 523.369 316.634 523.369 316.018C523.369 315.402 518.859 298.577 529.517 290.986C536.185 286.236 540.995 288.523 541.61 290.78C542.226 293.037 538.946 297.141 538.946 297.141L543.867 289.139Z" fill="#74B570"/>
<path d="M525.01 276.486C533.209 276.486 535.873 289.208 533.619 296.594C531.364 303.982 528.29 317.729 528.29 317.729L526.241 315.678C526.241 315.678 534.03 296.39 532.185 287.772C530.34 279.154 525.831 277.717 525.011 277.717C524.19 277.717 525.01 276.486 525.01 276.486Z" fill="#9CD499"/>
<path d="M531.887 296.651C532.464 295.887 533.176 295.254 534.045 294.835C533.931 295.447 533.79 296.036 533.619 296.594C532.592 299.959 531.394 304.646 530.395 308.75C530.304 308.224 530.164 307.415 529.949 306.164C529.897 305.869 529.857 305.548 529.829 305.209C530.631 302.475 531.39 299.497 531.887 296.651Z" fill="#74B570"/>
<path d="M534.128 296.712C549.705 290.147 541.499 281.135 555.232 287.086C556.199 287.504 557.378 288.562 558.558 290.019C557.335 290.366 555.854 290.615 554.206 290.368C550.107 289.752 551.542 293.035 558.306 293.856C559.58 294.01 560.615 294.223 561.475 294.525C564.697 300.72 566.15 308.873 559.33 311.706C557.986 312.265 556.325 312.585 554.477 312.703C552.373 311.029 554.989 301.341 551.746 302.678C548.632 303.962 552.721 310.984 552.161 312.753C549.086 312.696 545.682 312.195 542.43 311.388C541.143 310.665 540.16 309.697 539.857 308.425C538.831 304.116 545.596 301.449 545.801 297.755C545.99 294.36 543.323 305.226 536.255 306.824C529.866 303.837 526.846 299.782 534.128 296.712Z" fill="#9CD499"/>
<path d="M523.029 285.103C524.668 281.615 520.364 280.795 520.568 283.462C520.751 285.825 520.771 291.572 518.348 293.135C514.172 292.681 508.49 290.997 504.195 288.43C504.14 288.082 504.193 287.725 504.375 287.36C506.22 283.666 518.109 280.589 514.42 279.358C511.481 278.378 506.333 284.164 502.184 287.079C499.692 285.186 498.023 282.93 498.023 280.413C498.023 277.005 502.161 273.145 507.511 271.301C509.919 271.544 512.157 272.862 515.651 274.844C520.812 277.772 519.619 273.038 514.738 270.228C518.951 270.446 523.151 272.248 526.249 276.553C526.249 276.553 525.955 278.393 527.901 281.24C533.209 289.004 527.083 293.538 519.762 293.243C520.175 291.197 521.895 287.514 523.029 285.103Z" fill="#9CD499"/>
<path d="M543.374 288.792C547.382 291.892 551.835 295.518 557.302 297.979C562.769 300.443 561.676 308.468 561.676 308.468C561.676 308.468 562.495 301.537 557.941 299.165C553.385 296.794 550.379 293.967 546.918 293.42C543.455 292.874 541.542 292.326 541.542 292.326C541.542 292.326 542.636 290.137 541.999 289.316C541.358 288.494 543.374 288.792 543.374 288.792Z" fill="#74B570"/>
<path d="M563.131 252.379C548.463 256.3 537.713 265.694 535.709 267.974C533.705 270.255 533.705 270.893 533.705 270.893L535.253 273.811L535.981 273.445C535.981 273.445 534.797 270.982 537.894 267.792C543.236 262.288 549.737 257.943 554.201 256.028C558.668 254.113 563.131 252.379 563.131 252.379Z" fill="#74B570"/>
<path d="M522.644 333.655H528.248C532.233 333.655 535.464 330.421 535.464 326.432V313.543H515.43V326.432C515.43 330.419 518.659 333.655 522.644 333.655Z" fill="#75A1DE"/>
<path d="M535.464 315.847H515.43V317.259H535.464V315.847Z" fill="white"/>
<path d="M535.464 318.421H515.43V319.252H535.464V318.421Z" fill="white"/>
<path d="M284.979 44.3931C284.979 29.1946 272.768 16.8494 257.63 16.6568C242.423 16.4624 229.804 28.7212 229.562 43.943C229.444 51.3737 232.246 58.1483 236.892 63.1923C239.032 65.5159 240.222 68.5619 240.222 71.7225V84.1573C240.222 92.2025 246.797 98.7845 254.832 98.7845H259.703C267.739 98.7845 274.314 92.2025 274.314 84.1573V71.7242C274.314 68.537 275.542 65.486 277.694 63.1375C282.218 58.1998 284.979 51.6195 284.979 44.3931Z" fill="#F5DC95"/>
<path opacity="0.5" d="M281.108 46.2549C281.108 33.1789 270.603 22.5594 257.581 22.3933C244.499 22.2256 233.642 32.772 233.434 45.8679C233.333 52.2605 235.744 58.0885 239.74 62.4283C241.582 64.428 242.604 67.0471 242.604 69.7676V80.4652C242.604 87.386 248.26 93.0479 255.173 93.0479H259.364C266.278 93.0479 271.933 87.386 271.933 80.4652V69.7693C271.933 67.0272 272.99 64.4031 274.842 62.3818C278.732 58.1317 281.108 52.4715 281.108 46.2549Z" fill="white"/>
<path d="M261.365 76.7084H252.24C251.812 76.7084 251.454 76.3812 251.414 75.9544C251.397 75.7767 249.695 58.1433 241.818 53.2039C241.429 52.9598 241.312 52.4483 241.555 52.0596C241.798 51.671 242.31 51.5531 242.699 51.7972C250.382 56.6137 252.565 71.4734 252.987 75.0492H260.489C260.459 73.8218 260.53 71.4551 261.236 68.3908C262.18 64.2952 264.494 58.1168 270.16 51.94C270.47 51.6029 270.994 51.5796 271.333 51.8902C271.67 52.2008 271.693 52.7256 271.383 53.0628C261.027 64.35 262.178 75.672 262.191 75.785C262.218 76.0208 262.143 76.255 261.985 76.431C261.826 76.6071 261.601 76.7084 261.365 76.7084Z" fill="#8A00B9"/>
<path d="M268.195 54.34C265.115 54.34 260.915 52.1493 256.491 49.7743C250.777 52.8203 245.441 55.5524 242.455 53.7388C241.051 52.8867 240.379 51.2192 240.402 48.6416C240.424 46.2151 241.119 44.5791 242.468 43.7786C245.461 42.0048 250.807 44.8349 256.492 47.8892C262.291 44.7934 267.749 41.9118 270.731 43.7288C272.069 44.5442 272.731 46.2034 272.702 48.6582C272.668 51.2126 271.935 52.9316 270.522 53.7653C269.85 54.1639 269.067 54.34 268.195 54.34ZM258.254 48.8342C262.81 51.2574 267.575 53.5793 269.68 52.337C270.561 51.8171 271.019 50.5732 271.044 48.6383C271.067 46.8113 270.673 45.6371 269.87 45.1488C267.835 43.9098 262.896 46.3695 258.254 48.8342ZM244.711 44.8847C244.164 44.8847 243.692 44.986 243.314 45.2086C242.499 45.6919 242.078 46.8512 242.061 48.6565C242.045 50.5715 242.466 51.8039 243.314 52.3187C245.361 53.561 250.143 51.2524 254.729 48.8293C251.022 46.8495 247.13 44.8847 244.711 44.8847Z" fill="#8A00B9"/>
<path d="M260.204 102.729H254.895C253.025 102.729 251.493 101.196 251.493 99.3243V98.826C251.493 96.9542 253.025 95.4213 254.895 95.4213H260.204C262.073 95.4213 263.605 96.9542 263.605 98.826V99.3243C263.605 101.196 262.073 102.729 260.204 102.729Z" fill="#BE00FF"/>
<path d="M239.417 75.2136V84.0095C239.417 92.4334 246.302 99.3276 254.719 99.3276H259.82C268.235 99.3276 275.122 92.4351 275.122 84.0095V75.2136H239.417Z" fill="#BE00FF"/>
<path d="M274.97 77.9823H240.017C238.922 77.9823 238.027 77.0854 238.027 75.9893V75.7684C238.027 74.6722 238.922 73.7753 240.017 73.7753H274.97C276.065 73.7753 276.96 74.6722 276.96 75.7684V75.9893C276.96 77.0854 276.065 77.9823 274.97 77.9823Z" fill="#8A00B9"/>
<path d="M275.094 81.1362L240.406 85.4262C239.319 85.5607 238.32 84.7801 238.186 83.6923L238.159 83.473C238.025 82.3852 238.805 81.3853 239.891 81.2508L274.58 76.9608C275.666 76.8263 276.665 77.6069 276.8 78.6948L276.826 78.914C276.96 80.0019 276.182 81.0017 275.094 81.1362Z" fill="#8A00B9"/>
<path d="M275.094 87.2133L240.406 91.5033C239.319 91.6378 238.32 90.8572 238.186 89.7694L238.159 89.5501C238.025 88.4623 238.805 87.4624 239.891 87.3279L274.58 83.0379C275.666 82.9034 276.665 83.684 276.8 84.7718L276.826 84.9911C276.96 86.0789 276.182 87.0788 275.094 87.2133Z" fill="#8A00B9"/>
<path d="M272.954 93.7172L244.064 97.2897C243.067 97.4126 242.149 96.6968 242.027 95.6986L241.959 95.1539C241.836 94.1557 242.551 93.2373 243.548 93.1143L272.438 89.5418C273.435 89.4189 274.352 90.1348 274.475 91.1329L274.543 91.6777C274.668 92.6759 273.951 93.5943 272.954 93.7172Z" fill="#8A00B9"/>
<path d="M523.085 101.601H541.707C541.707 111.827 533.3 120.243 523.085 120.243C512.87 120.243 504.463 111.827 504.463 101.601C504.463 91.3754 512.87 82.9598 523.085 82.9598V101.601Z" fill="#9EC8FF"/>
<path d="M544.826 98.9921C544.826 88.6965 536.489 80.3506 526.204 80.3506V98.9921H544.826Z" fill="#F39892"/>
<path d="M507.582 98.9921C507.582 109.288 515.919 117.634 526.204 117.634C515.989 117.632 507.582 109.218 507.582 98.9921Z" fill="#F39892"/>
<path d="M526.204 80.3506C515.919 80.3506 507.582 88.6965 507.582 98.9921C507.582 88.7646 515.989 80.3506 526.204 80.3506Z" fill="#F39892"/>
<path d="M526.204 117.632C536.489 117.632 544.826 109.286 544.826 98.9904C544.826 109.218 536.419 117.632 526.204 117.632Z" fill="#F39892"/>
<path d="M162.714 89.2711H158.647V101.052H162.714V89.2711Z" fill="#8A00B9"/>
<path d="M214.841 93.1044H210.774V101.052H214.841V93.1044Z" fill="#8A00B9"/>
<path d="M179.948 73.4897H175.882V101.052H179.948V73.4897Z" fill="#8A00B9"/>
<path d="M188.567 88.6633H184.501V101.052H188.567V88.6633Z" fill="#8A00B9"/>
<path d="M197.185 85.1555H193.118V101.052H197.185V85.1555Z" fill="#8A00B9"/>
<path d="M171.331 81.4933H167.265V101.052H171.331V81.4933Z" fill="#8A00B9"/>
<path d="M205.832 76.9625H201.765V101.052H205.832V76.9625Z" fill="#8A00B9"/>
<mask id="mask0_130_160" style="mask-type:luminance" maskUnits="userSpaceOnUse" x="5" y="30" width="48" height="48">
<path d="M28.9246 30.2127C15.8908 30.2127 5.32568 40.789 5.32568 53.8367C5.32568 66.8844 15.8908 77.4608 28.9246 77.4608C41.9584 77.4608 52.5235 66.8844 52.5235 53.8367C52.5235 40.789 41.9584 30.2127 28.9246 30.2127ZM28.9246 66.3513C22.0211 66.3513 16.4233 60.7492 16.4233 53.8367C16.4233 46.9243 22.0195 41.3222 28.9246 41.3222C35.8281 41.3222 41.4259 46.9243 41.4259 53.8367C41.4259 60.7492 35.8297 66.3513 28.9246 66.3513Z" fill="white"/>
</mask>
<g mask="url(#mask0_130_160)">
<path d="M50.2539 66.8927L28.9263 53.8367L25.0689 78.5636C35.0865 80.1447 45.0244 75.4461 50.2539 66.8927Z" fill="#A2DFF2"/>
</g>
<mask id="mask1_130_160" style="mask-type:luminance" maskUnits="userSpaceOnUse" x="5" y="30" width="48" height="48">
<path d="M28.9246 30.2127C15.8908 30.2127 5.32568 40.789 5.32568 53.8367C5.32568 66.8844 15.8908 77.4608 28.9246 77.4608C41.9584 77.4608 52.5235 66.8844 52.5235 53.8367C52.5235 40.789 41.9584 30.2127 28.9246 30.2127ZM28.9246 66.3513C22.0211 66.3513 16.4233 60.7492 16.4233 53.8367C16.4233 46.9243 22.0195 41.3222 28.9246 41.3222C35.8281 41.3222 41.4259 46.9243 41.4259 53.8367C41.4259 60.7492 35.8297 66.3513 28.9246 66.3513Z" fill="white"/>
</mask>
<g mask="url(#mask1_130_160)">
<path d="M50.2755 66.8629C50.3335 66.7682 50.4082 66.6387 50.4049 66.6436C54.9093 59.0901 55.0918 49.7079 50.959 42.0065C43.4118 45.9643 47.9063 43.5594 28.9246 53.8351C50.2887 66.9144 46.9705 64.8981 50.2755 66.8629Z" fill="#9CD499"/>
</g>
<mask id="mask2_130_160" style="mask-type:luminance" maskUnits="userSpaceOnUse" x="5" y="30" width="48" height="48">
<path d="M28.9246 30.2127C15.8908 30.2127 5.32568 40.789 5.32568 53.8367C5.32568 66.8844 15.8908 77.4608 28.9246 77.4608C41.9584 77.4608 52.5235 66.8844 52.5235 53.8367C52.5235 40.789 41.9584 30.2127 28.9246 30.2127ZM28.9246 66.3513C22.0211 66.3513 16.4233 60.7492 16.4233 53.8367C16.4233 46.9243 22.0195 41.3222 28.9246 41.3222C35.8281 41.3222 41.4259 46.9243 41.4259 53.8367C41.4259 60.7492 35.8297 66.3513 28.9246 66.3513Z" fill="white"/>
</mask>
<g mask="url(#mask2_130_160)">
<path d="M5.47998 45.1887L28.9263 53.8367L50.9208 41.9317C40.6312 22.885 12.9393 25.1687 5.47998 45.1887Z" fill="#9EC8FF"/>
</g>
<mask id="mask3_130_160" style="mask-type:luminance" maskUnits="userSpaceOnUse" x="5" y="30" width="48" height="48">
<path d="M28.9246 30.2127C15.8908 30.2127 5.32568 40.789 5.32568 53.8367C5.32568 66.8844 15.8908 77.4608 28.9246 77.4608C41.9584 77.4608 52.5235 66.8844 52.5235 53.8367C52.5235 40.789 41.9584 30.2127 28.9246 30.2127ZM28.9246 66.3513C22.0211 66.3513 16.4233 60.7492 16.4233 53.8367C16.4233 46.9243 22.0195 41.3222 28.9246 41.3222C35.8281 41.3222 41.4259 46.9243 41.4259 53.8367C41.4259 60.7492 35.8297 66.3513 28.9246 66.3513Z" fill="white"/>
</mask>
<g mask="url(#mask3_130_160)">
<path d="M25.0672 78.5636L28.9246 53.8367L5.47997 45.1887C-0.0962324 60.1513 9.80025 76.1554 25.0672 78.5636Z" fill="#F39892"/>
</g>
<mask id="mask4_130_160" style="mask-type:luminance" maskUnits="userSpaceOnUse" x="5" y="30" width="48" height="48">
<path d="M28.9246 30.2127C15.8908 30.2127 5.32568 40.789 5.32568 53.8367C5.32568 66.8844 15.8908 77.4608 28.9246 77.4608C41.9584 77.4608 52.5235 66.8844 52.5235 53.8367C52.5235 40.789 41.9584 30.2127 28.9246 30.2127ZM28.9246 66.3513C22.0211 66.3513 16.4233 60.7492 16.4233 53.8367C16.4233 46.9243 22.0195 41.3222 28.9246 41.3222C35.8281 41.3222 41.4259 46.9243 41.4259 53.8367C41.4259 60.7492 35.8297 66.3513 28.9246 66.3513Z" fill="white"/>
</mask>
<g mask="url(#mask4_130_160)">
<path d="M3.94531 49.2827C4.38165 49.2827 4.78315 49.394 5.12991 49.5899C5.33231 48.4689 5.61436 47.3561 5.98102 46.2599L18.7112 50.9552C18.7112 50.9518 18.7096 50.9469 18.7096 50.9435C18.683 50.3622 18.902 49.8191 19.262 49.389L17.9879 48.919L6.55838 44.7037C7.49577 42.4184 8.74341 40.3406 10.2399 38.5037C9.7007 38.3061 9.25938 37.9241 8.96904 37.4358C7.35309 39.4155 6.00756 41.661 5.00215 44.129L4.98888 44.1241L4.7002 44.8997L4.40986 45.6803L4.42313 45.6853C4.01997 46.8844 3.71138 48.1018 3.49072 49.3292C3.6417 49.2993 3.79268 49.2827 3.94531 49.2827Z" fill="white"/>
</g>
<mask id="mask5_130_160" style="mask-type:luminance" maskUnits="userSpaceOnUse" x="5" y="30" width="48" height="48">
<path d="M28.9246 30.2127C15.8908 30.2127 5.32568 40.789 5.32568 53.8367C5.32568 66.8844 15.8908 77.4608 28.9246 77.4608C41.9584 77.4608 52.5235 66.8844 52.5235 53.8367C52.5235 40.789 41.9584 30.2127 28.9246 30.2127ZM28.9246 66.3513C22.0211 66.3513 16.4233 60.7492 16.4233 53.8367C16.4233 46.9243 22.0195 41.3222 28.9246 41.3222C35.8281 41.3222 41.4259 46.9243 41.4259 53.8367C41.4259 60.7492 35.8297 66.3513 28.9246 66.3513Z" fill="white"/>
</mask>
<g mask="url(#mask5_130_160)">
<path d="M52.0291 42.2738L52.0424 42.2672L51.6475 41.5364C51.6392 41.5215 51.6309 41.5065 51.6226 41.4932L51.3008 40.892L51.2892 40.8986C48.8005 36.5705 45.2517 33.1175 40.9845 30.892C36.8053 28.7113 32.0537 27.7363 27.2423 28.0718C21.5848 28.4655 16.43 30.588 12.337 34.0227C12.8181 34.315 13.1865 34.7701 13.3905 35.3082C17.2247 32.0878 22.0543 30.0964 27.3568 29.7277C36.6095 29.0833 45.1273 33.6174 49.7844 41.6029L43.289 45.1189C41.9485 45.8414 40.0737 46.8561 36.9347 48.5569C34.9239 49.6464 32.3938 51.0166 29.1536 52.7705L28.9528 52.8784L28.2991 52.4781L28.2643 52.7057L23.6902 51.0183C23.6951 51.6012 23.4579 52.141 23.078 52.5629L28.0022 54.3798L24.3787 77.5986C17.5366 76.2766 11.617 72.0646 8.04494 65.9427C5.90969 62.2839 4.80307 58.2131 4.7533 54.1141C4.49448 54.2071 4.22239 54.2619 3.94698 54.2619C3.64337 54.2619 3.358 54.2054 3.09421 54.1058C3.14232 58.4988 4.32525 62.8602 6.61314 66.7798C10.4373 73.3335 16.7867 77.8378 24.1232 79.2379L24.1215 79.2528L24.9395 79.3824C24.9411 79.3824 25.7607 79.5119 25.7607 79.5119L25.7624 79.497C26.8242 79.6298 27.886 79.6963 28.9478 79.6963C32.6775 79.6963 36.3723 78.8791 39.8083 77.2781C44.2065 75.2286 47.903 72.0231 50.5426 67.9839L50.5592 67.9939L50.7218 67.7281C50.7251 67.7298 50.9855 67.2947 50.9855 67.2947C51.0254 67.2282 51.0751 67.1452 51.1017 67.0987L51.1199 67.0688C51.1249 67.0621 51.1282 67.0538 51.1332 67.0455L51.397 66.6154L51.3854 66.6087C55.6211 59.1531 55.8616 49.9437 52.0291 42.2738ZM26.0162 77.8594L29.5517 55.1953L38.7547 60.8289C42.4645 63.101 44.5864 64.3998 45.9237 65.2169L49.1008 67.1618C44.034 74.8549 35.1296 78.9805 26.0162 77.8594ZM49.9818 65.7218L49.8242 65.6288C48.9532 65.1123 48.5749 64.8881 46.8378 63.8268L30.5887 53.8799L44.0771 46.5788C46.058 45.5125 46.8693 45.0873 48.8818 44.0343C49.3729 43.7769 49.9353 43.4829 50.6056 43.1325C54.1196 50.2626 53.8906 58.7927 49.9818 65.7218Z" fill="#E7F3FE"/>
</g>
<path d="M165.695 58.4124H96.9158C96.1676 58.4124 95.5604 57.8045 95.5604 57.0555V27.4274C95.5604 26.6784 96.1676 26.0705 96.9158 26.0705H165.695C166.443 26.0705 167.051 26.6784 167.051 27.4274V57.0555C167.051 57.8062 166.443 58.4124 165.695 58.4124Z" fill="#8A00B9"/>
<path d="M164.001 56.896H98.6098C98.0059 56.896 97.5148 56.4061 97.5148 55.7998V35.6636C97.5148 35.0574 98.0059 34.5674 98.6098 34.5674H164.001C164.605 34.5674 165.096 35.0574 165.096 35.6636V55.7982C165.096 56.4044 164.605 56.896 164.001 56.896Z" fill="white"/>
<path d="M100.702 30.9734H99.1141C98.779 30.9734 98.5069 30.701 98.5069 30.3655V29.0567C98.5069 28.7212 98.779 28.4489 99.1141 28.4489H100.702C101.037 28.4489 101.309 28.7212 101.309 29.0567V30.3655C101.307 30.7026 101.037 30.9734 100.702 30.9734Z" fill="white"/>
<path d="M105.794 30.9734H104.206C103.871 30.9734 103.599 30.701 103.599 30.3655V29.0567C103.599 28.7212 103.871 28.4489 104.206 28.4489H105.794C106.129 28.4489 106.401 28.7212 106.401 29.0567V30.3655C106.401 30.7026 106.129 30.9734 105.794 30.9734Z" fill="white"/>
<path d="M110.885 30.9734H109.298C108.963 30.9734 108.69 30.701 108.69 30.3655V29.0567C108.69 28.7212 108.963 28.4489 109.298 28.4489H110.885C111.221 28.4489 111.493 28.7212 111.493 29.0567V30.3655C111.493 30.7026 111.221 30.9734 110.885 30.9734Z" fill="white"/>
<path d="M162.345 39.462H126.599C126.011 39.462 125.529 38.9803 125.529 38.3907C125.529 37.8028 126.01 37.3195 126.599 37.3195H162.345C162.933 37.3195 163.416 37.8011 163.416 38.3907C163.416 38.9803 162.934 39.462 162.345 39.462Z" fill="#8A00B9"/>
<path d="M135.46 55.9776H99.7131C99.1241 55.9776 98.643 55.4959 98.643 54.9063C98.643 54.3184 99.1241 53.8351 99.7131 53.8351H135.46C136.047 53.8351 136.53 54.3167 136.53 54.9063C136.528 55.4959 136.047 55.9776 135.46 55.9776Z" fill="#8A00B9"/>
<path d="M142.045 55.9776H138.347C138.146 55.9776 137.982 55.8131 137.982 55.6122V54.2038C137.982 54.0028 138.146 53.8384 138.347 53.8384H142.045C142.246 53.8384 142.41 54.0028 142.41 54.2038V55.6122C142.41 55.8131 142.246 55.9776 142.045 55.9776Z" fill="#8A00B9"/>
<path d="M147.621 55.9776H143.923C143.722 55.9776 143.558 55.8131 143.558 55.6122V54.2038C143.558 54.0028 143.722 53.8384 143.923 53.8384H147.621C147.822 53.8384 147.986 54.0028 147.986 54.2038V55.6122C147.986 55.8131 147.822 55.9776 147.621 55.9776Z" fill="#8A00B9"/>
<path d="M162.691 44.1257H103.494C103.094 44.1257 102.769 43.7985 102.769 43.3999C102.769 42.9996 103.096 42.6741 103.494 42.6741H162.691C163.09 42.6741 163.416 43.0013 163.416 43.3999C163.416 43.7985 163.089 44.1257 162.691 44.1257Z" fill="#8A00B9"/>
<path d="M162.691 47.2614H103.494C103.094 47.2614 102.769 46.9342 102.769 46.5356C102.769 46.1353 103.096 45.8098 103.494 45.8098H162.691C163.09 45.8098 163.416 46.137 163.416 46.5356C163.416 46.9342 163.089 47.2614 162.691 47.2614Z" fill="#8A00B9"/>
<path d="M341.277 37.8194H310.75V20.0067H333.708C336.665 22.9664 338.322 24.6256 341.277 27.5835V37.8194Z" fill="#FFB8B3"/>
<path d="M333.147 20.0067V29.5151H341.277V27.6882L333.657 20.0582L333.147 20.0067Z" fill="#F39892"/>
<path d="M333.708 20.0067V27.6882H341.277L333.708 20.0067Z" fill="#FFB8B3"/>
<path d="M327.797 26.6917H314.192C313.895 26.6917 313.653 26.4492 313.653 26.1519C313.653 25.8546 313.895 25.6121 314.192 25.6121H327.797C328.094 25.6121 328.336 25.8546 328.336 26.1519C328.336 26.4475 328.094 26.6917 327.797 26.6917Z" fill="white"/>
<path d="M327.797 29.452H314.192C313.895 29.452 313.653 29.2095 313.653 28.9122C313.653 28.6149 313.895 28.3724 314.192 28.3724H327.797C328.094 28.3724 328.336 28.6149 328.336 28.9122C328.336 29.2095 328.094 29.452 327.797 29.452Z" fill="white"/>
<path d="M327.797 32.3585H314.192C313.895 32.3585 313.653 32.116 313.653 31.8187C313.653 31.5214 313.895 31.2789 314.192 31.2789H327.797C328.094 31.2789 328.336 31.5214 328.336 31.8187C328.336 32.116 328.094 32.3585 327.797 32.3585Z" fill="white"/>
<path d="M325.101 22.2904C325.605 22.2904 326.013 21.8814 326.013 21.3769C326.013 20.8724 325.605 20.4634 325.101 20.4634C324.597 20.4634 324.188 20.8724 324.188 21.3769C324.188 21.8814 324.597 22.2904 325.101 22.2904Z" fill="#BE00FF"/>
<path d="M210.003 20.8762L190.955 17.1918L186.517 40.1837L205.565 43.8681L210.003 20.8762Z" fill="#FAE8B6"/>
<path d="M205.981 30.8189L195.882 28.8657C195.614 28.8142 195.436 28.5518 195.487 28.2828C195.539 28.0137 195.801 27.836 196.07 27.8875L206.169 29.8406C206.437 29.8921 206.615 30.1546 206.564 30.4236C206.512 30.6927 206.25 30.8704 205.981 30.8189Z" fill="#8A00B9"/>
<path d="M205.493 33.3451L195.395 31.3919C195.126 31.3404 194.948 31.078 195 30.809C195.051 30.5399 195.313 30.3622 195.582 30.4137L205.681 32.3668C205.95 32.4183 206.127 32.6807 206.076 32.9498C206.024 33.2205 205.762 33.3982 205.493 33.3451Z" fill="#8A00B9"/>
<path d="M204.992 35.9426L194.894 33.9894C194.625 33.938 194.447 33.6755 194.499 33.4065C194.55 33.1374 194.814 32.9597 195.081 33.0112L205.18 34.9644C205.449 35.0159 205.626 35.2783 205.575 35.5473C205.523 35.8164 205.261 35.9958 204.992 35.9426Z" fill="#8A00B9"/>
<path d="M199.144 20.2774C199.058 20.7275 198.621 21.0215 198.172 20.9351C197.722 20.8488 197.429 20.412 197.515 19.9619C197.601 19.5118 198.037 19.2178 198.487 19.3042C198.937 19.3905 199.232 19.8273 199.144 20.2774Z" fill="#8A00B9"/>
<path d="M355.367 62.7406L325.885 59.6314L327.832 41.1328L351.207 43.5975C353.34 46.2366 354.536 47.7148 356.67 50.3539L355.367 62.7406Z" fill="#8A00B9"/>
<path d="M350.788 44.9162L328.845 42.6027L327.203 58.2114L354.483 61.088L355.445 51.9483L350.108 51.3853L350.788 44.9162Z" fill="white"/>
<path d="M347.814 50.5881L333.599 49.0883C333.273 49.0534 333.034 48.7595 333.069 48.4323C333.104 48.1051 333.398 47.8676 333.725 47.9025L347.94 49.4022C348.265 49.4371 348.504 49.7311 348.469 50.0583C348.434 50.3838 348.14 50.6213 347.814 50.5881Z" fill="#8A00B9"/>
<path d="M347.483 53.7238L333.268 52.224C332.943 52.1891 332.704 51.8952 332.739 51.568C332.774 51.2425 333.068 51.0033 333.394 51.0382L347.61 52.5379C347.935 52.5728 348.174 52.8668 348.139 53.194C348.104 53.5195 347.81 53.757 347.483 53.7238Z" fill="#8A00B9"/>
<path d="M347.14 56.9973L332.925 55.4976C332.6 55.4627 332.361 55.1687 332.396 54.8415C332.431 54.516 332.724 54.2769 333.051 54.3117L347.266 55.8115C347.591 55.8464 347.83 56.1403 347.795 56.4675C347.761 56.7947 347.465 57.0322 347.14 56.9973Z" fill="#8A00B9"/>
<path d="M338.863 46.3163C339.367 46.3163 339.775 45.9073 339.775 45.4029C339.775 44.8984 339.367 44.4894 338.863 44.4894C338.359 44.4894 337.95 44.8984 337.95 45.4029C337.95 45.9073 338.359 46.3163 338.863 46.3163Z" fill="#BE00FF"/>
<path d="M501.849 30.9734C501.849 36.6003 497.291 41.1627 491.67 41.1627C486.049 41.1627 481.492 36.6003 481.492 30.9734C481.492 25.3464 486.049 20.784 491.67 20.784C497.291 20.7857 501.849 25.3464 501.849 30.9734Z" fill="#8A00B9" fill-opacity="0.6"/>
<path d="M490.66 34.4611C490.653 34.4611 490.648 34.4611 490.642 34.4611C490.505 34.4562 490.376 34.3947 490.286 34.2917L487.522 31.1461C487.342 30.9401 487.361 30.6246 487.567 30.4435C487.773 30.2625 488.088 30.2824 488.269 30.4884L490.686 33.2387L496.218 27.8194C496.413 27.6267 496.729 27.63 496.921 27.8277C497.114 28.0237 497.11 28.3392 496.915 28.5319L491.008 34.3183C490.915 34.4113 490.789 34.4611 490.66 34.4611Z" fill="white"/>
<path d="M33.0657 125.559H91.7478C93.2526 125.559 94.4819 124.327 94.4819 122.822V101.834C94.4819 100.327 93.2509 99.0967 91.7478 99.0967H33.0657C31.5609 99.0967 30.3315 100.329 30.3315 101.834V122.822C30.3315 124.328 31.5626 125.559 33.0657 125.559Z" fill="#9EC8FF"/>
<path d="M86.734 121.568V136.169L69.9274 119.344C69.9274 119.343 86.3922 121.568 86.734 121.568Z" fill="#9EC8FF"/>
<path d="M35.9674 122.937H88.846C90.1219 122.937 91.1638 121.892 91.1638 120.616V104.043C91.1638 102.766 90.1202 101.723 88.846 101.723H35.9674C34.6916 101.723 33.6497 102.767 33.6497 104.043V120.616C33.6497 121.892 34.6933 122.937 35.9674 122.937Z" fill="white"/>
<path d="M59.8434 106.968H85.8231C86.4503 106.968 86.9629 106.454 86.9629 105.827C86.9629 105.199 86.4503 104.686 85.8231 104.686H59.8434C59.2163 104.686 58.7036 105.199 58.7036 105.827C58.7036 106.454 59.2163 106.968 59.8434 106.968Z" fill="#9EC8FF"/>
<path d="M38.1442 111.329H86.3292C86.6776 111.329 86.9629 111.043 86.9629 110.695V110.681C86.9629 110.332 86.6776 110.047 86.3292 110.047H38.1442C37.7958 110.047 37.5104 110.332 37.5104 110.681V110.695C37.5104 111.043 37.7958 111.329 38.1442 111.329Z" fill="#9EC8FF"/>
<path d="M38.1442 113.81H86.3292C86.6776 113.81 86.9629 113.525 86.9629 113.176V113.163C86.9629 112.814 86.6776 112.528 86.3292 112.528H38.1442C37.7958 112.528 37.5104 112.814 37.5104 113.163V113.176C37.5104 113.526 37.7958 113.81 38.1442 113.81Z" fill="#9EC8FF"/>
<path d="M467.081 107.071H470.157C470.807 107.071 471.333 106.544 471.333 105.893V103.357C471.333 102.707 470.807 102.179 470.157 102.179H467.081C466.43 102.179 465.904 102.706 465.904 103.357V105.893C465.904 106.542 466.43 107.071 467.081 107.071Z" fill="#8A00B9" fill-opacity="0.5"/>
<path d="M457.212 107.071H460.288C460.939 107.071 461.465 106.544 461.465 105.893V103.357C461.465 102.707 460.939 102.179 460.288 102.179H457.212C456.562 102.179 456.036 102.706 456.036 103.357V105.893C456.036 106.542 456.562 107.071 457.212 107.071Z" fill="#8A00B9" fill-opacity="0.5"/>
<path d="M447.344 107.071H450.42C451.071 107.071 451.596 106.544 451.596 105.893V103.357C451.596 102.707 451.071 102.179 450.42 102.179H447.344C446.696 102.179 446.168 102.706 446.168 103.357V105.893C446.168 106.542 446.694 107.071 447.344 107.071Z" fill="#8A00B9" fill-opacity="0.5"/>
</g>
<defs>
<clipPath id="clip0_130_160">
<rect width="568" height="355" fill="white"/>
</clipPath>
</defs>
</svg>
