<svg width="1440" height="432" viewBox="0 0 1440 432" fill="none" xmlns="http://www.w3.org/2000/svg">
<g clip-path="url(#clip0_790_898)">
<path d="M1440 0H0V432H1440V0Z" fill="white"/>
<path d="M36 43.2C39.9765 43.2 43.2 39.9764 43.2 36C43.2 32.0235 39.9765 28.8 36 28.8C32.0236 28.8 28.8 32.0235 28.8 36C28.8 39.9764 32.0236 43.2 36 43.2Z" fill="#E2C0EE"/>
<path d="M108 43.2C111.976 43.2 115.2 39.9764 115.2 36C115.2 32.0235 111.976 28.8 108 28.8C104.024 28.8 100.8 32.0235 100.8 36C100.8 39.9764 104.024 43.2 108 43.2Z" fill="#E084FF"/>
<path d="M180 43.2C183.976 43.2 187.2 39.9764 187.2 36C187.2 32.0235 183.976 28.8 180 28.8C176.024 28.8 172.8 32.0235 172.8 36C172.8 39.9764 176.024 43.2 180 43.2Z" fill="#CB8DE0"/>
<path d="M252 43.2C255.976 43.2 259.2 39.9764 259.2 36C259.2 32.0235 255.976 28.8 252 28.8C248.024 28.8 244.8 32.0235 244.8 36C244.8 39.9764 248.024 43.2 252 43.2Z" fill="#EBB0FF"/>
<path d="M324 43.2C327.976 43.2 331.2 39.9764 331.2 36C331.2 32.0235 327.976 28.8 324 28.8C320.024 28.8 316.8 32.0235 316.8 36C316.8 39.9764 320.024 43.2 324 43.2Z" fill="#F3CEFF"/>
<path d="M396 43.2C399.976 43.2 403.2 39.9764 403.2 36C403.2 32.0235 399.976 28.8 396 28.8C392.024 28.8 388.8 32.0235 388.8 36C388.8 39.9764 392.024 43.2 396 43.2Z" fill="#9920C2"/>
<path d="M468 43.2C471.976 43.2 475.2 39.9764 475.2 36C475.2 32.0235 471.976 28.8 468 28.8C464.024 28.8 460.8 32.0235 460.8 36C460.8 39.9764 464.024 43.2 468 43.2Z" fill="#DF7FFF"/>
<path d="M540 43.2C543.976 43.2 547.2 39.9764 547.2 36C547.2 32.0235 543.976 28.8 540 28.8C536.024 28.8 532.8 32.0235 532.8 36C532.8 39.9764 536.024 43.2 540 43.2Z" fill="#C47EDC"/>
<path d="M612 43.2C615.976 43.2 619.2 39.9764 619.2 36C619.2 32.0235 615.976 28.8 612 28.8C608.024 28.8 604.8 32.0235 604.8 36C604.8 39.9764 608.024 43.2 612 43.2Z" fill="#C47EDC"/>
<path d="M684 43.2C687.976 43.2 691.2 39.9764 691.2 36C691.2 32.0235 687.976 28.8 684 28.8C680.024 28.8 676.8 32.0235 676.8 36C676.8 39.9764 680.024 43.2 684 43.2Z" fill="#F3CFFF"/>
<path d="M756 43.2C759.976 43.2 763.2 39.9764 763.2 36C763.2 32.0235 759.976 28.8 756 28.8C752.024 28.8 748.8 32.0235 748.8 36C748.8 39.9764 752.024 43.2 756 43.2Z" fill="#910FBD"/>
<path d="M828 43.2C831.977 43.2 835.2 39.9764 835.2 36C835.2 32.0235 831.977 28.8 828 28.8C824.024 28.8 820.8 32.0235 820.8 36C820.8 39.9764 824.024 43.2 828 43.2Z" fill="#DB71FF"/>
<path d="M900 43.2C903.976 43.2 907.2 39.9764 907.2 36C907.2 32.0235 903.976 28.8 900 28.8C896.024 28.8 892.8 32.0235 892.8 36C892.8 39.9764 896.024 43.2 900 43.2Z" fill="#FDF6FF"/>
<path d="M972 43.2C975.976 43.2 979.2 39.9764 979.2 36C979.2 32.0235 975.976 28.8 972 28.8C968.024 28.8 964.8 32.0235 964.8 36C964.8 39.9764 968.024 43.2 972 43.2Z" fill="#D8AAE8"/>
<path d="M1044 43.2C1047.98 43.2 1051.2 39.9764 1051.2 36C1051.2 32.0235 1047.98 28.8 1044 28.8C1040.02 28.8 1036.8 32.0235 1036.8 36C1036.8 39.9764 1040.02 43.2 1044 43.2Z" fill="#F0C5FF"/>
<path d="M1116 43.2C1119.98 43.2 1123.2 39.9764 1123.2 36C1123.2 32.0235 1119.98 28.8 1116 28.8C1112.02 28.8 1108.8 32.0235 1108.8 36C1108.8 39.9764 1112.02 43.2 1116 43.2Z" fill="#E9A7FF"/>
<path d="M1188 43.2C1191.98 43.2 1195.2 39.9764 1195.2 36C1195.2 32.0235 1191.98 28.8 1188 28.8C1184.02 28.8 1180.8 32.0235 1180.8 36C1180.8 39.9764 1184.02 43.2 1188 43.2Z" fill="#C37CDB"/>
<path d="M1260 43.2C1263.98 43.2 1267.2 39.9764 1267.2 36C1267.2 32.0235 1263.98 28.8 1260 28.8C1256.02 28.8 1252.8 32.0235 1252.8 36C1252.8 39.9764 1256.02 43.2 1260 43.2Z" fill="#FBEFFF"/>
<path d="M1332 43.2C1335.98 43.2 1339.2 39.9764 1339.2 36C1339.2 32.0235 1335.98 28.8 1332 28.8C1328.02 28.8 1324.8 32.0235 1324.8 36C1324.8 39.9764 1328.02 43.2 1332 43.2Z" fill="#EEBBFF"/>
<path d="M1404 43.2C1407.98 43.2 1411.2 39.9764 1411.2 36C1411.2 32.0235 1407.98 28.8 1404 28.8C1400.02 28.8 1396.8 32.0235 1396.8 36C1396.8 39.9764 1400.02 43.2 1404 43.2Z" fill="#CD92E1"/>
<path d="M36 115.2C39.9765 115.2 43.2 111.976 43.2 108C43.2 104.024 39.9765 100.8 36 100.8C32.0236 100.8 28.8 104.024 28.8 108C28.8 111.976 32.0236 115.2 36 115.2Z" fill="#E391FF"/>
<path d="M108 115.2C111.976 115.2 115.2 111.976 115.2 108C115.2 104.024 111.976 100.8 108 100.8C104.024 100.8 100.8 104.024 100.8 108C100.8 111.976 104.024 115.2 108 115.2Z" fill="#F8E4FF"/>
<path d="M180 115.2C183.976 115.2 187.2 111.976 187.2 108C187.2 104.024 183.976 100.8 180 100.8C176.024 100.8 172.8 104.024 172.8 108C172.8 111.976 176.024 115.2 180 115.2Z" fill="#9C27C4"/>
<path d="M252 115.2C255.976 115.2 259.2 111.976 259.2 108C259.2 104.024 255.976 100.8 252 100.8C248.024 100.8 244.8 104.024 244.8 108C244.8 111.976 248.024 115.2 252 115.2Z" fill="#FBEEFF"/>
<path d="M324 115.2C327.976 115.2 331.2 111.976 331.2 108C331.2 104.024 327.976 100.8 324 100.8C320.024 100.8 316.8 104.024 316.8 108C316.8 111.976 320.024 115.2 324 115.2Z" fill="#A842CB"/>
<path d="M396 115.2C399.976 115.2 403.2 111.976 403.2 108C403.2 104.024 399.976 100.8 396 100.8C392.024 100.8 388.8 104.024 388.8 108C388.8 111.976 392.024 115.2 396 115.2Z" fill="#BC6ED7"/>
<path d="M468 115.2C471.976 115.2 475.2 111.976 475.2 108C475.2 104.024 471.976 100.8 468 100.8C464.024 100.8 460.8 104.024 460.8 108C460.8 111.976 464.024 115.2 468 115.2Z" fill="#BF74D9"/>
<path d="M540 115.2C543.976 115.2 547.2 111.976 547.2 108C547.2 104.024 543.976 100.8 540 100.8C536.024 100.8 532.8 104.024 532.8 108C532.8 111.976 536.024 115.2 540 115.2Z" fill="#DA6AFF"/>
<path d="M612 115.2C615.976 115.2 619.2 111.976 619.2 108C619.2 104.024 615.976 100.8 612 100.8C608.024 100.8 604.8 104.024 604.8 108C604.8 111.976 608.024 115.2 612 115.2Z" fill="#FEFCFE"/>
<path d="M684 115.2C687.976 115.2 691.2 111.976 691.2 108C691.2 104.024 687.976 100.8 684 100.8C680.024 100.8 676.8 104.024 676.8 108C676.8 111.976 680.024 115.2 684 115.2Z" fill="#FBF0FF"/>
<path d="M756 115.2C759.976 115.2 763.2 111.976 763.2 108C763.2 104.024 759.976 100.8 756 100.8C752.024 100.8 748.8 104.024 748.8 108C748.8 111.976 752.024 115.2 756 115.2Z" fill="#A133C7"/>
<path d="M828 115.2C831.977 115.2 835.2 111.976 835.2 108C835.2 104.024 831.977 100.8 828 100.8C824.024 100.8 820.8 104.024 820.8 108C820.8 111.976 824.024 115.2 828 115.2Z" fill="#FEFAFF"/>
<path d="M900 115.2C903.976 115.2 907.2 111.976 907.2 108C907.2 104.024 903.976 100.8 900 100.8C896.024 100.8 892.8 104.024 892.8 108C892.8 111.976 896.024 115.2 900 115.2Z" fill="#F0C3FF"/>
<path d="M972 115.2C975.976 115.2 979.2 111.976 979.2 108C979.2 104.024 975.976 100.8 972 100.8C968.024 100.8 964.8 104.024 964.8 108C964.8 111.976 968.024 115.2 972 115.2Z" fill="#D098E3"/>
<path d="M1044 115.2C1047.98 115.2 1051.2 111.976 1051.2 108C1051.2 104.024 1047.98 100.8 1044 100.8C1040.02 100.8 1036.8 104.024 1036.8 108C1036.8 111.976 1040.02 115.2 1044 115.2Z" fill="#F1C6FF"/>
<path d="M1116 115.2C1119.98 115.2 1123.2 111.976 1123.2 108C1123.2 104.024 1119.98 100.8 1116 100.8C1112.02 100.8 1108.8 104.024 1108.8 108C1108.8 111.976 1112.02 115.2 1116 115.2Z" fill="#CC8FE0"/>
<path d="M1188 115.2C1191.98 115.2 1195.2 111.976 1195.2 108C1195.2 104.024 1191.98 100.8 1188 100.8C1184.02 100.8 1180.8 104.024 1180.8 108C1180.8 111.976 1184.02 115.2 1188 115.2Z" fill="#FAEDFF"/>
<path d="M1260 115.2C1263.98 115.2 1267.2 111.976 1267.2 108C1267.2 104.024 1263.98 100.8 1260 100.8C1256.02 100.8 1252.8 104.024 1252.8 108C1252.8 111.976 1256.02 115.2 1260 115.2Z" fill="#E4C3EF"/>
<path d="M1332 115.2C1335.98 115.2 1339.2 111.976 1339.2 108C1339.2 104.024 1335.98 100.8 1332 100.8C1328.02 100.8 1324.8 104.024 1324.8 108C1324.8 111.976 1328.02 115.2 1332 115.2Z" fill="#E6C8F0"/>
<path d="M1404 115.2C1407.98 115.2 1411.2 111.976 1411.2 108C1411.2 104.024 1407.98 100.8 1404 100.8C1400.02 100.8 1396.8 104.024 1396.8 108C1396.8 111.976 1400.02 115.2 1404 115.2Z" fill="#FEFCFF"/>
<path d="M36 187.2C39.9765 187.2 43.2 183.976 43.2 180C43.2 176.024 39.9765 172.8 36 172.8C32.0236 172.8 28.8 176.024 28.8 180C28.8 183.976 32.0236 187.2 36 187.2Z" fill="#DE7CFF"/>
<path d="M108 187.2C111.976 187.2 115.2 183.976 115.2 180C115.2 176.024 111.976 172.8 108 172.8C104.024 172.8 100.8 176.024 100.8 180C100.8 183.976 104.024 187.2 108 187.2Z" fill="#E495FF"/>
<path d="M180 187.2C183.976 187.2 187.2 183.976 187.2 180C187.2 176.024 183.976 172.8 180 172.8C176.024 172.8 172.8 176.024 172.8 180C172.8 183.976 176.024 187.2 180 187.2Z" fill="#E2C0EE"/>
<path d="M252 187.2C255.976 187.2 259.2 183.976 259.2 180C259.2 176.024 255.976 172.8 252 172.8C248.024 172.8 244.8 176.024 244.8 180C244.8 183.976 248.024 187.2 252 187.2Z" fill="#DE7BFF"/>
<path d="M324 187.2C327.976 187.2 331.2 183.976 331.2 180C331.2 176.024 327.976 172.8 324 172.8C320.024 172.8 316.8 176.024 316.8 180C316.8 183.976 320.024 187.2 324 187.2Z" fill="#DBB0E9"/>
<path d="M396 187.2C399.976 187.2 403.2 183.976 403.2 180C403.2 176.024 399.976 172.8 396 172.8C392.024 172.8 388.8 176.024 388.8 180C388.8 183.976 392.024 187.2 396 187.2Z" fill="#E391FF"/>
<path d="M468 187.2C471.976 187.2 475.2 183.976 475.2 180C475.2 176.024 471.976 172.8 468 172.8C464.024 172.8 460.8 176.024 460.8 180C460.8 183.976 464.024 187.2 468 187.2Z" fill="#C47FDC"/>
<path d="M540 187.2C543.976 187.2 547.2 183.976 547.2 180C547.2 176.024 543.976 172.8 540 172.8C536.024 172.8 532.8 176.024 532.8 180C532.8 183.976 536.024 187.2 540 187.2Z" fill="#F1E1F7"/>
<path d="M612 187.2C615.976 187.2 619.2 183.976 619.2 180C619.2 176.024 615.976 172.8 612 172.8C608.024 172.8 604.8 176.024 604.8 180C604.8 183.976 608.024 187.2 612 187.2Z" fill="#EFDBF5"/>
<path d="M684 187.2C687.976 187.2 691.2 183.976 691.2 180C691.2 176.024 687.976 172.8 684 172.8C680.024 172.8 676.8 176.024 676.8 180C676.8 183.976 680.024 187.2 684 187.2Z" fill="#D098E3"/>
<path d="M756 187.2C759.976 187.2 763.2 183.976 763.2 180C763.2 176.024 759.976 172.8 756 172.8C752.024 172.8 748.8 176.024 748.8 180C748.8 183.976 752.024 187.2 756 187.2Z" fill="#EAD1F2"/>
<path d="M828 187.2C831.977 187.2 835.2 183.976 835.2 180C835.2 176.024 831.977 172.8 828 172.8C824.024 172.8 820.8 176.024 820.8 180C820.8 183.976 824.024 187.2 828 187.2Z" fill="#9314BF"/>
<path d="M900 187.2C903.976 187.2 907.2 183.976 907.2 180C907.2 176.024 903.976 172.8 900 172.8C896.024 172.8 892.8 176.024 892.8 180C892.8 183.976 896.024 187.2 900 187.2Z" fill="#F4D4FF"/>
<path d="M972 187.2C975.976 187.2 979.2 183.976 979.2 180C979.2 176.024 975.976 172.8 972 172.8C968.024 172.8 964.8 176.024 964.8 180C964.8 183.976 968.024 187.2 972 187.2Z" fill="#ECD6F4"/>
<path d="M1044 187.2C1047.98 187.2 1051.2 183.976 1051.2 180C1051.2 176.024 1047.98 172.8 1044 172.8C1040.02 172.8 1036.8 176.024 1036.8 180C1036.8 183.976 1040.02 187.2 1044 187.2Z" fill="#DD7AFF"/>
<path d="M1116 187.2C1119.98 187.2 1123.2 183.976 1123.2 180C1123.2 176.024 1119.98 172.8 1116 172.8C1112.02 172.8 1108.8 176.024 1108.8 180C1108.8 183.976 1112.02 187.2 1116 187.2Z" fill="#D099E3"/>
<path d="M1188 187.2C1191.98 187.2 1195.2 183.976 1195.2 180C1195.2 176.024 1191.98 172.8 1188 172.8C1184.02 172.8 1180.8 176.024 1180.8 180C1180.8 183.976 1184.02 187.2 1188 187.2Z" fill="#DAAFE9"/>
<path d="M1260 187.2C1263.98 187.2 1267.2 183.976 1267.2 180C1267.2 176.024 1263.98 172.8 1260 172.8C1256.02 172.8 1252.8 176.024 1252.8 180C1252.8 183.976 1256.02 187.2 1260 187.2Z" fill="#EDB9FF"/>
<path d="M1332 187.2C1335.98 187.2 1339.2 183.976 1339.2 180C1339.2 176.024 1335.98 172.8 1332 172.8C1328.02 172.8 1324.8 176.024 1324.8 180C1324.8 183.976 1328.02 187.2 1332 187.2Z" fill="#ECB5FF"/>
<path d="M1404 187.2C1407.98 187.2 1411.2 183.976 1411.2 180C1411.2 176.024 1407.98 172.8 1404 172.8C1400.02 172.8 1396.8 176.024 1396.8 180C1396.8 183.976 1400.02 187.2 1404 187.2Z" fill="#FAECFF"/>
<path d="M36 259.2C39.9765 259.2 43.2 255.976 43.2 252C43.2 248.024 39.9765 244.8 36 244.8C32.0236 244.8 28.8 248.024 28.8 252C28.8 255.976 32.0236 259.2 36 259.2Z" fill="#C582DD"/>
<path d="M108 259.2C111.976 259.2 115.2 255.976 115.2 252C115.2 248.024 111.976 244.8 108 244.8C104.024 244.8 100.8 248.024 100.8 252C100.8 255.976 104.024 259.2 108 259.2Z" fill="#E082FF"/>
<path d="M180 259.2C183.976 259.2 187.2 255.976 187.2 252C187.2 248.024 183.976 244.8 180 244.8C176.024 244.8 172.8 248.024 172.8 252C172.8 255.976 176.024 259.2 180 259.2Z" fill="#FBEFFF"/>
<path d="M252 259.2C255.976 259.2 259.2 255.976 259.2 252C259.2 248.024 255.976 244.8 252 244.8C248.024 244.8 244.8 248.024 244.8 252C244.8 255.976 248.024 259.2 252 259.2Z" fill="#EBD2F3"/>
<path d="M324 259.2C327.976 259.2 331.2 255.976 331.2 252C331.2 248.024 327.976 244.8 324 244.8C320.024 244.8 316.8 248.024 316.8 252C316.8 255.976 320.024 259.2 324 259.2Z" fill="#B863D4"/>
<path d="M396 259.2C399.976 259.2 403.2 255.976 403.2 252C403.2 248.024 399.976 244.8 396 244.8C392.024 244.8 388.8 248.024 388.8 252C388.8 255.976 392.024 259.2 396 259.2Z" fill="#F6DCFF"/>
<path d="M468 259.2C471.976 259.2 475.2 255.976 475.2 252C475.2 248.024 471.976 244.8 468 244.8C464.024 244.8 460.8 248.024 460.8 252C460.8 255.976 464.024 259.2 468 259.2Z" fill="#F5D9FF"/>
<path d="M540 259.2C543.976 259.2 547.2 255.976 547.2 252C547.2 248.024 543.976 244.8 540 244.8C536.024 244.8 532.8 248.024 532.8 252C532.8 255.976 536.024 259.2 540 259.2Z" fill="#ECB3FF"/>
<path d="M612 259.2C615.976 259.2 619.2 255.976 619.2 252C619.2 248.024 615.976 244.8 612 244.8C608.024 244.8 604.8 248.024 604.8 252C604.8 255.976 608.024 259.2 612 259.2Z" fill="#BB6CD7"/>
<path d="M684 259.2C687.976 259.2 691.2 255.976 691.2 252C691.2 248.024 687.976 244.8 684 244.8C680.024 244.8 676.8 248.024 676.8 252C676.8 255.976 680.024 259.2 684 259.2Z" fill="#D9ADE8"/>
<path d="M756 259.2C759.976 259.2 763.2 255.976 763.2 252C763.2 248.024 759.976 244.8 756 244.8C752.024 244.8 748.8 248.024 748.8 252C748.8 255.976 752.024 259.2 756 259.2Z" fill="#D39FE5"/>
<path d="M828 259.2C831.977 259.2 835.2 255.976 835.2 252C835.2 248.024 831.977 244.8 828 244.8C824.024 244.8 820.8 248.024 820.8 252C820.8 255.976 824.024 259.2 828 259.2Z" fill="#EEBAFF"/>
<path d="M900 259.2C903.976 259.2 907.2 255.976 907.2 252C907.2 248.024 903.976 244.8 900 244.8C896.024 244.8 892.8 248.024 892.8 252C892.8 255.976 896.024 259.2 900 259.2Z" fill="#9416BF"/>
<path d="M972 259.2C975.976 259.2 979.2 255.976 979.2 252C979.2 248.024 975.976 244.8 972 244.8C968.024 244.8 964.8 248.024 964.8 252C964.8 255.976 968.024 259.2 972 259.2Z" fill="#F0DFF6"/>
<path d="M1044 259.2C1047.98 259.2 1051.2 255.976 1051.2 252C1051.2 248.024 1047.98 244.8 1044 244.8C1040.02 244.8 1036.8 248.024 1036.8 252C1036.8 255.976 1040.02 259.2 1044 259.2Z" fill="#F9E9FF"/>
<path d="M1116 259.2C1119.98 259.2 1123.2 255.976 1123.2 252C1123.2 248.024 1119.98 244.8 1116 244.8C1112.02 244.8 1108.8 248.024 1108.8 252C1108.8 255.976 1112.02 259.2 1116 259.2Z" fill="#DC73FF"/>
<path d="M1188 259.2C1191.98 259.2 1195.2 255.976 1195.2 252C1195.2 248.024 1191.98 244.8 1188 244.8C1184.02 244.8 1180.8 248.024 1180.8 252C1180.8 255.976 1184.02 259.2 1188 259.2Z" fill="#E188FF"/>
<path d="M1260 259.2C1263.98 259.2 1267.2 255.976 1267.2 252C1267.2 248.024 1263.98 244.8 1260 244.8C1256.02 244.8 1252.8 248.024 1252.8 252C1252.8 255.976 1256.02 259.2 1260 259.2Z" fill="#F3CFFF"/>
<path d="M1332 259.2C1335.98 259.2 1339.2 255.976 1339.2 252C1339.2 248.024 1335.98 244.8 1332 244.8C1328.02 244.8 1324.8 248.024 1324.8 252C1324.8 255.976 1328.02 259.2 1332 259.2Z" fill="#DCB2EA"/>
<path d="M1404 259.2C1407.98 259.2 1411.2 255.976 1411.2 252C1411.2 248.024 1407.98 244.8 1404 244.8C1400.02 244.8 1396.8 248.024 1396.8 252C1396.8 255.976 1400.02 259.2 1404 259.2Z" fill="#FCF3FF"/>
<path d="M36 331.2C39.9765 331.2 43.2 327.976 43.2 324C43.2 320.024 39.9765 316.8 36 316.8C32.0236 316.8 28.8 320.024 28.8 324C28.8 327.976 32.0236 331.2 36 331.2Z" fill="#E69DFF"/>
<path d="M108 331.2C111.976 331.2 115.2 327.976 115.2 324C115.2 320.024 111.976 316.8 108 316.8C104.024 316.8 100.8 320.024 100.8 324C100.8 327.976 104.024 331.2 108 331.2Z" fill="#9518C0"/>
<path d="M180 331.2C183.976 331.2 187.2 327.976 187.2 324C187.2 320.024 183.976 316.8 180 316.8C176.024 316.8 172.8 320.024 172.8 324C172.8 327.976 176.024 331.2 180 331.2Z" fill="#F4D4FF"/>
<path d="M252 331.2C255.976 331.2 259.2 327.976 259.2 324C259.2 320.024 255.976 316.8 252 316.8C248.024 316.8 244.8 320.024 244.8 324C244.8 327.976 248.024 331.2 252 331.2Z" fill="#E493FF"/>
<path d="M324 331.2C327.976 331.2 331.2 327.976 331.2 324C331.2 320.024 327.976 316.8 324 316.8C320.024 316.8 316.8 320.024 316.8 324C316.8 327.976 320.024 331.2 324 331.2Z" fill="#961AC0"/>
<path d="M396 331.2C399.976 331.2 403.2 327.976 403.2 324C403.2 320.024 399.976 316.8 396 316.8C392.024 316.8 388.8 320.024 388.8 324C388.8 327.976 392.024 331.2 396 331.2Z" fill="#DEB7EB"/>
<path d="M468 331.2C471.976 331.2 475.2 327.976 475.2 324C475.2 320.024 471.976 316.8 468 316.8C464.024 316.8 460.8 320.024 460.8 324C460.8 327.976 464.024 331.2 468 331.2Z" fill="#DE7BFF"/>
<path d="M540 331.2C543.976 331.2 547.2 327.976 547.2 324C547.2 320.024 543.976 316.8 540 316.8C536.024 316.8 532.8 320.024 532.8 324C532.8 327.976 536.024 331.2 540 331.2Z" fill="#E8CDF1"/>
<path d="M612 331.2C615.976 331.2 619.2 327.976 619.2 324C619.2 320.024 615.976 316.8 612 316.8C608.024 316.8 604.8 320.024 604.8 324C604.8 327.976 608.024 331.2 612 331.2Z" fill="#E189FF"/>
<path d="M684 331.2C687.976 331.2 691.2 327.976 691.2 324C691.2 320.024 687.976 316.8 684 316.8C680.024 316.8 676.8 320.024 676.8 324C676.8 327.976 680.024 331.2 684 331.2Z" fill="#DEB7EB"/>
<path d="M756 331.2C759.976 331.2 763.2 327.976 763.2 324C763.2 320.024 759.976 316.8 756 316.8C752.024 316.8 748.8 320.024 748.8 324C748.8 327.976 752.024 331.2 756 331.2Z" fill="#F9E9FF"/>
<path d="M828 331.2C831.977 331.2 835.2 327.976 835.2 324C835.2 320.024 831.977 316.8 828 316.8C824.024 316.8 820.8 320.024 820.8 324C820.8 327.976 824.024 331.2 828 331.2Z" fill="#A438C8"/>
<path d="M900 331.2C903.976 331.2 907.2 327.976 907.2 324C907.2 320.024 903.976 316.8 900 316.8C896.024 316.8 892.8 320.024 892.8 324C892.8 327.976 896.024 331.2 900 331.2Z" fill="#A842CB"/>
<path d="M972 331.2C975.976 331.2 979.2 327.976 979.2 324C979.2 320.024 975.976 316.8 972 316.8C968.024 316.8 964.8 320.024 964.8 324C964.8 327.976 968.024 331.2 972 331.2Z" fill="#F4E6F8"/>
<path d="M1044 331.2C1047.98 331.2 1051.2 327.976 1051.2 324C1051.2 320.024 1047.98 316.8 1044 316.8C1040.02 316.8 1036.8 320.024 1036.8 324C1036.8 327.976 1040.02 331.2 1044 331.2Z" fill="#9921C2"/>
<path d="M1116 331.2C1119.98 331.2 1123.2 327.976 1123.2 324C1123.2 320.024 1119.98 316.8 1116 316.8C1112.02 316.8 1108.8 320.024 1108.8 324C1108.8 327.976 1112.02 331.2 1116 331.2Z" fill="#C887DE"/>
<path d="M1188 331.2C1191.98 331.2 1195.2 327.976 1195.2 324C1195.2 320.024 1191.98 316.8 1188 316.8C1184.02 316.8 1180.8 320.024 1180.8 324C1180.8 327.976 1184.02 331.2 1188 331.2Z" fill="#F9E5FF"/>
<path d="M1260 331.2C1263.98 331.2 1267.2 327.976 1267.2 324C1267.2 320.024 1263.98 316.8 1260 316.8C1256.02 316.8 1252.8 320.024 1252.8 324C1252.8 327.976 1256.02 331.2 1260 331.2Z" fill="#EBD3F3"/>
<path d="M1332 331.2C1335.98 331.2 1339.2 327.976 1339.2 324C1339.2 320.024 1335.98 316.8 1332 316.8C1328.02 316.8 1324.8 320.024 1324.8 324C1324.8 327.976 1328.02 331.2 1332 331.2Z" fill="#DF80FF"/>
<path d="M1404 331.2C1407.98 331.2 1411.2 327.976 1411.2 324C1411.2 320.024 1407.98 316.8 1404 316.8C1400.02 316.8 1396.8 320.024 1396.8 324C1396.8 327.976 1400.02 331.2 1404 331.2Z" fill="#C886DE"/>
<path d="M36 403.2C39.9765 403.2 43.2 399.976 43.2 396C43.2 392.024 39.9765 388.8 36 388.8C32.0236 388.8 28.8 392.024 28.8 396C28.8 399.976 32.0236 403.2 36 403.2Z" fill="#A73FCA"/>
<path d="M108 403.2C111.976 403.2 115.2 399.976 115.2 396C115.2 392.024 111.976 388.8 108 388.8C104.024 388.8 100.8 392.024 100.8 396C100.8 399.976 104.024 403.2 108 403.2Z" fill="#F2CDFF"/>
<path d="M180 403.2C183.976 403.2 187.2 399.976 187.2 396C187.2 392.024 183.976 388.8 180 388.8C176.024 388.8 172.8 392.024 172.8 396C172.8 399.976 176.024 403.2 180 403.2Z" fill="#E28BFF"/>
<path d="M252 403.2C255.976 403.2 259.2 399.976 259.2 396C259.2 392.024 255.976 388.8 252 388.8C248.024 388.8 244.8 392.024 244.8 396C244.8 399.976 248.024 403.2 252 403.2Z" fill="#D29DE4"/>
<path d="M324 403.2C327.976 403.2 331.2 399.976 331.2 396C331.2 392.024 327.976 388.8 324 388.8C320.024 388.8 316.8 392.024 316.8 396C316.8 399.976 320.024 403.2 324 403.2Z" fill="#E599FF"/>
<path d="M396 403.2C399.976 403.2 403.2 399.976 403.2 396C403.2 392.024 399.976 388.8 396 388.8C392.024 388.8 388.8 392.024 388.8 396C388.8 399.976 392.024 403.2 396 403.2Z" fill="#B762D4"/>
<path d="M468 403.2C471.976 403.2 475.2 399.976 475.2 396C475.2 392.024 471.976 388.8 468 388.8C464.024 388.8 460.8 392.024 460.8 396C460.8 399.976 464.024 403.2 468 403.2Z" fill="#D3A0E5"/>
<path d="M540 403.2C543.976 403.2 547.2 399.976 547.2 396C547.2 392.024 543.976 388.8 540 388.8C536.024 388.8 532.8 392.024 532.8 396C532.8 399.976 536.024 403.2 540 403.2Z" fill="#9E2BC5"/>
<path d="M612 403.2C615.976 403.2 619.2 399.976 619.2 396C619.2 392.024 615.976 388.8 612 388.8C608.024 388.8 604.8 392.024 604.8 396C604.8 399.976 608.024 403.2 612 403.2Z" fill="#DD76FF"/>
<path d="M684 403.2C687.976 403.2 691.2 399.976 691.2 396C691.2 392.024 687.976 388.8 684 388.8C680.024 388.8 676.8 392.024 676.8 396C676.8 399.976 680.024 403.2 684 403.2Z" fill="#DC75FF"/>
<path d="M756 403.2C759.976 403.2 763.2 399.976 763.2 396C763.2 392.024 759.976 388.8 756 388.8C752.024 388.8 748.8 392.024 748.8 396C748.8 399.976 752.024 403.2 756 403.2Z" fill="#A943CC"/>
<path d="M828 403.2C831.977 403.2 835.2 399.976 835.2 396C835.2 392.024 831.977 388.8 828 388.8C824.024 388.8 820.8 392.024 820.8 396C820.8 399.976 824.024 403.2 828 403.2Z" fill="#E4C3EF"/>
<path d="M900 403.2C903.976 403.2 907.2 399.976 907.2 396C907.2 392.024 903.976 388.8 900 388.8C896.024 388.8 892.8 392.024 892.8 396C892.8 399.976 896.024 403.2 900 403.2Z" fill="#FCF4FF"/>
<path d="M972 403.2C975.976 403.2 979.2 399.976 979.2 396C979.2 392.024 975.976 388.8 972 388.8C968.024 388.8 964.8 392.024 964.8 396C964.8 399.976 968.024 403.2 972 403.2Z" fill="#9B24C3"/>
<path d="M1044 403.2C1047.98 403.2 1051.2 399.976 1051.2 396C1051.2 392.024 1047.98 388.8 1044 388.8C1040.02 388.8 1036.8 392.024 1036.8 396C1036.8 399.976 1040.02 403.2 1044 403.2Z" fill="#DDB4EB"/>
<path d="M1116 403.2C1119.98 403.2 1123.2 399.976 1123.2 396C1123.2 392.024 1119.98 388.8 1116 388.8C1112.02 388.8 1108.8 392.024 1108.8 396C1108.8 399.976 1112.02 403.2 1116 403.2Z" fill="#EDB8FF"/>
<path d="M1188 403.2C1191.98 403.2 1195.2 399.976 1195.2 396C1195.2 392.024 1191.98 388.8 1188 388.8C1184.02 388.8 1180.8 392.024 1180.8 396C1180.8 399.976 1184.02 403.2 1188 403.2Z" fill="#E0BBEC"/>
<path d="M1260 403.2C1263.98 403.2 1267.2 399.976 1267.2 396C1267.2 392.024 1263.98 388.8 1260 388.8C1256.02 388.8 1252.8 392.024 1252.8 396C1252.8 399.976 1256.02 403.2 1260 403.2Z" fill="#C27BDB"/>
<path d="M1332 403.2C1335.98 403.2 1339.2 399.976 1339.2 396C1339.2 392.024 1335.98 388.8 1332 388.8C1328.02 388.8 1324.8 392.024 1324.8 396C1324.8 399.976 1328.02 403.2 1332 403.2Z" fill="#F1C6FF"/>
<path d="M1404 403.2C1407.98 403.2 1411.2 399.976 1411.2 396C1411.2 392.024 1407.98 388.8 1404 388.8C1400.02 388.8 1396.8 392.024 1396.8 396C1396.8 399.976 1400.02 403.2 1404 403.2Z" fill="#B35AD2"/>
</g>
<defs>
<clipPath id="clip0_790_898">
<rect width="1440" height="431.995" fill="white"/>
</clipPath>
</defs>
</svg>
