<svg width="1440" height="229" viewBox="0 0 1440 229" fill="none" xmlns="http://www.w3.org/2000/svg">
<g clip-path="url(#clip0_790_1021)">
<path d="M1440 0H0V432H1440V0Z" fill="white"/>
<path d="M36 43.2C39.9765 43.2 43.2 39.9765 43.2 36C43.2 32.0236 39.9765 28.8 36 28.8C32.0236 28.8 28.8 32.0236 28.8 36C28.8 39.9765 32.0236 43.2 36 43.2Z" fill="#E2C0EE"/>
<path d="M108 43.2C111.976 43.2 115.2 39.9765 115.2 36C115.2 32.0236 111.976 28.8 108 28.8C104.024 28.8 100.8 32.0236 100.8 36C100.8 39.9765 104.024 43.2 108 43.2Z" fill="#E084FF"/>
<path d="M180 43.2C183.976 43.2 187.2 39.9765 187.2 36C187.2 32.0236 183.976 28.8 180 28.8C176.024 28.8 172.8 32.0236 172.8 36C172.8 39.9765 176.024 43.2 180 43.2Z" fill="#CB8DE0"/>
<path d="M252 43.2C255.976 43.2 259.2 39.9765 259.2 36C259.2 32.0236 255.976 28.8 252 28.8C248.024 28.8 244.8 32.0236 244.8 36C244.8 39.9765 248.024 43.2 252 43.2Z" fill="#EBB0FF"/>
<path d="M324 43.2C327.976 43.2 331.2 39.9765 331.2 36C331.2 32.0236 327.976 28.8 324 28.8C320.024 28.8 316.8 32.0236 316.8 36C316.8 39.9765 320.024 43.2 324 43.2Z" fill="#F3CEFF"/>
<path d="M396 43.2C399.976 43.2 403.2 39.9765 403.2 36C403.2 32.0236 399.976 28.8 396 28.8C392.024 28.8 388.8 32.0236 388.8 36C388.8 39.9765 392.024 43.2 396 43.2Z" fill="#9920C2"/>
<path d="M468 43.2C471.976 43.2 475.2 39.9765 475.2 36C475.2 32.0236 471.976 28.8 468 28.8C464.024 28.8 460.8 32.0236 460.8 36C460.8 39.9765 464.024 43.2 468 43.2Z" fill="#DF7FFF"/>
<path d="M540 43.2C543.976 43.2 547.2 39.9765 547.2 36C547.2 32.0236 543.976 28.8 540 28.8C536.024 28.8 532.8 32.0236 532.8 36C532.8 39.9765 536.024 43.2 540 43.2Z" fill="#C47EDC"/>
<path d="M612 43.2C615.976 43.2 619.2 39.9765 619.2 36C619.2 32.0236 615.976 28.8 612 28.8C608.024 28.8 604.8 32.0236 604.8 36C604.8 39.9765 608.024 43.2 612 43.2Z" fill="#C47EDC"/>
<path d="M684 43.2C687.976 43.2 691.2 39.9765 691.2 36C691.2 32.0236 687.976 28.8 684 28.8C680.024 28.8 676.8 32.0236 676.8 36C676.8 39.9765 680.024 43.2 684 43.2Z" fill="#F3CFFF"/>
<path d="M756 43.2C759.976 43.2 763.2 39.9765 763.2 36C763.2 32.0236 759.976 28.8 756 28.8C752.024 28.8 748.8 32.0236 748.8 36C748.8 39.9765 752.024 43.2 756 43.2Z" fill="#910FBD"/>
<path d="M828 43.2C831.977 43.2 835.2 39.9765 835.2 36C835.2 32.0236 831.977 28.8 828 28.8C824.024 28.8 820.8 32.0236 820.8 36C820.8 39.9765 824.024 43.2 828 43.2Z" fill="#DB71FF"/>
<path d="M900 43.2C903.976 43.2 907.2 39.9765 907.2 36C907.2 32.0236 903.976 28.8 900 28.8C896.024 28.8 892.8 32.0236 892.8 36C892.8 39.9765 896.024 43.2 900 43.2Z" fill="#FDF6FF"/>
<path d="M972 43.2C975.976 43.2 979.2 39.9765 979.2 36C979.2 32.0236 975.976 28.8 972 28.8C968.024 28.8 964.8 32.0236 964.8 36C964.8 39.9765 968.024 43.2 972 43.2Z" fill="#D8AAE8"/>
<path d="M1044 43.2C1047.98 43.2 1051.2 39.9765 1051.2 36C1051.2 32.0236 1047.98 28.8 1044 28.8C1040.02 28.8 1036.8 32.0236 1036.8 36C1036.8 39.9765 1040.02 43.2 1044 43.2Z" fill="#F0C5FF"/>
<path d="M1116 43.2C1119.98 43.2 1123.2 39.9765 1123.2 36C1123.2 32.0236 1119.98 28.8 1116 28.8C1112.02 28.8 1108.8 32.0236 1108.8 36C1108.8 39.9765 1112.02 43.2 1116 43.2Z" fill="#E9A7FF"/>
<path d="M1188 43.2C1191.98 43.2 1195.2 39.9765 1195.2 36C1195.2 32.0236 1191.98 28.8 1188 28.8C1184.02 28.8 1180.8 32.0236 1180.8 36C1180.8 39.9765 1184.02 43.2 1188 43.2Z" fill="#C37CDB"/>
<path d="M1260 43.2C1263.98 43.2 1267.2 39.9765 1267.2 36C1267.2 32.0236 1263.98 28.8 1260 28.8C1256.02 28.8 1252.8 32.0236 1252.8 36C1252.8 39.9765 1256.02 43.2 1260 43.2Z" fill="#FBEFFF"/>
<path d="M1332 43.2C1335.98 43.2 1339.2 39.9765 1339.2 36C1339.2 32.0236 1335.98 28.8 1332 28.8C1328.02 28.8 1324.8 32.0236 1324.8 36C1324.8 39.9765 1328.02 43.2 1332 43.2Z" fill="#EEBBFF"/>
<path d="M1404 43.2C1407.98 43.2 1411.2 39.9765 1411.2 36C1411.2 32.0236 1407.98 28.8 1404 28.8C1400.02 28.8 1396.8 32.0236 1396.8 36C1396.8 39.9765 1400.02 43.2 1404 43.2Z" fill="#CD92E1"/>
<path d="M36 115.2C39.9765 115.2 43.2 111.976 43.2 108C43.2 104.024 39.9765 100.8 36 100.8C32.0236 100.8 28.8 104.024 28.8 108C28.8 111.976 32.0236 115.2 36 115.2Z" fill="#E391FF"/>
<path d="M108 115.2C111.976 115.2 115.2 111.976 115.2 108C115.2 104.024 111.976 100.8 108 100.8C104.024 100.8 100.8 104.024 100.8 108C100.8 111.976 104.024 115.2 108 115.2Z" fill="#F8E4FF"/>
<path d="M180 115.2C183.976 115.2 187.2 111.976 187.2 108C187.2 104.024 183.976 100.8 180 100.8C176.024 100.8 172.8 104.024 172.8 108C172.8 111.976 176.024 115.2 180 115.2Z" fill="#9C27C4"/>
<path d="M252 115.2C255.976 115.2 259.2 111.976 259.2 108C259.2 104.024 255.976 100.8 252 100.8C248.024 100.8 244.8 104.024 244.8 108C244.8 111.976 248.024 115.2 252 115.2Z" fill="#FBEEFF"/>
<path d="M324 115.2C327.976 115.2 331.2 111.976 331.2 108C331.2 104.024 327.976 100.8 324 100.8C320.024 100.8 316.8 104.024 316.8 108C316.8 111.976 320.024 115.2 324 115.2Z" fill="#A842CB"/>
<path d="M396 115.2C399.976 115.2 403.2 111.976 403.2 108C403.2 104.024 399.976 100.8 396 100.8C392.024 100.8 388.8 104.024 388.8 108C388.8 111.976 392.024 115.2 396 115.2Z" fill="#BC6ED7"/>
<path d="M468 115.2C471.976 115.2 475.2 111.976 475.2 108C475.2 104.024 471.976 100.8 468 100.8C464.024 100.8 460.8 104.024 460.8 108C460.8 111.976 464.024 115.2 468 115.2Z" fill="#BF74D9"/>
<path d="M540 115.2C543.976 115.2 547.2 111.976 547.2 108C547.2 104.024 543.976 100.8 540 100.8C536.024 100.8 532.8 104.024 532.8 108C532.8 111.976 536.024 115.2 540 115.2Z" fill="#DA6AFF"/>
<path d="M612 115.2C615.976 115.2 619.2 111.976 619.2 108C619.2 104.024 615.976 100.8 612 100.8C608.024 100.8 604.8 104.024 604.8 108C604.8 111.976 608.024 115.2 612 115.2Z" fill="#FEFCFE"/>
<path d="M684 115.2C687.976 115.2 691.2 111.976 691.2 108C691.2 104.024 687.976 100.8 684 100.8C680.024 100.8 676.8 104.024 676.8 108C676.8 111.976 680.024 115.2 684 115.2Z" fill="#FBF0FF"/>
<path d="M756 115.2C759.976 115.2 763.2 111.976 763.2 108C763.2 104.024 759.976 100.8 756 100.8C752.024 100.8 748.8 104.024 748.8 108C748.8 111.976 752.024 115.2 756 115.2Z" fill="#A133C7"/>
<path d="M828 115.2C831.977 115.2 835.2 111.976 835.2 108C835.2 104.024 831.977 100.8 828 100.8C824.024 100.8 820.8 104.024 820.8 108C820.8 111.976 824.024 115.2 828 115.2Z" fill="#FEFAFF"/>
<path d="M900 115.2C903.976 115.2 907.2 111.976 907.2 108C907.2 104.024 903.976 100.8 900 100.8C896.024 100.8 892.8 104.024 892.8 108C892.8 111.976 896.024 115.2 900 115.2Z" fill="#F0C3FF"/>
<path d="M972 115.2C975.976 115.2 979.2 111.976 979.2 108C979.2 104.024 975.976 100.8 972 100.8C968.024 100.8 964.8 104.024 964.8 108C964.8 111.976 968.024 115.2 972 115.2Z" fill="#D098E3"/>
<path d="M1044 115.2C1047.98 115.2 1051.2 111.976 1051.2 108C1051.2 104.024 1047.98 100.8 1044 100.8C1040.02 100.8 1036.8 104.024 1036.8 108C1036.8 111.976 1040.02 115.2 1044 115.2Z" fill="#F1C6FF"/>
<path d="M1116 115.2C1119.98 115.2 1123.2 111.976 1123.2 108C1123.2 104.024 1119.98 100.8 1116 100.8C1112.02 100.8 1108.8 104.024 1108.8 108C1108.8 111.976 1112.02 115.2 1116 115.2Z" fill="#CC8FE0"/>
<path d="M1188 115.2C1191.98 115.2 1195.2 111.976 1195.2 108C1195.2 104.024 1191.98 100.8 1188 100.8C1184.02 100.8 1180.8 104.024 1180.8 108C1180.8 111.976 1184.02 115.2 1188 115.2Z" fill="#FAEDFF"/>
<path d="M1260 115.2C1263.98 115.2 1267.2 111.976 1267.2 108C1267.2 104.024 1263.98 100.8 1260 100.8C1256.02 100.8 1252.8 104.024 1252.8 108C1252.8 111.976 1256.02 115.2 1260 115.2Z" fill="#E4C3EF"/>
<path d="M1332 115.2C1335.98 115.2 1339.2 111.976 1339.2 108C1339.2 104.024 1335.98 100.8 1332 100.8C1328.02 100.8 1324.8 104.024 1324.8 108C1324.8 111.976 1328.02 115.2 1332 115.2Z" fill="#E6C8F0"/>
<path d="M1404 115.2C1407.98 115.2 1411.2 111.976 1411.2 108C1411.2 104.024 1407.98 100.8 1404 100.8C1400.02 100.8 1396.8 104.024 1396.8 108C1396.8 111.976 1400.02 115.2 1404 115.2Z" fill="#FEFCFF"/>
<path d="M36 187.2C39.9765 187.2 43.2 183.976 43.2 180C43.2 176.024 39.9765 172.8 36 172.8C32.0236 172.8 28.8 176.024 28.8 180C28.8 183.976 32.0236 187.2 36 187.2Z" fill="#DE7CFF"/>
<path d="M108 187.2C111.976 187.2 115.2 183.976 115.2 180C115.2 176.024 111.976 172.8 108 172.8C104.024 172.8 100.8 176.024 100.8 180C100.8 183.976 104.024 187.2 108 187.2Z" fill="#E495FF"/>
<path d="M180 187.2C183.976 187.2 187.2 183.976 187.2 180C187.2 176.024 183.976 172.8 180 172.8C176.024 172.8 172.8 176.024 172.8 180C172.8 183.976 176.024 187.2 180 187.2Z" fill="#E2C0EE"/>
<path d="M252 187.2C255.976 187.2 259.2 183.976 259.2 180C259.2 176.024 255.976 172.8 252 172.8C248.024 172.8 244.8 176.024 244.8 180C244.8 183.976 248.024 187.2 252 187.2Z" fill="#DE7BFF"/>
<path d="M324 187.2C327.976 187.2 331.2 183.976 331.2 180C331.2 176.024 327.976 172.8 324 172.8C320.024 172.8 316.8 176.024 316.8 180C316.8 183.976 320.024 187.2 324 187.2Z" fill="#DBB0E9"/>
<path d="M396 187.2C399.976 187.2 403.2 183.976 403.2 180C403.2 176.024 399.976 172.8 396 172.8C392.024 172.8 388.8 176.024 388.8 180C388.8 183.976 392.024 187.2 396 187.2Z" fill="#E391FF"/>
<path d="M468 187.2C471.976 187.2 475.2 183.976 475.2 180C475.2 176.024 471.976 172.8 468 172.8C464.024 172.8 460.8 176.024 460.8 180C460.8 183.976 464.024 187.2 468 187.2Z" fill="#C47FDC"/>
<path d="M540 187.2C543.976 187.2 547.2 183.976 547.2 180C547.2 176.024 543.976 172.8 540 172.8C536.024 172.8 532.8 176.024 532.8 180C532.8 183.976 536.024 187.2 540 187.2Z" fill="#F1E1F7"/>
<path d="M612 187.2C615.976 187.2 619.2 183.976 619.2 180C619.2 176.024 615.976 172.8 612 172.8C608.024 172.8 604.8 176.024 604.8 180C604.8 183.976 608.024 187.2 612 187.2Z" fill="#EFDBF5"/>
<path d="M684 187.2C687.976 187.2 691.2 183.976 691.2 180C691.2 176.024 687.976 172.8 684 172.8C680.024 172.8 676.8 176.024 676.8 180C676.8 183.976 680.024 187.2 684 187.2Z" fill="#D098E3"/>
<path d="M756 187.2C759.976 187.2 763.2 183.976 763.2 180C763.2 176.024 759.976 172.8 756 172.8C752.024 172.8 748.8 176.024 748.8 180C748.8 183.976 752.024 187.2 756 187.2Z" fill="#EAD1F2"/>
<path d="M828 187.2C831.977 187.2 835.2 183.976 835.2 180C835.2 176.024 831.977 172.8 828 172.8C824.024 172.8 820.8 176.024 820.8 180C820.8 183.976 824.024 187.2 828 187.2Z" fill="#9314BF"/>
<path d="M900 187.2C903.976 187.2 907.2 183.976 907.2 180C907.2 176.024 903.976 172.8 900 172.8C896.024 172.8 892.8 176.024 892.8 180C892.8 183.976 896.024 187.2 900 187.2Z" fill="#F4D4FF"/>
<path d="M972 187.2C975.976 187.2 979.2 183.976 979.2 180C979.2 176.024 975.976 172.8 972 172.8C968.024 172.8 964.8 176.024 964.8 180C964.8 183.976 968.024 187.2 972 187.2Z" fill="#ECD6F4"/>
<path d="M1044 187.2C1047.98 187.2 1051.2 183.976 1051.2 180C1051.2 176.024 1047.98 172.8 1044 172.8C1040.02 172.8 1036.8 176.024 1036.8 180C1036.8 183.976 1040.02 187.2 1044 187.2Z" fill="#DD7AFF"/>
<path d="M1116 187.2C1119.98 187.2 1123.2 183.976 1123.2 180C1123.2 176.024 1119.98 172.8 1116 172.8C1112.02 172.8 1108.8 176.024 1108.8 180C1108.8 183.976 1112.02 187.2 1116 187.2Z" fill="#D099E3"/>
<path d="M1188 187.2C1191.98 187.2 1195.2 183.976 1195.2 180C1195.2 176.024 1191.98 172.8 1188 172.8C1184.02 172.8 1180.8 176.024 1180.8 180C1180.8 183.976 1184.02 187.2 1188 187.2Z" fill="#DAAFE9"/>
<path d="M1260 187.2C1263.98 187.2 1267.2 183.976 1267.2 180C1267.2 176.024 1263.98 172.8 1260 172.8C1256.02 172.8 1252.8 176.024 1252.8 180C1252.8 183.976 1256.02 187.2 1260 187.2Z" fill="#EDB9FF"/>
<path d="M1332 187.2C1335.98 187.2 1339.2 183.976 1339.2 180C1339.2 176.024 1335.98 172.8 1332 172.8C1328.02 172.8 1324.8 176.024 1324.8 180C1324.8 183.976 1328.02 187.2 1332 187.2Z" fill="#ECB5FF"/>
<path d="M1404 187.2C1407.98 187.2 1411.2 183.976 1411.2 180C1411.2 176.024 1407.98 172.8 1404 172.8C1400.02 172.8 1396.8 176.024 1396.8 180C1396.8 183.976 1400.02 187.2 1404 187.2Z" fill="#FAECFF"/>
</g>
<defs>
<clipPath id="clip0_790_1021">
<rect width="1440" height="229" fill="white"/>
</clipPath>
</defs>
</svg>
